<svg xmlns="http://www.w3.org/2000/svg" width="182" height="38">
  <g fill="none" fill-rule="evenodd">
    <path d="M97.638 16.317a4.308 4.308 0 0 0-1.45-.982A4.428 4.428 0 0 0 94.5 15c-.6 0-1.177.112-1.71.335a4.33 4.33 0 0 0-1.428.982 4.573 4.573 0 0 0-.992 1.574c-.24.613-.37 1.317-.37 2.109s.12 1.484.37 2.11c.24.613.578 1.138.992 1.573a4.33 4.33 0 0 0 1.427.982A4.38 4.38 0 0 0 94.5 25c.577 0 1.144-.112 1.689-.335a4.418 4.418 0 0 0 1.449-.982 4.58 4.58 0 0 0 .992-1.574c.24-.613.37-1.317.37-2.109s-.12-1.484-.37-2.11a4.623 4.623 0 0 0-.992-1.573zm60 0a4.308 4.308 0 0 0-1.45-.982A4.428 4.428 0 0 0 154.5 15c-.6 0-1.177.112-1.71.335a4.33 4.33 0 0 0-1.428.982 4.573 4.573 0 0 0-.992 1.574c-.24.613-.37 1.317-.37 2.109s.12 1.484.37 2.11c.24.613.578 1.138.992 1.573a4.33 4.33 0 0 0 1.427.982A4.38 4.38 0 0 0 154.5 25c.577 0 1.144-.112 1.689-.335a4.418 4.418 0 0 0 1.449-.982 4.58 4.58 0 0 0 .992-1.574c.24-.613.37-1.317.37-2.109s-.12-1.484-.37-2.11a4.795 4.795 0 0 0-.992-1.573zm-88.013-.003a4.244 4.244 0 0 0-1.428-.98A4.399 4.399 0 0 0 66.5 15c-.59 0-1.16.122-1.697.356a4.42 4.42 0 0 0-1.428 1.003 4.961 4.961 0 0 0-1 1.57A5.53 5.53 0 0 0 62 20c0 .757.129 1.448.376 2.071.247.624.58 1.136.999 1.57.419.435.891.758 1.428 1.003A4.222 4.222 0 0 0 66.5 25c.59 0 1.16-.111 1.697-.334a4.352 4.352 0 0 0 1.428-.98c.408-.423.741-.947 1-1.57.257-.624.375-1.314.375-2.105 0-.79-.129-1.48-.376-2.105a5.008 5.008 0 0 0-.999-1.592zm47 .048a4.657 4.657 0 0 0-1.428-1.005A4.214 4.214 0 0 0 113.5 15c-.59 0-1.16.112-1.697.335a4.352 4.352 0 0 0-1.428.982c-.408.424-.741.949-1 1.574-.257.625-.375 1.317-.375 2.109s.129 1.484.376 2.11c.247.624.58 1.138.999 1.573.408.424.891.759 1.428.982A4.39 4.39 0 0 0 113.5 25c.59 0 1.16-.123 1.697-.357a4.419 4.419 0 0 0 1.428-1.005c.42-.435.741-.948 1-1.573.257-.625.375-1.306.375-2.076a5.6 5.6 0 0 0-.376-2.076 4.748 4.748 0 0 0-.999-1.551z"/>
    <path fill="currentColor" fill-rule="nonzero" d="M100.455 13.533a8.645 8.645 0 0 0-2.838-1.865C96.523 11.216 95.31 11 94 11c-1.321 0-2.523.226-3.617.668-1.094.453-2.047 1.067-2.838 1.865-.801.798-1.419 1.746-1.874 2.845C85.217 17.478 85 18.685 85 20s.227 2.522.671 3.622a8.416 8.416 0 0 0 1.874 2.845 8.645 8.645 0 0 0 2.838 1.865C91.477 28.784 92.69 29 94 29c1.321 0 2.523-.226 3.617-.668 1.094-.453 2.047-1.067 2.838-1.865.801-.798 1.419-1.746 1.874-2.845.454-1.1.671-2.307.671-3.622s-.227-2.522-.671-3.622c-.455-1.099-1.073-2.047-1.874-2.845zm-2.35 8.504a4.615 4.615 0 0 1-.986 1.52 4.29 4.29 0 0 1-1.44.948A4.513 4.513 0 0 1 94 24.83c-.596 0-1.17-.108-1.7-.324a4.31 4.31 0 0 1-1.42-.948 4.402 4.402 0 0 1-.985-1.52c-.238-.593-.368-1.272-.368-2.037 0-.765.12-1.434.368-2.037.239-.593.574-1.1.986-1.52a4.31 4.31 0 0 1 1.419-.948 4.461 4.461 0 0 1 1.7-.324 4.4 4.4 0 0 1 3.12 1.272c.41.41.746.916.985 1.52.238.593.368 1.272.368 2.037a5.47 5.47 0 0 1-.368 2.037zm83.508-6.645c-.269-.912-.655-1.701-1.17-2.346a5.054 5.054 0 0 0-1.976-1.512c-.806-.356-1.73-.534-2.781-.534-1.15 0-2.17.256-3.06.767a5.79 5.79 0 0 0-2.127 2.08v-2.28H166V29h4.5v-8.539c0-.711.085-1.378.257-2.012.172-.634.419-1.178.752-1.634.332-.467.73-.834 1.202-1.101.473-.278 1.01-.411 1.632-.411 1.031 0 1.815.3 2.352.911.537.6.805 1.535.805 2.79V29h4.5V18.438c.01-1.123-.119-2.135-.387-3.046zM51 12h5v17h-5zm1.983-9a2.94 2.94 0 0 0-1.153.233 2.84 2.84 0 0 0-.954.645 3.037 3.037 0 0 0-.643.944A2.9 2.9 0 0 0 50 6a2.937 2.937 0 0 0 .876 2.122A2.954 2.954 0 0 0 52.983 9c.832 0 1.542-.289 2.13-.867A2.865 2.865 0 0 0 56 6.023c0-.834-.3-1.534-.887-2.112-.6-.622-1.309-.911-2.13-.911zM138 12h5v17h-5zm23.455 1.533a8.645 8.645 0 0 0-2.838-1.865C157.523 11.216 156.31 11 155 11c-1.321 0-2.523.226-3.617.668-1.094.453-2.047 1.067-2.838 1.865-.801.798-1.419 1.746-1.874 2.845-.454 1.1-.671 2.307-.671 3.622s.227 2.522.671 3.622c.455 1.099 1.073 2.047 1.874 2.845a8.645 8.645 0 0 0 2.838 1.865c1.094.452 2.307.668 3.617.668 1.321 0 2.523-.226 3.617-.668 1.094-.453 2.047-1.067 2.838-1.865.801-.798 1.419-1.746 1.874-2.845.454-1.1.671-2.307.671-3.622s-.227-2.522-.671-3.622a8.75 8.75 0 0 0-1.874-2.845zm-2.361 8.504a4.615 4.615 0 0 1-.986 1.52 4.29 4.29 0 0 1-1.44.948 4.513 4.513 0 0 1-1.679.324c-.595 0-1.17-.108-1.7-.324a4.31 4.31 0 0 1-1.419-.948 4.402 4.402 0 0 1-.986-1.52c-.238-.593-.368-1.272-.368-2.037 0-.765.12-1.434.368-2.037.239-.593.574-1.1.986-1.52a4.31 4.31 0 0 1 1.419-.948 4.461 4.461 0 0 1 1.7-.324 4.4 4.4 0 0 1 3.12 1.272c.41.41.747.916.985 1.52.238.593.368 1.272.368 2.037a5.47 5.47 0 0 1-.368 2.037zm-38.558-8.494a8.271 8.271 0 0 0-2.617-1.872 7.38 7.38 0 0 0-3.118-.671c-1.297 0-2.398.249-3.281.758-.883.508-1.538 1.114-1.952 1.84v-2.046H105V36h4.568v-9.524c.414.714 1.069 1.331 1.952 1.84.883.509 1.973.758 3.281.758a7.51 7.51 0 0 0 3.118-.671 8.271 8.271 0 0 0 2.617-1.873c.752-.8 1.352-1.753 1.799-2.857.447-1.104.665-2.316.665-3.636 0-1.32-.218-2.533-.665-3.637-.447-1.103-1.047-2.056-1.799-2.857zm-2.497 8.507a4.684 4.684 0 0 1-1.014 1.526 4.673 4.673 0 0 1-1.45.974 4.45 4.45 0 0 1-1.722.346c-.6 0-1.178-.108-1.723-.325a4.43 4.43 0 0 1-1.45-.952 4.802 4.802 0 0 1-1.014-1.526c-.261-.606-.381-1.277-.381-2.045 0-.769.13-1.44.381-2.046a4.572 4.572 0 0 1 1.014-1.526 4.32 4.32 0 0 1 1.45-.952 4.639 4.639 0 0 1 1.723-.325 4.492 4.492 0 0 1 3.173 1.32c.414.412.752.92 1.013 1.526.251.596.382 1.267.382 2.013 0 .715-.12 1.386-.382 1.992zm-46.607-8.453c-.414-.714-1.069-1.33-1.952-1.84-.883-.507-1.973-.757-3.28-.757a7.51 7.51 0 0 0-3.118.671 8.271 8.271 0 0 0-2.617 1.872c-.752.801-1.352 1.754-1.799 2.857-.447 1.104-.665 2.316-.665 3.637 0 1.32.218 2.532.665 3.636.447 1.104 1.036 2.056 1.799 2.857a8.271 8.271 0 0 0 2.617 1.873 7.38 7.38 0 0 0 3.118.67c1.297 0 2.398-.248 3.281-.757s1.538-1.115 1.952-1.84V36H76V11.552h-4.568v2.045zm-.098 8.485a4.684 4.684 0 0 1-1.014 1.526 4.32 4.32 0 0 1-1.45.953 4.639 4.639 0 0 1-1.723.324 4.492 4.492 0 0 1-3.173-1.32 4.732 4.732 0 0 1-1.013-1.526c-.262-.606-.382-1.266-.382-2.013 0-.736.13-1.407.382-2.013a4.684 4.684 0 0 1 1.014-1.526 4.734 4.734 0 0 1 1.45-.974 4.45 4.45 0 0 1 1.722-.346c.6 0 1.178.108 1.723.324a4.43 4.43 0 0 1 1.45.953c.414.411.752.92 1.014 1.526.261.606.381 1.277.381 2.045 0 .769-.13 1.461-.381 2.067zm62.638 2.393c-.24.078-.57.122-.98.122-.627 0-1.116-.188-1.458-.565a1.739 1.739 0 0 1-.49-.865 4.968 4.968 0 0 1-.126-1.12v-6.754h4.376v-3.97h-4.376V6h-4.773v5.323H123v3.97h3.133v7.63c0 1.963.57 3.482 1.71 4.547.49.476 1.082.842 1.8 1.12.717.277 1.526.41 2.426.41.775 0 1.493-.067 2.13-.2a7.93 7.93 0 0 0 1.801-.587l-1.344-4.081a2.8 2.8 0 0 1-.684.343zM140.983 3a2.94 2.94 0 0 0-1.153.233 2.84 2.84 0 0 0-.954.645 3.037 3.037 0 0 0-.643.944A2.9 2.9 0 0 0 138 6a2.937 2.937 0 0 0 .876 2.122 2.954 2.954 0 0 0 2.107.878c.832 0 1.542-.289 2.13-.867a2.865 2.865 0 0 0 .887-2.11c0-.834-.3-1.534-.887-2.112-.588-.622-1.298-.911-2.13-.911zM19 0C8.506 0 0 8.506 0 19s8.506 19 19 19 19-8.506 19-19S29.494 0 19 0zm-6.05 26.982c0 1.31-1.059 2.38-2.38 2.38a2.379 2.379 0 0 1-2.38-2.38v-8.626c0-1.31 1.059-2.38 2.38-2.38s2.38 1.07 2.38 2.38v8.626zm7.775.022c0 1.3-1.059 2.359-2.38 2.359a2.367 2.367 0 0 1-2.38-2.359V14.021c0-1.3 1.059-2.359 2.38-2.359s2.38 1.06 2.38 2.359v12.983zm7.775-.022a2.38 2.38 0 0 1-2.38 2.38 2.379 2.379 0 0 1-2.38-2.38V9.718a2.38 2.38 0 1 1 4.76 0v17.264z"/>
  </g>
</svg>
