<svg xmlns="http://www.w3.org/2000/svg" width="119" height="25">
  <path fill="currentColor" fill-rule="evenodd" d="M18.026 23.267c.921 1.2 2.5 1.733 3.816 1.733C23.684 25 25 23.733 25 22.267V2.733C25 1.2 23.75 0 22.303 0h-.132c-1.513 0-2.697 1.267-2.697 2.733v14.2l-12.5-15.2C6.053.533 4.474 0 3.158 0 1.316 0 0 1.267 0 2.733v19.534C0 23.8 1.25 25 2.697 25h.132c1.513 0 2.697-1.267 2.697-2.733v-14.2l12.5 15.2zm100.176-3.107l-7.713-7.693 7.713-7.692a2.716 2.716 0 0 0 0-3.847l-.133-.132a2.734 2.734 0 0 0-3.856 0l-6.716 6.697-.465.465-.266.265c-.133.132-.266.132-.399 0l-.332-.332-.4-.398L98.92.796a2.734 2.734 0 0 0-3.856 0l-.133.132a2.716 2.716 0 0 0 0 3.847l7.58 7.692-7.713 7.692a2.716 2.716 0 0 0 0 3.846l.133.133a2.734 2.734 0 0 0 3.856 0l6.716-6.698.465-.464.266-.265c.133-.133.266-.133.399 0l.2.199.598.597 6.715 6.697a2.734 2.734 0 0 0 3.857 0l.133-.132c1.13-1.128 1.13-2.852.066-3.913zm-45.228 3.107c-.921 1.2-2.5 1.733-3.816 1.733C67.316 25 66 23.733 66 22.267V2.733C66 1.2 67.25 0 68.697 0h.132c1.513 0 2.697 1.267 2.697 2.733v14.2l12.5-15.2C84.947.533 86.526 0 87.842 0 89.684 0 91 1.267 91 2.733v19.534C91 23.8 89.75 25 88.303 25h-.132c-1.513 0-2.697-1.267-2.697-2.733v-14.2l-12.5 15.2zM64 2.571C64 1.157 62.622 0 61 0s-3 1.157-3 2.571v6.172c0 .128.162.257.324.257h5.352c.162 0 .324-.129.324-.257V2.57m0 8.709c0-.14-.162-.279-.324-.279h-5.352c-.162 0-.324.14-.324.279v11.005C58 23.746 59.378 25 61 25s3-1.184 3-2.716V11.279zm-8-.217H40.497c-1.445 0-2.627.97-2.627 2.329 0 1.358 1.182 2.264 2.627 2.264h7.817l-2.102 3.493c-.131.259-.328.324-.59.324h-7.62c-.33 0-.46-.065-.592-.324l-3.876-6.986c-.131-.194-.131-.388 0-.647l3.876-6.793c.131-.258.328-.323.591-.323h7.62c.329 0 .46.065.657.323l2.365 3.882c.131.194.197.259.46.259h5.386L49.3.259C49.17.065 49.038 0 48.775 0H34.848c-.328 0-.46.13-.591.388l-6.11 11.062c-.196.324-.196.518 0 .841l6.438 11.386c.132.258.329.323.657.323h13.335c.329 0 .526-.065.657-.388L56 11.062"/>
</svg>
