<svg width="10" height="14" viewBox="0 0 10 14" fill="none" xmlns="http://www.w3.org/2000/svg">
<path d="M9.4622 4.63314C9.4622 5.46255 9.1846 6.42991 8.73518 7.44063C8.28866 8.44482 7.68896 9.4558 7.08218 10.3625C6.47635 11.2678 5.86955 12.0602 5.41384 12.6265C5.27013 12.8051 5.14166 12.961 5.03325 13.0905C4.92485 12.961 4.79639 12.8051 4.65268 12.6265C4.19699 12.0602 3.59021 11.2678 2.98441 10.3625C2.37766 9.45581 1.77798 8.44483 1.33148 7.44064C0.882085 6.42992 0.604492 5.46255 0.604492 4.63314C0.604492 2.44162 2.54733 0.595986 5.03324 0.595986C7.51899 0.595986 9.4622 2.44166 9.4622 4.63314Z" stroke="#768490"/>
<path fill-rule="evenodd" clip-rule="evenodd" d="M6.49137 4.63315C6.49137 5.37468 5.83845 5.9757 5.03287 5.9757C4.22764 5.9757 3.57471 5.37468 3.57471 4.63315C3.57471 3.89178 4.22764 3.29077 5.03287 3.29077C5.83845 3.29077 6.49137 3.89178 6.49137 4.63315Z" fill="#768490"/>
</svg>
