<svg width="10" height="13" viewBox="0 0 10 13" fill="none" xmlns="http://www.w3.org/2000/svg">
<path fill-rule="evenodd" clip-rule="evenodd" d="M8.56163 11.8199H1.23763C0.830634 11.8199 0.499634 11.4899 0.499634 11.0829V4.9399H8.56163C8.96963 4.9399 9.29963 5.2699 9.29963 5.6769V11.0829C9.29963 11.4899 8.96963 11.8199 8.56163 11.8199Z" stroke="#75848F"/>
<path d="M7.76965 4.9224L9.01265 3.6794C9.21265 3.4794 9.21265 3.1534 9.01265 2.9534L6.70865 0.650399C6.50865 0.449399 6.18365 0.449399 5.98365 0.650399L1.71765 4.9164" stroke="#75848F"/>
<path d="M3.44149 3.40289H1.23749C0.830488 3.40289 0.500488 3.73289 0.500488 4.13989V5.09289" stroke="#75848F"/>
<path d="M9.2637 9.5093H6.8547C6.4467 9.5093 6.1167 9.1413 6.1167 8.6873V8.0733C6.1167 7.6193 6.4467 7.2513 6.8547 7.2513H9.2637" stroke="#75848F"/>
</svg>
