<svg xmlns="http://www.w3.org/2000/svg" width="111" height="21" viewBox="0 0 111 21">
  <g fill="currentColor" fill-rule="evenodd">
    <path d="M5.9352 13.7022c.962 0 1.878-.076 2.748-.229v-5.954h-3.206c-.611 0-.916.306-.916.916v4.465c0 .229.077.42.229.573.153.153.344.229.573.229h.572zm2.748 2.633c-1.481.305-2.779.458-3.893.458h-.801c-1.039 0-1.87-.313-2.496-.939-.626-.626-.939-1.457-.939-2.496v-5.266c0-1.145.324-2.042.973-2.691.649-.648 1.546-.973 2.691-.973h8.472v16.028h-4.007v-4.121zM20.5901 13.4731c.809 0 1.725-.153 2.748-.458v-8.587h4.007v12.136h-3.549l-.229-1.145c-.718.473-1.454.821-2.21 1.042-.756.221-1.393.332-1.912.332h-1.03c-1.039 0-1.871-.313-2.496-.939-.626-.626-.939-1.457-.939-2.496v-8.93h4.007v8.243c0 .229.076.421.229.573.152.153.344.229.572.229h.802zM34.4433 13.5873c.809 0 1.725-.152 2.748-.458v-1.374h-3.321c-.228 0-.42.077-.572.229-.153.153-.229.344-.229.573v.229c0 .228.076.42.229.572.152.153.344.229.572.229h.573zm-4.236-8.93c2.793-.305 5.312-.458 7.556-.458 1.038 0 1.87.313 2.496.939.626.626.939 1.458.939 2.496v8.93h-3.549l-.229-1.145c-.718.473-1.454.821-2.21 1.042-.756.221-1.393.332-1.912.332h-.801c-1.039 0-1.871-.313-2.496-.939-.626-.626-.939-1.458-.939-2.496v-1.03c0-1.038.313-1.87.939-2.496.625-.626 1.457-.939 2.496-.939h4.694v-.916c0-.229-.077-.42-.229-.573-.153-.152-.344-.228-.573-.228-.992 0-2.087.046-3.286.137-1.198.091-2.163.161-2.896.206v-2.862zM48.6399 13.4731c.809 0 1.725-.153 2.748-.458v-5.495h-3.435c-.611 0-.916.305-.916.915v4.236c0 .229.076.421.229.573.153.153.344.229.573.229h.801zm3.206 3.091l-.229-1.145c-.718.473-1.454.821-2.21 1.042-.756.221-1.393.332-1.912.332h-1.03c-1.039 0-1.87-.313-2.496-.939-.626-.626-.939-1.457-.939-2.496v-5.266c0-1.145.324-2.042.973-2.69.649-.649 1.546-.974 2.691-.974h4.694V.5351h4.007v16.029h-3.549zM68.447 16.3349c-2.855.306-5.374.458-7.557.458-1.038 0-1.869-.312-2.495-.938-.626-.626-.939-1.458-.939-2.497v-5.266c0-1.145.324-2.041.973-2.69s1.545-.974 2.69-.974h7.328v3.092h-6.068c-.611 0-.916.305-.916.916v4.465c0 .229.076.419.229.572.153.153.343.229.572.229 1.375 0 3.435-.115 6.183-.344v2.977zM78.6364 8.2063c0-.61-.306-.916-.916-.916h-2.748c-.611 0-.916.306-.916.916v4.58c0 .61.305.916.916.916h2.748c.61 0 .916-.306.916-.916v-4.58zm4.007 4.923c0 1.145-.324 2.042-.973 2.691s-1.546.973-2.691.973h-5.266c-1.145 0-2.042-.324-2.691-.973s-.973-1.546-.973-2.691v-5.266c0-1.145.324-2.042.973-2.691s1.546-.973 2.691-.973h5.266c1.145 0 2.042.324 2.691.973s.973 1.546.973 2.691v5.266zM90.085 13.4731c.81 0 1.725-.153 2.748-.458v-5.495h-3.435c-.611 0-.916.305-.916.915v4.236c0 .229.077.421.23.573.152.153.343.229.572.229h.801zm3.206 3.091l-.229-1.145c-.718.473-1.454.821-2.21 1.042-.756.221-1.393.332-1.912.332h-1.03c-1.039 0-1.87-.313-2.496-.939-.626-.626-.939-1.457-.939-2.496v-5.266c0-1.145.324-2.042.974-2.69.648-.649 1.545-.974 2.69-.974h4.694V.5351h4.007v16.029h-3.549zM103.8237 7.0613c-.61 0-.916.306-.916.916v1.26h3.893v-1.26c0-.61-.306-.916-.916-.916h-2.061zm6.526 9.274c-2.946.305-5.617.458-8.014.458-1.038 0-1.87-.313-2.496-.939-.626-.626-.939-1.458-.939-2.496v-5.495c0-1.145.324-2.042.973-2.691s1.546-.973 2.691-.973h4.58c1.145 0 2.041.324 2.69.973.648.649.973 1.546.973 2.691v4.236h-7.9v.915c0 .23.077.421.229.573.153.153.344.229.573.229 1.511 0 3.725-.114 6.64-.343v2.862z"/>
  </g>
</svg>
