<svg xmlns="http://www.w3.org/2000/svg" width="238" height="47" viewBox="0 0 238 47">
  <g fill="none" fill-rule="evenodd">
    <path fill="#FF0025" fill-rule="nonzero" d="M104.576 4.5c-.196.098-.196.294-.098.393l.785.983 7.756 10.032.196.196 1.767 2.262 4.516 5.901.491.59c.098.098.197.098.295.098.294-.098.785-.295.785-.295l.49-.196.59-.295.196-.099 1.767-.786.197-.099h.098l.589-.295 1.473-.688 5.006-2.164c.295-.098.491-.295.688-.393.196-.197.294-.295.294-.492a.628.628 0 0 0 0-.59c0-.098 0-.197-.098-.197v-.098c0-.098-.098-.197-.196-.295l-5.4-6.786a3.06 3.06 0 0 1-.393-.59c-.098-.098-.196-.098-.294-.098l-1.473.59-.196.098-3.338 1.377c-.196.098-.196.295-.098.393.098.197.294.394.294.492l.393.492 2.553 3.245v.098c0 .099.098.099.098.197V18.071s0 .099-.098.099v.196l-.099.099h-.098c-.098 0-.098.098-.196.098-.098.098-.295.098-.491.098h-.49c-.197 0-.295-.098-.394-.196l-.294-.295-.59-.787-.49-.689-2.749-3.54-2.945-3.737-2.16-2.852-.098-.099v-.098-.295c0-.098.098-.197.196-.295.099-.098.197-.197.393-.197.098-.098.295-.098.491-.098h.49c.099 0 .295.098.394.098.098 0 .196.197.294.295l.196.197 2.946 3.737.589.787c.098.098.294.393.392.492.098.098.197.098.295.098l5.007-2.065c.196-.099.196-.295.098-.394L118.517.861c-.197-.197-.393-.394-.59-.492-.196-.099-.49-.197-.785-.295a1.36 1.36 0 0 0-.883 0c-.295 0-.59.098-.786.196L104.576 4.5z"/>
    <path fill="#FF0025" fill-rule="nonzero" d="M134.322 19.35v.786c0 .099-.098.099-.098.197 0 0 0 .099-.098.099 0 .098-.098.196-.196.196v.099c-.098.098-.098.196-.197.196-.098.099-.294.197-.392.295 0 0-.099 0-.099.099-.196.098-.294.196-.49.295l-.197.098-.392.197-5.596 2.458-1.473.689-.589.295h-.098l-.196.098-.59.197-1.472.59-.59.295-.49.197-1.374.59c-.099.098-.295 0-.295-.099l-.982-1.278-4.908-6.393-.098-.196-7.756-10.032-.589-.786L103.3 6.27l-.393-.492c-.098-.098-.196-.098-.294-.098l-11.094 4.523c-.098.099-.196.099-.294.197 0 0-.099 0-.099.099-.098.098-.196.098-.196.196l-.196.197v.098c0 .099-.098.099-.098.197s-.099.197-.099.295v.295c0 .197.099.393.295.59l1.08 1.475 7.068 9.54.098.197 1.08 1.475 3.83 5.212c.195.197.392.394.588.492.196.098.491.197.785.295.295.098.59.098.884.098.295 0 .59-.098.884-.196l.49-.197.884-.393 1.374-.59 2.946-1.279c.098-.098.294 0 .294.098l.785 1.082c.099.098.099.393-.098.393l-3.927 1.672-.294.099-1.964.885-.196.098c-.49.197-.982.295-1.374.394-.491 0-.982 0-1.473-.099-.49-.098-.883-.295-1.276-.491-.393-.197-.687-.492-.982-.886l-3.141-4.229-.099-.196-1.08-1.475-5.89-8.065-1.374-1.77-1.473-2.065c-.098-.099-.098-.197-.196-.295v-.099c0-.098-.098-.098-.098-.196v-.099-.196-.099-.098l.098 12.49v.295c0 .098 0 .197.098.295 0 .098.098.197.098.295 0 .098.098.197.197.295l13.45 18.883c.196.295.588.59.883.885.392.196.785.393 1.276.491.49.099.884.099 1.374.099.491 0 .884-.197 1.375-.394l25.623-11.31c.294-.098.49-.295.687-.393.196-.197.393-.295.49-.492.1-.196.197-.393.295-.59.099-.295.099-.688.099-.688s-.884-7.671-.688-13.67zm-25.23 4.917c0 .098-.098.197-.098.197s0 .098-.098.098l-.098.098h-.099c-.098.099-.196.099-.196.099-.196.098-.295.098-.49.098h-.492c-.196 0-.294-.098-.392-.197l-.295-.295-1.57-2.065-.393-.492-1.767-2.262-1.473-1.967-3.632-4.917-.099-.098v-.099-.295c0-.098.099-.196.197-.295.098-.098.196-.196.392-.196.099-.099.295-.099.491-.099h.491c.098 0 .295.099.393.197l.294.295 1.473 1.967 1.473 1.967 1.767 2.262.589.787 1.963 2.557 1.57 2.065c.099.098.099.197.197.295v.098s0 .099-.098.197z"/>
    <path fill="currentColor" fill-rule="nonzero" d="M151.152 26.752a14.37 14.37 0 0 1-3.253.397h-.69c-.887 0-1.577-.297-2.07-.793-.493-.496-.789-1.19-.789-2.082V19.81c0-.991.296-1.685.79-2.28.59-.595 1.28-.793 2.266-.793h7.197v13.584h-3.352v-3.57h-.099zm-2.366-2.28c.79 0 1.578-.1 2.366-.198v-5.057h-2.661c-.493 0-.789.297-.789.793v3.768a.76.76 0 0 0 .197.496.75.75 0 0 0 .493.198h.394zM161.207 24.274c.69 0 1.479-.1 2.366-.397v-7.338h3.352v10.412h-2.958l-.197-.992a6.521 6.521 0 0 1-1.873.893c-.69.198-1.183.297-1.577.297h-.887c-.887 0-1.577-.297-2.07-.793-.493-.496-.789-1.19-.789-2.082v-7.536h3.352v7.04a.76.76 0 0 0 .197.496.75.75 0 0 0 .493.198h.591v-.198zM169.29 16.837a50.342 50.342 0 0 1 6.408-.397c.887 0 1.578.298 2.07.793.493.496.789 1.19.789 2.083v7.635H175.6l-.197-.992a6.521 6.521 0 0 1-1.873.893c-.592.198-1.183.297-1.578.297h-.69c-.887 0-1.577-.297-2.07-.793-.493-.496-.789-1.19-.789-2.082v-.893c0-.892.296-1.586.79-2.082.492-.496 1.182-.793 2.07-.793h3.942v-.794a.76.76 0 0 0-.197-.495.75.75 0 0 0-.493-.199c-.788 0-1.774 0-2.76.1-.986.099-1.873.099-2.464.198v-2.48zm3.648 7.536c.69 0 1.479-.1 2.366-.397v-1.19h-2.76a.75.75 0 0 0-.493.198.76.76 0 0 0-.197.496v.199a.76.76 0 0 0 .197.495.75.75 0 0 0 .493.199h.394zM187.626 26.95l-.197-.99a6.521 6.521 0 0 1-1.873.892c-.69.198-1.183.297-1.577.297h-.887c-.888 0-1.578-.297-2.07-.793-.493-.496-.79-1.19-.79-2.082V19.81c0-.991.297-1.685.79-2.28.59-.595 1.281-.793 2.267-.793h3.943v-3.272h3.352V26.95h-2.958zm-2.76-2.676c.69 0 1.479-.1 2.366-.397v-4.66h-2.859c-.493 0-.789.297-.789.793v3.57a.76.76 0 0 0 .198.495.75.75 0 0 0 .493.199h.591zM201.624 26.752a51.427 51.427 0 0 1-6.407.397c-.887 0-1.578-.297-2.07-.793-.493-.496-.79-1.19-.79-2.082V19.81c0-.991.297-1.685.79-2.28.492-.595 1.281-.793 2.267-.793h6.21v2.578h-5.126c-.493 0-.788.297-.788.793v3.768a.76.76 0 0 0 .197.496.75.75 0 0 0 .493.198c1.183 0 2.858-.1 5.224-.297v2.478zM213.552 24.075c0 .992-.296 1.686-.788 2.28-.493.596-1.282.794-2.268.794h-4.436c-.985 0-1.676-.297-2.267-.793-.591-.496-.789-1.29-.789-2.28v-4.463c0-.991.296-1.685.789-2.28.493-.595 1.282-.794 2.267-.794h4.436c.986 0 1.676.298 2.268.794.591.495.788 1.289.788 2.28v4.462zm-3.351-4.264c0-.495-.296-.793-.79-.793h-2.365c-.493 0-.789.298-.789.793v3.868c0 .495.296.793.79.793h2.365c.493 0 .789-.298.789-.793V19.81zM222.523 26.95l-.197-.99a6.521 6.521 0 0 1-1.873.892c-.592.198-1.183.297-1.578.297h-.887c-.887 0-1.577-.297-2.07-.793-.493-.496-.789-1.19-.789-2.082V19.81c0-.991.296-1.685.79-2.28.59-.595 1.28-.793 2.266-.793h3.944v-3.272h3.351V26.95h-2.957zm-2.662-2.676c.69 0 1.479-.1 2.366-.397v-4.66h-2.859c-.493 0-.788.297-.788.793v3.57a.76.76 0 0 0 .197.495.75.75 0 0 0 .493.199h.591zM236.915 26.752a56.41 56.41 0 0 1-6.802.397c-.887 0-1.577-.297-2.07-.793-.493-.496-.788-1.19-.788-2.082v-4.66c0-.992.295-1.686.788-2.281.493-.595 1.282-.794 2.267-.794h3.845c.986 0 1.676.298 2.267.794.592.595.789 1.289.789 2.28v3.57h-6.703v.793a.76.76 0 0 0 .197.496.75.75 0 0 0 .493.198c1.281 0 3.154-.099 5.619-.297v2.38h.098zm-5.422-7.833c-.492 0-.788.298-.788.793v1.091h3.253v-1.09c0-.496-.296-.794-.789-.794h-1.676zM145.035 35.18c-.494 0-.79-.098-.988-.297v-.396-.199l.099.1c.099 0 .099.099.197.099.198.099.396.099.593.099.297 0 .395-.1.395-.298 0-.099 0-.099-.098-.099-.1 0-.198-.099-.396-.099-.197 0-.296-.1-.494-.1-.098 0-.197-.098-.296-.197a.759.759 0 0 1-.198-.496c0-.298.1-.496.297-.595.197-.1.494-.199.79-.199.297 0 .593.1.89.298v.1c0 .098-.1.197-.1.197l-.098.1v-.1a.753.753 0 0 0-.494-.198h-.198c-.296 0-.395.1-.395.298 0 .099 0 .099.099.099.099.099.296.099.494.099.197 0 .395.099.494.099.099 0 .197.1.296.198.099.1.198.298.198.496s-.1.397-.297.595c-.197.298-.395.397-.79.397zM148.493 33.892c0-.199 0-.298.099-.496.098-.198.098-.298.296-.397.198-.297.593-.396.988-.396s.691.099.889.396c.198.199.296.496.296.893 0 .396-.098.694-.296.892-.198.298-.593.397-.988.397s-.691-.1-.988-.397c-.197-.198-.296-.496-.296-.892zm.593 0c0 .099 0 .198.098.297 0 .1.1.198.1.198.098.1.295.199.493.199s.395-.1.494-.199a.759.759 0 0 0 .198-.495c0-.199-.1-.397-.198-.595a.753.753 0 0 0-.494-.199c-.198 0-.395.1-.494.199-.197.198-.197.396-.197.595zM154.717 32.9v.595h-.593v1.686h-.593v-1.686h-.395V32.9h.296v-.198c0-.397.1-.694.297-.893.197-.198.494-.396.79-.396h.297v.595c-.1-.1-.1-.1-.198-.1h-.198c-.098 0-.098.1-.098.1-.1.099-.1.297-.1.495v.397h.495zM158.273 34.586c.198 0 .396-.1.396-.199v.595c-.1.1-.198.1-.396.199h-.494c-.098 0-.197-.1-.296-.199-.099-.198-.198-.396-.198-.694v-1.09h-.395v-.496h.395v-.793h.593v.694h.692v.595h-.692v.991c0 .298.099.397.198.397h.197zM160.842 32.603h.692l.494 1.784.493-1.784h.593l.494 1.884.494-1.884h.593l-.79 2.479h-.593l-.494-1.686-.395 1.686h-.593zM168.45 34.982c-.198.1-.396.199-.594.199-.197 0-.296 0-.494-.1-.098 0-.197-.099-.296-.198-.198-.099-.296-.297-.296-.595 0-.198.098-.396.296-.595.198-.198.593-.297.988-.297H168.35c0-.298-.098-.397-.296-.496h-.395c-.099 0-.099 0-.198.1-.197.098-.296.098-.296.198l-.099-.496c.296-.199.593-.199.89-.199.493 0 .888.199.987.595 0 .1.099.298.099.397v.892c0 .199.099.298.197.397l-.395.397c-.197 0-.296-.1-.395-.199zm-.1-.991h-.198c-.394 0-.592.099-.69.198v.198s0 .1.098.1c.099 0 .198.099.395.099.198 0 .297 0 .494-.1v-.495h-.099zM172.203 34.883v.298h-.592V32.7h.592v.2c.1-.2.297-.2.395-.2.198 0 .297 0 .396.1v.694c-.1-.1-.198-.198-.396-.198-.098 0-.098 0-.197.099-.099 0-.099.099-.198.198v1.29zM175.167 33.892c0-.199 0-.397.099-.496.099-.198.197-.298.296-.397.297-.297.593-.396.988-.396.297 0 .593.099.79.297.198.198.297.496.297.793v.298c-.198 0-.494.099-.988.099h-.89c0 .198.1.297.297.397.198.099.395.099.593.099.296 0 .494 0 .692-.1 0 0 .098 0 .098-.099v.595c-.098.1-.296.1-.592.199h-.198c-.395 0-.79-.1-.988-.397-.395-.198-.494-.496-.494-.892zm1.877-.298c-.099-.297-.296-.496-.593-.496-.197 0-.395.1-.592.298 0 .099-.1.099-.1.198H177.045zM185.442 34.982c-.198.1-.396.199-.593.199-.198 0-.395 0-.494-.1-.198-.099-.296-.198-.395-.297-.198-.198-.297-.496-.297-.892 0-.397.1-.694.396-.992.296-.297.592-.397.987-.397h.396v-1.09h.592V34.387c0 .1 0 .1.1.1l.098.099-.494.396c-.198.1-.198.1-.296 0zm-.494-.396c.098 0 .296 0 .395-.1v-1.288c-.099 0-.198-.1-.395-.1-.1 0-.198 0-.297.1-.098 0-.197.099-.197.099a.759.759 0 0 0-.198.496c0 .198.099.396.198.594.099.199.296.199.494.199zM188.504 33.892c0-.199 0-.397.1-.496.098-.198.197-.298.295-.397.297-.297.593-.396.988-.396.297 0 .593.099.79.297.198.198.297.496.297.793v.298c-.197 0-.494.099-.988.099h-.889c0 .198.099.297.296.397.198.099.396.099.593.099.297 0 .494 0 .692-.1 0 0 .099 0 .099-.099v.595c-.1.1-.297.1-.593.199h-.198c-.395 0-.79-.1-.988-.397-.395-.198-.494-.496-.494-.892zm1.779-.298c-.1-.297-.297-.496-.593-.496-.198 0-.395.1-.593.298 0 .099-.099.099-.099.198H190.283zM193.049 32.603h.691l.593 1.685.593-1.685h.691l-.988 2.479h-.493zM197.79 33.892c0-.199 0-.397.1-.496.098-.198.197-.298.296-.397.296-.297.593-.396.988-.396.296 0 .593.099.79.297.198.198.297.496.297.793v.298c-.198 0-.494.099-.988.099h-.89c0 .198.1.297.297.397.198.099.395.099.593.099.296 0 .494 0 .691-.1 0 0 .1 0 .1-.099v.595c-.1.1-.297.1-.594.199h-.197c-.395 0-.79-.1-.988-.397-.395-.198-.494-.496-.494-.892zm1.78-.298c-.1-.297-.297-.496-.594-.496-.197 0-.395.1-.592.298 0 .099-.1.099-.1.198H199.57zM203.323 34.883v.298h-.592v-3.57h.592v3.272zM205.793 33.892c0-.199 0-.298.099-.496s.099-.298.296-.397c.198-.297.593-.396.988-.396s.692.099.89.396c.197.199.296.496.296.893 0 .396-.099.694-.297.892-.197.298-.592.397-.987.397-.396 0-.692-.1-.988-.397-.198-.198-.297-.496-.297-.892zm.593 0c0 .099 0 .198.099.297.099.1.099.198.099.198.098.1.296.199.494.199.197 0 .395-.1.493-.199a.759.759 0 0 0 .198-.495c0-.199-.099-.397-.198-.595a.753.753 0 0 0-.493-.199c-.198 0-.396.1-.494.199-.198.198-.198.396-.198.595zM211.424 35.082V36.073h-.592v-3.47h.592v.198c.198-.1.396-.198.593-.198.198 0 .297 0 .494.099.099.099.297.099.395.198.198.198.297.595.297.992 0 .297-.1.495-.198.793-.099.198-.296.297-.494.397-.197.099-.395.099-.593.099-.197 0-.296 0-.494-.1zm0-.595c.1.099.297.198.494.198.297 0 .494-.198.593-.496v-.297-.298c0-.099-.099-.099-.099-.198 0-.1-.098-.1-.098-.1l-.1-.098c-.098 0-.197-.1-.296-.1-.098 0-.197 0-.296.1-.099 0-.198.099-.198.198v1.09zM216.265 34.487v.694h-.592V32.7h.592v.2c.198-.2.494-.298.692-.298.296 0 .494.099.593.396l.296-.297c.099-.1.296-.1.395-.1.099 0 .297 0 .395.1.1 0 .198.099.198.198.099.198.198.397.198.694v1.587h-.692v-1.29c0-.396-.099-.594-.198-.693h-.198s-.098 0-.098.099c-.099 0-.099.099-.198.297v1.587H216.957v-1.29-.495c0-.1-.099-.1-.099-.198h-.099c-.197 0-.395.099-.494.297v.992zM221.403 32.603h.691l.593 1.685.593-1.685h.691l-.988 2.479h-.494zM226.046 33.892c0-.199 0-.397.099-.496.099-.198.197-.298.296-.397.297-.297.593-.396.988-.396.296 0 .593.099.79.297.198.198.297.496.297.793v.298c-.198 0-.494.099-.988.099h-.89c0 .198.1.297.297.397.198.099.395.099.593.099.296 0 .494 0 .691-.1 0 0 .1 0 .1-.099v.595c-.1.1-.297.1-.594.199h-.197c-.395 0-.79-.1-.988-.397-.296-.198-.494-.496-.494-.892zm1.877-.298c-.099-.297-.296-.496-.593-.496-.197 0-.395.1-.593.298 0 .099-.098.099-.098.198h1.284zM231.677 34.784v.298h-.593v-2.48h.593v.199c.198-.198.395-.298.692-.298.296 0 .494.1.593.298.197.198.197.397.197.694V35.082h-.494v-1.29c0-.495-.099-.694-.395-.694-.198 0-.395.1-.494.298v1.388h-.099zM237.012 34.586c.198 0 .395-.1.395-.199v.595c-.099.1-.197.1-.395.199h-.494c-.099 0-.197-.1-.296-.199-.1-.198-.198-.396-.198-.694v-1.09h-.395v-.496h.395v-.793h.593v.694h.691v.595h-.691v.991c0 .298.099.397.197.397h.198zM0 26.455v-7.933h3.655c1.68 0 2.668 1.19 2.668 2.579 0 1.388-.988 2.578-2.668 2.578H1.68v2.776H0zm4.643-5.354c0-.695-.494-1.091-1.185-1.091H1.679v2.181h1.779c.691 0 1.185-.496 1.185-1.09zM7.014 23.58c0-1.587 1.186-2.975 3.063-2.975 1.877 0 3.063 1.388 3.063 2.974 0 1.686-1.186 2.975-3.063 2.975-1.976.1-3.063-1.289-3.063-2.975zm4.446 0c0-.893-.494-1.686-1.482-1.686-.889 0-1.482.793-1.482 1.685 0 .893.494 1.686 1.482 1.686s1.482-.793 1.482-1.686zM19.166 26.455l-1.186-3.867-1.185 3.867h-1.58l-1.779-5.751h1.58l1.087 3.867 1.285-3.867h1.383l1.284 3.867 1.087-3.867h1.383l-1.778 5.751zM22.92 23.58c0-1.686 1.186-2.975 2.964-2.975 1.68 0 2.865 1.289 2.865 3.173v.297h-4.248c.099.694.691 1.29 1.68 1.29.493 0 1.185-.2 1.481-.596l.692.992c-.593.496-1.482.793-2.371.793-1.779.1-3.063-1.09-3.063-2.975zm2.964-1.785c-.89 0-1.383.694-1.383 1.289h2.865c-.099-.595-.494-1.29-1.482-1.29zM29.836 26.455v-5.751h1.482v.793c.395-.496 1.086-.892 1.778-.892v1.487H32.7c-.494 0-1.186.298-1.383.694v3.768h-1.482v-.099zM33.689 23.58c0-1.686 1.185-2.975 2.964-2.975 1.679 0 2.865 1.289 2.865 3.173v.297h-4.249c.1.694.692 1.29 1.68 1.29.494 0 1.185-.2 1.482-.596l.691.992c-.592.496-1.482.793-2.37.793-1.68.1-3.063-1.09-3.063-2.975zm2.964-1.785c-.89 0-1.384.694-1.384 1.289h2.865c-.098-.595-.494-1.29-1.481-1.29zM44.556 26.455v-.694c-.494.595-1.087.892-1.778.892-1.482 0-2.569-1.09-2.569-2.974 0-1.884 1.087-2.975 2.569-2.975.691 0 1.284.297 1.778.892v-2.974h1.482v7.932h-1.482v-.099zm0-1.884v-2.082c-.296-.397-.79-.694-1.284-.694-.89 0-1.482.694-1.482 1.685 0 .992.593 1.686 1.482 1.686.494.1 1.086-.198 1.284-.595zM50.582 26.455v-7.933h1.581v2.975c.494-.595 1.087-.892 1.778-.892 1.482 0 2.57 1.19 2.57 2.974 0 1.884-1.088 2.975-2.57 2.975-.691 0-1.284-.297-1.778-.892v.694h-1.58v.099zm2.865-1.19c.89 0 1.482-.694 1.482-1.686 0-.991-.592-1.685-1.482-1.685-.493 0-1.086.297-1.284.694v2.082c.198.298.79.595 1.284.595zM57.597 27.347c.099.1.296.1.494.1.395 0 .691-.1.79-.397l.198-.496-2.371-5.85h1.58l1.482 3.966 1.482-3.966h1.58l-2.667 6.643c-.296 1.091-1.086 1.389-2.074 1.488-.198 0-.593 0-.79-.1l.296-1.388z"/>
    <path stroke="currentColor" d="M74.364 11.883v23.595"/>
  </g>
</svg>
