<svg xmlns="http://www.w3.org/2000/svg" xmlns:xlink="http://www.w3.org/1999/xlink" width="55" height="56" viewBox="0 0 55 56">
  <g fill="none" fill-rule="evenodd">
    <g transform="translate(19 -.3868)">
      <path fill="#f1162f" d="M.4518 5.8869c-.2.082-.267.333-.135.504l.904 1.168 9.234 11.911.18.232 2.059 2.655 5.397 6.962.549.658c.091.11.243.148.376.094.329-.132.908-.366.931-.375l.542-.232.703-.301.29-.124 2.1-.899.191-.081.075-.032.758-.324 1.8-.77 5.912-2.529c.319-.137.584-.315.79-.521.018-.018.029-.039.045-.057.179-.192.314-.404.39-.628.08-.238.097-.487.053-.735-.002-.008 0-.017-.002-.025-.004-.019-.014-.038-.019-.057-.021-.089-.05-.178-.088-.267a1.6351 1.6351 0 0 0-.044-.095c-.057-.112-.123-.223-.208-.329l-6.483-8.041c-.062-.077-.34-.424-.518-.647a.3282.3282 0 0 0-.383-.097l-1.77.743-.195.082-3.919 1.629c-.197.082-.265.327-.138.498.161.216.349.467.399.531l.455.573 3.054 3.849.055.071c.057.07.097.144.129.219.026.059.046.119.057.179.011.058.011.117.008.175a.791.791 0 0 1-.042.23c-.001.002-.003.004-.004.007-.004.011-.011.021-.015.032-.005.012-.012.023-.018.035a.8421.8421 0 0 1-.09.155c-.016.022-.034.043-.052.064-.019.022-.033.045-.054.066-.002.001-.003.003-.005.005-.025.025-.057.046-.086.069-.022.018-.043.037-.068.055-.081.057-.169.11-.27.153-.171.072-.355.116-.54.132-.186.016-.373.005-.551-.03-.178-.036-.347-.097-.497-.18-.15-.084-.28-.19-.38-.317l-.694-.881-.636-.805-3.29-4.173-3.459-4.388-2.625-3.329a.9378.9378 0 0 1-.103-.168 1.5625 1.5625 0 0 0-.018-.04.7973.7973 0 0 1-.052-.171c0-.002-.001-.003-.001-.005-.001-.004 0-.009-.001-.014a.748.748 0 0 1 .042-.374c.048-.126.128-.245.239-.349.111-.105.252-.196.421-.265.168-.07.348-.111.529-.127.182-.015.364-.005.538.029.174.034.338.092.484.172.145.08.271.182.368.303l.189.239 3.484 4.392.73.92c.061.077.325.419.497.642.091.118.248.159.385.102l5.902-2.454c.202-.084.267-.339.129-.509l-7.553-9.35c-.18-.223-.414-.41-.684-.557-.27-.147-.575-.254-.897-.317-.322-.062-.66-.082-.995-.053-.336.028-.669.104-.981.232l-12.81 5.255z" mask="url(#b)"/>
    </g>
    <path fill="#f1162f" d="M24.8622 28.9479c-.004.014-.005.028-.01.041-.001.004-.001.008-.003.012-.029.078-.073.152-.124.223-.014.02-.032.038-.048.057-.026.031-.048.063-.078.093-.024.023-.055.043-.082.065-.022.018-.044.037-.069.055-.085.061-.178.117-.286.163-.176.075-.363.119-.552.136-.188.017-.378.006-.557-.03-.18-.037-.349-.099-.499-.184-.149-.086-.278-.194-.375-.324l-1.832-2.432-.423-.561-2.046-2.716-1.789-2.374-4.365-5.795a.9343.9343 0 0 1-.101-.174c-.004-.01-.009-.02-.013-.03a.7834.7834 0 0 1-.048-.173c0-.005-.003-.01-.004-.014 0-.007.001-.013 0-.02a.7937.7937 0 0 1 .053-.378c.052-.128.137-.25.253-.357.116-.107.262-.201.435-.272.172-.071.355-.113.539-.129.183-.016.368-.005.542.03.175.034.34.094.484.175.145.082.27.186.364.31l1.742 2.298 1.803 2.378 2.062 2.719.687.907 2.336 3.081 1.859 2.452c.098.13.156.268.177.407.008.05.005.099.003.148a.8179.8179 0 0 1-.035.213m30.012-5.774c-.007.12-.021.238-.046.355-.004.024-.013.047-.018.07-.017.072-.034.144-.057.215-.007.021-.018.042-.026.064-.014.038-.03.075-.046.112-.033.08-.07.157-.112.234-.019.037-.038.073-.059.109-.053.088-.112.175-.176.26-.015.019-.027.04-.042.059a3.202 3.202 0 0 1-.241.271c-.006.006-.014.01-.02.016-.146.145-.314.28-.496.406-.042.028-.085.056-.129.083-.195.124-.401.241-.631.34l-.272.113-.432.185-6.71 2.88-1.793.769-.755.324-.075.033-.189.081-.675.289-1.705.732-.701.301-.638.274-1.679.721a.3273.3273 0 0 1-.389-.102l-1.213-1.572-5.889-7.64-.172-.223-.007-.008-9.173-11.899-.702-.909-2.103-2.728-.484-.637a.3283.3283 0 0 0-.385-.105l-13.232 5.419c-.145.059-.276.129-.4.203-.035.021-.068.043-.101.065-.093.062-.18.127-.26.196-.016.014-.037.026-.053.04-.006.007-.011.014-.017.02-.095.089-.179.183-.252.282-.015.021-.027.043-.042.065a1.765 1.765 0 0 0-.14.25c-.008.016-.02.032-.027.048-.006.014-.007.028-.012.042-.039.1-.069.202-.085.305-.002.008-.005.016-.006.024-.018.122-.02.247-.005.37.03.251.128.499.301.732l1.311 1.772 8.376 11.317.16.216 1.256 1.698 4.602 6.218c.184.248.426.455.707.618.281.163.601.282.94.352.338.07.695.091 1.051.059.355-.031.709-.116 1.04-.258l.546-.233 1.064-.455 1.619-.693 3.547-1.517a.3278.3278 0 0 1 .39.103l.947 1.249c.129.171.064.418-.133.502l-4.726 2.029-.298.128-2.373 1.018-.277.119c-.537.23-1.111.369-1.687.421a5.841 5.841 0 0 1-1.705-.096c-.549-.113-1.067-.306-1.523-.571-.455-.265-.847-.603-1.143-1.005l-3.687-5.014-.159-.216-1.25-1.701-7.059-9.599-1.585-2.156-1.773-2.51a2.6328 2.6328 0 0 1-.194-.304c-.019-.034-.033-.069-.05-.104-.034-.069-.068-.138-.095-.209-.016-.041-.027-.083-.041-.124-.02-.065-.04-.129-.055-.194-.01-.045-.025-.094-.032-.138-.01-.059-.014-.111-.014-.111l.063 14.867c.007.111.021.223.043.334.023.111.054.222.093.331.04.11.088.219.144.326.057.107.122.213.196.317l16.033 22.439c.285.399.662.733 1.099.996.438.263.937.454 1.465.566.527.112 1.084.146 1.638.095.554-.052 1.105-.188 1.622-.417l30.46-13.464c.315-.139.597-.306.843-.494.245-.188.454-.398.626-.622.171-.224.292-.469.398-.712.151-.346.158-.766.158-.766s-.32-8.844-.004-15.963c-.001.007-.003.015-.003.022"/>
  </g>
</svg>
