<?xml version="1.0" encoding="UTF-8"?>
<svg width="182px" height="38px" viewBox="0 0 182 38" version="1.1" xmlns="http://www.w3.org/2000/svg" xmlns:xlink="http://www.w3.org/1999/xlink">
    <!-- Generator: Sketch 57.1 (83088) - https://sketch.com -->
    <title>ic_iq_logo_bw copy</title>
    <desc>Created with Sketch.</desc>
    <g id="Quad_Code_web" stroke="none" stroke-width="1" fill="none" fill-rule="evenodd">
        <g id="Main" transform="translate(-736.000000, -2123.000000)">
            <g id="ic_iq_logo_bw-copy" transform="translate(736.000000, 2123.000000)">
                <path d="M97.6380145,16.3169643 C97.2239709,15.8928571 96.7336562,15.5580357 96.188862,15.3348214 C95.6440678,15.1116071 95.0774818,15 94.5,15 C93.9007264,15 93.3232446,15.1116071 92.7893462,15.3348214 C92.2554479,15.5580357 91.7760291,15.8928571 91.3619855,16.3169643 C90.9479419,16.7410714 90.6101695,17.265625 90.37046,17.890625 C90.1307506,18.5044643 90,19.2075893 90,20 C90,20.7924107 90.1198547,21.484375 90.37046,22.109375 C90.6101695,22.7232143 90.9479419,23.2477679 91.3619855,23.6830357 C91.7760291,24.1071429 92.2554479,24.4419643 92.7893462,24.6651786 C93.3232446,24.8883929 93.8898305,25 94.5,25 C95.0774818,25 95.6440678,24.8883929 96.188862,24.6651786 C96.7336562,24.4419643 97.2130751,24.1071429 97.6380145,23.6830357 C98.0520581,23.2589286 98.3898305,22.734375 98.62954,22.109375 C98.8692494,21.4955357 99,20.7924107 99,20 C99,19.2075893 98.8801453,18.515625 98.62954,17.890625 C98.3898305,17.2767857 98.062954,16.7522321 97.6380145,16.3169643 Z" id="Path"></path>
                <path d="M157.638015,16.3169643 C157.223971,15.8928571 156.733656,15.5580357 156.188862,15.3348214 C155.644068,15.1116071 155.077482,15 154.5,15 C153.900726,15 153.323245,15.1116071 152.789346,15.3348214 C152.255448,15.5580357 151.776029,15.8928571 151.361985,16.3169643 C150.947942,16.7410714 150.610169,17.265625 150.37046,17.890625 C150.130751,18.5044643 150,19.2075893 150,20 C150,20.7924107 150.119855,21.484375 150.37046,22.109375 C150.610169,22.7232143 150.947942,23.2477679 151.361985,23.6830357 C151.776029,24.1071429 152.255448,24.4419643 152.789346,24.6651786 C153.323245,24.8883929 153.889831,25 154.5,25 C155.077482,25 155.644068,24.8883929 156.188862,24.6651786 C156.733656,24.4419643 157.213075,24.1071429 157.638015,23.6830357 C158.052058,23.2589286 158.389831,22.734375 158.62954,22.109375 C158.869249,21.4955357 159,20.7924107 159,20 C159,19.2075893 158.880145,18.515625 158.62954,17.890625 C158.389831,17.2767857 158.052058,16.7522321 157.638015,16.3169643 Z" id="Path"></path>
                <path d="M69.6252983,16.3140312 C69.2171838,15.8908686 68.7338902,15.5567929 68.1968974,15.3340757 C67.6599045,15.1113586 67.0906921,15 66.5,15 C65.9093079,15 65.3400955,15.1224944 64.8031026,15.3563474 C64.2661098,15.5902004 63.7935561,15.9242762 63.3747017,16.3585746 C62.9665871,16.7817372 62.6336516,17.3051225 62.375895,17.9287305 C62.1288783,18.5412027 62,19.2316258 62,20 C62,20.7572383 62.1288783,21.4476615 62.375895,22.0712695 C62.6229117,22.6948775 62.9558473,23.2071269 63.3747017,23.6414254 C63.7935561,24.0757238 64.2661098,24.3986637 64.8031026,24.6436526 C65.3400955,24.8775056 65.9093079,25 66.5,25 C67.0906921,25 67.6599045,24.8886414 68.1968974,24.6659243 C68.7338902,24.4432071 69.2064439,24.1091314 69.6252983,23.6859688 C70.0334129,23.2628062 70.3663484,22.7394209 70.624105,22.1158129 C70.8818616,21.4922049 71,20.8017817 71,20.0111359 C71,19.22049 70.8711217,18.5300668 70.624105,17.9064588 C70.3770883,17.2828508 70.0334129,16.7483296 69.6252983,16.3140312 Z" id="Path"></path>
                <path d="M116.625298,16.3616071 C116.217184,15.9375 115.73389,15.6026786 115.196897,15.3571429 C114.659905,15.1227679 114.090692,15 113.5,15 C112.909308,15 112.340095,15.1116071 111.803103,15.3348214 C111.26611,15.5580357 110.793556,15.8928571 110.374702,16.3169643 C109.966587,16.7410714 109.633652,17.265625 109.375895,17.890625 C109.118138,18.515625 109,19.2075893 109,20 C109,20.7924107 109.128878,21.484375 109.375895,22.109375 C109.622912,22.734375 109.955847,23.2477679 110.374702,23.6830357 C110.782816,24.1071429 111.26611,24.4419643 111.803103,24.6651786 C112.340095,24.8883929 112.909308,25 113.5,25 C114.090692,25 114.659905,24.8772321 115.196897,24.6428571 C115.73389,24.4084821 116.206444,24.0736607 116.625298,23.6383929 C117.044153,23.203125 117.366348,22.6897321 117.624105,22.0647321 C117.881862,21.4397321 118,20.7589286 118,19.9888393 C118,19.2299107 117.871122,18.5379464 117.624105,17.9129464 C117.377088,17.3102679 117.044153,16.7857143 116.625298,16.3616071 Z" id="Path"></path>
                <path d="M100.454874,13.5329341 C99.6534296,12.7353293 98.7111913,12.1209581 97.6173285,11.6682635 C96.5234657,11.2155689 95.3104693,11 94,11 C92.6787004,11 91.4765343,11.2263473 90.3826715,11.6682635 C89.2888087,12.1209581 88.3357401,12.7353293 87.5451264,13.5329341 C86.7436823,14.3305389 86.1263538,15.2790419 85.6714801,16.3784431 C85.2166065,17.4778443 85,18.6850299 85,20 C85,21.3149701 85.2274368,22.5221557 85.6714801,23.6215569 C86.1155235,24.7209581 86.7436823,25.6694611 87.5451264,26.4670659 C88.3465704,27.2646707 89.2888087,27.8790419 90.3826715,28.3317365 C91.4765343,28.7844311 92.6895307,29 94,29 C95.3212996,29 96.5234657,28.7736527 97.6173285,28.3317365 C98.7111913,27.8790419 99.6642599,27.2646707 100.454874,26.4670659 C101.256318,25.6694611 101.873646,24.7209581 102.32852,23.6215569 C102.783394,22.5221557 103,21.3149701 103,20 C103,18.6850299 102.772563,17.4778443 102.32852,16.3784431 C101.873646,15.2790419 101.256318,14.3305389 100.454874,13.5329341 Z M98.1046931,22.0371257 C97.866426,22.6299401 97.5306859,23.1365269 97.1191336,23.5568862 C96.7075812,23.9664671 96.2202166,24.2898204 95.6787004,24.5053892 C95.1371841,24.7209581 94.5740072,24.8287425 94,24.8287425 C93.4043321,24.8287425 92.8303249,24.7209581 92.299639,24.5053892 C91.7689531,24.2898204 91.2924188,23.9664671 90.8808664,23.5568862 C90.4693141,23.1473054 90.133574,22.6407186 89.8953069,22.0371257 C89.6570397,21.4443114 89.5270758,20.7652695 89.5270758,20 C89.5270758,19.2347305 89.6462094,18.5664671 89.8953069,17.9628743 C90.133574,17.3700599 90.4693141,16.8634731 90.8808664,16.4431138 C91.2924188,16.0335329 91.7689531,15.7101796 92.299639,15.4946108 C92.8303249,15.2790419 93.3935018,15.1712575 94,15.1712575 C94.5740072,15.1712575 95.1371841,15.2790419 95.6787004,15.4946108 C96.2202166,15.7101796 96.6967509,16.0335329 97.1191336,16.4431138 C97.5306859,16.8526946 97.866426,17.3592814 98.1046931,17.9628743 C98.3429603,18.5556886 98.4729242,19.2347305 98.4729242,20 C98.4729242,20.7652695 98.3429603,21.4335329 98.1046931,22.0371257 Z" id="Shape" fill="#FFFFFF" fill-rule="nonzero"></path>
                <path d="M181.612818,15.3915998 C181.344372,14.4799259 180.95781,13.6905497 180.442394,13.0457072 C179.926978,12.3897468 179.271969,11.8894379 178.466631,11.5336628 C177.661293,11.1778876 176.737839,11 175.685531,11 C174.536582,11 173.516487,11.2557134 172.625247,11.7671402 C171.734006,12.278567 171.025309,12.9678814 170.499155,13.8462014 L170.499155,11.5670167 L166,11.5670167 L166,29 L170.499155,29 L170.499155,20.4613959 C170.499155,19.7498456 170.585057,19.0827671 170.756863,18.4490426 C170.928668,17.8153181 171.175639,17.2705374 171.508512,16.8147004 C171.841385,16.3477455 172.238685,15.9808524 172.71115,15.714021 C173.183614,15.4360716 173.720506,15.302656 174.343301,15.302656 C175.374134,15.302656 176.157996,15.6028413 176.694888,16.2143298 C177.23178,16.8147004 177.500226,17.7486103 177.500226,19.0049413 L177.500226,29 L181.999381,29 L181.999381,18.4379246 C182.010118,17.3150093 181.881264,16.3032736 181.612818,15.3915998 Z" id="Path" fill="#FFFFFF" fill-rule="nonzero"></path>
                <rect id="Rectangle" fill="#FFFFFF" fill-rule="nonzero" x="51" y="12" width="5" height="17"></rect>
                <path d="M52.9833641,3 C52.5841035,3 52.1959335,3.07777778 51.8299445,3.23333333 C51.4639556,3.38888889 51.142329,3.6 50.8761553,3.87777778 C50.5988909,4.15555556 50.3881701,4.46666667 50.232902,4.82222222 C50.077634,5.17777778 50,5.56666667 50,6 C50,6.42222222 50.077634,6.82222222 50.232902,7.17777778 C50.3881701,7.53333333 50.5988909,7.84444444 50.8761553,8.12222222 C51.1534196,8.4 51.4639556,8.61111111 51.8299445,8.76666667 C52.1959335,8.92222222 52.5841035,9 52.9833641,9 C53.8151571,9 54.5249538,8.71111111 55.1127542,8.13333333 C55.7005545,7.55555556 56,6.84444444 56,6.02222222 C56,5.18888889 55.7005545,4.48888889 55.1127542,3.91111111 C54.5138632,3.28888889 53.8040665,3 52.9833641,3 Z" id="Path" fill="#FFFFFF" fill-rule="nonzero"></path>
                <rect id="Rectangle" fill="#FFFFFF" fill-rule="nonzero" x="138" y="12" width="5" height="17"></rect>
                <path d="M161.454874,13.5329341 C160.65343,12.7353293 159.711191,12.1209581 158.617329,11.6682635 C157.523466,11.2155689 156.310469,11 155,11 C153.6787,11 152.476534,11.2263473 151.382671,11.6682635 C150.288809,12.1209581 149.33574,12.7353293 148.545126,13.5329341 C147.743682,14.3305389 147.126354,15.2790419 146.67148,16.3784431 C146.216606,17.4778443 146,18.6850299 146,20 C146,21.3149701 146.227437,22.5221557 146.67148,23.6215569 C147.126354,24.7209581 147.743682,25.6694611 148.545126,26.4670659 C149.34657,27.2646707 150.288809,27.8790419 151.382671,28.3317365 C152.476534,28.7844311 153.689531,29 155,29 C156.3213,29 157.523466,28.7736527 158.617329,28.3317365 C159.711191,27.8790419 160.66426,27.2646707 161.454874,26.4670659 C162.256318,25.6694611 162.873646,24.7209581 163.32852,23.6215569 C163.783394,22.5221557 164,21.3149701 164,20 C164,18.6850299 163.772563,17.4778443 163.32852,16.3784431 C162.873646,15.2790419 162.245487,14.3305389 161.454874,13.5329341 Z M159.093863,22.0371257 C158.855596,22.6299401 158.519856,23.1365269 158.108303,23.5568862 C157.696751,23.9664671 157.209386,24.2898204 156.66787,24.5053892 C156.126354,24.7209581 155.563177,24.8287425 154.98917,24.8287425 C154.393502,24.8287425 153.819495,24.7209581 153.288809,24.5053892 C152.758123,24.2898204 152.281588,23.9664671 151.870036,23.5568862 C151.458484,23.1473054 151.122744,22.6407186 150.884477,22.0371257 C150.646209,21.4443114 150.516245,20.7652695 150.516245,20 C150.516245,19.2347305 150.635379,18.5664671 150.884477,17.9628743 C151.122744,17.3700599 151.458484,16.8634731 151.870036,16.4431138 C152.281588,16.0335329 152.758123,15.7101796 153.288809,15.4946108 C153.819495,15.2790419 154.382671,15.1712575 154.98917,15.1712575 C155.563177,15.1712575 156.126354,15.2790419 156.66787,15.4946108 C157.209386,15.7101796 157.685921,16.0335329 158.108303,16.4431138 C158.519856,16.8526946 158.855596,17.3592814 159.093863,17.9628743 C159.33213,18.5556886 159.462094,19.2347305 159.462094,20 C159.462094,20.7652695 159.33213,21.4335329 159.093863,22.0371257 Z" id="Shape" fill="#FFFFFF" fill-rule="nonzero"></path>
                <path d="M120.536039,13.54329 C119.783767,12.7424242 118.911569,12.1255411 117.919443,11.6709957 C116.927317,11.2164502 115.891581,11 114.801333,11 C113.503937,11 112.402786,11.2489177 111.519685,11.7575758 C110.636584,12.2662338 109.982435,12.8722944 109.568141,13.5974026 L109.568141,11.5519481 L105,11.5519481 L105,36 L109.568141,36 L109.568141,28.9004329 L109.568141,26.4761905 C109.982435,27.1904762 110.636584,27.8073593 111.519685,28.3160173 C112.402786,28.8246753 113.493035,29.0735931 114.801333,29.0735931 C115.891581,29.0735931 116.938219,28.8463203 117.919443,28.4025974 C118.911569,27.9480519 119.783767,27.3311688 120.536039,26.530303 C121.28831,25.7294372 121.887947,24.7770563 122.334949,23.6731602 C122.78195,22.5692641 123,21.3571429 123,20.0367965 C123,18.7164502 122.78195,17.504329 122.334949,16.4004329 C121.887947,15.2965368 121.28831,14.3441558 120.536039,13.54329 Z M118.03937,22.0497835 C117.788613,22.6450216 117.450636,23.1536797 117.025439,23.5757576 C116.600242,23.9978355 116.120533,24.3116883 115.575409,24.5497835 C115.030285,24.7770563 114.452453,24.8961039 113.852816,24.8961039 C113.25318,24.8961039 112.675348,24.7878788 112.130224,24.5714286 C111.5851,24.3549784 111.105391,24.030303 110.680194,23.6190476 C110.265899,23.2077922 109.927922,22.6991342 109.666263,22.0930736 C109.404603,21.487013 109.284676,20.8160173 109.284676,20.047619 C109.284676,19.2792208 109.415506,18.6082251 109.666263,18.0021645 C109.91702,17.3961039 110.254997,16.8982684 110.680194,16.4761905 C111.094488,16.0649351 111.5851,15.7402597 112.130224,15.5238095 C112.675348,15.3073593 113.25318,15.1991342 113.852816,15.1991342 C114.452453,15.1991342 115.030285,15.3181818 115.575409,15.5454545 C116.120533,15.7727273 116.600242,16.0974026 117.025439,16.5194805 C117.439733,16.9307359 117.77771,17.4393939 118.03937,18.0454545 C118.290127,18.6406926 118.420957,19.3116883 118.420957,20.0584416 C118.420957,20.7727273 118.30103,21.4437229 118.03937,22.0497835 Z" id="Shape" fill="#FFFFFF" fill-rule="nonzero"></path>
                <path d="M71.4318595,13.5974026 C71.0175651,12.8831169 70.3634161,12.2662338 69.480315,11.7575758 C68.5972138,11.2489177 67.5069655,11 66.1986675,11 C65.1084191,11 64.0617807,11.2272727 63.0805572,11.6709957 C62.0884313,12.1255411 61.2162326,12.7424242 60.4639612,13.54329 C59.7116899,14.3441558 59.1120533,15.2965368 58.6650515,16.4004329 C58.2180497,17.504329 58,18.7164502 58,20.0367965 C58,21.3571429 58.2180497,22.5692641 58.6650515,23.6731602 C59.1120533,24.7770563 59.7007874,25.7294372 60.4639612,26.530303 C61.2162326,27.3311688 62.0884313,27.9480519 63.0805572,28.4025974 C64.0726832,28.8571429 65.1084191,29.0735931 66.1986675,29.0735931 C67.496063,29.0735931 68.5972138,28.8246753 69.480315,28.3160173 C70.3634161,27.8073593 71.0175651,27.2012987 71.4318595,26.4761905 L71.4318595,28.9004329 L71.4318595,36 L76,36 L76,11.5519481 L71.4318595,11.5519481 L71.4318595,13.5974026 Z M71.3337371,22.0822511 C71.08298,22.6774892 70.745003,23.1861472 70.3198062,23.6082251 C69.9055118,24.0194805 69.4149001,24.3441558 68.8697759,24.5606061 C68.3246517,24.7770563 67.7468201,24.8852814 67.1471835,24.8852814 C66.5475469,24.8852814 65.9697153,24.7662338 65.4245912,24.538961 C64.879467,24.3116883 64.3997577,23.987013 63.9745609,23.5649351 C63.549364,23.1428571 63.2222895,22.6450216 62.9606299,22.038961 C62.6989703,21.4329004 62.579043,20.7727273 62.579043,20.025974 C62.579043,19.2900433 62.7098728,18.6190476 62.9606299,18.012987 C63.211387,17.4177489 63.549364,16.9090909 63.9745609,16.487013 C64.3888552,16.0757576 64.879467,15.7510823 65.4245912,15.512987 C65.9697153,15.2857143 66.5475469,15.1666667 67.1471835,15.1666667 C67.7468201,15.1666667 68.3246517,15.2748918 68.8697759,15.491342 C69.4149001,15.7077922 69.8946093,16.0324675 70.3198062,16.4437229 C70.7341005,16.8549784 71.0720775,17.3636364 71.3337371,17.969697 C71.5953967,18.5757576 71.715324,19.2467532 71.715324,20.0151515 C71.715324,20.7835498 71.5844942,21.4761905 71.3337371,22.0822511 Z" id="Shape" fill="#FFFFFF" fill-rule="nonzero"></path>
                <path d="M133.971954,24.4754098 C133.732691,24.5530376 133.402279,24.5973963 132.992112,24.5973963 C132.365469,24.5973963 131.875548,24.4088717 131.533742,24.0318226 C131.294479,23.7989392 131.123576,23.5106075 131.043821,23.1668274 C130.964067,22.8230473 130.918493,22.4459981 130.918493,22.0467695 L130.918493,15.2931533 L135.293602,15.2931533 L135.293602,11.3230473 L130.918493,11.3230473 L130.918493,6 L126.14461,6 L126.14461,11.3230473 L123,11.3230473 L123,15.2931533 L126.133216,15.2931533 L126.133216,22.9228544 C126.133216,24.8857281 126.702892,26.4050145 127.842244,27.4696239 C128.332165,27.9464802 128.924628,28.3124397 129.642419,28.5896818 C130.36021,28.8669238 131.16915,29 132.069238,29 C132.843996,29 133.561788,28.9334619 134.199825,28.8003857 C134.837862,28.6673095 135.441718,28.478785 136,28.2126326 L134.655565,24.1316297 C134.450482,24.2757956 134.222612,24.3866924 133.971954,24.4754098 Z" id="Path" fill="#FFFFFF" fill-rule="nonzero"></path>
                <path d="M140.983364,3 C140.584104,3 140.195933,3.07777778 139.829945,3.23333333 C139.463956,3.38888889 139.142329,3.6 138.876155,3.87777778 C138.598891,4.15555556 138.38817,4.46666667 138.232902,4.82222222 C138.077634,5.17777778 138,5.56666667 138,6 C138,6.42222222 138.077634,6.82222222 138.232902,7.17777778 C138.38817,7.53333333 138.598891,7.84444444 138.876155,8.12222222 C139.15342,8.4 139.463956,8.61111111 139.829945,8.76666667 C140.195933,8.92222222 140.584104,9 140.983364,9 C141.815157,9 142.524954,8.71111111 143.112754,8.13333333 C143.700555,7.55555556 144,6.84444444 144,6.02222222 C144,5.18888889 143.700555,4.48888889 143.112754,3.91111111 C142.524954,3.28888889 141.815157,3 140.983364,3 Z" id="Path" fill="#FFFFFF" fill-rule="nonzero"></path>
                <path d="M19,0 C8.50632184,0 0,8.50632184 0,19 C0,29.4936782 8.50632184,38 19,38 C29.4936782,38 38,29.4936782 38,19 C38,8.50632184 29.4936782,0 19,0 Z M12.9505747,26.9821839 C12.9505747,28.2925287 11.8913793,29.3626437 10.5701149,29.3626437 C9.24885057,29.3626437 8.18965517,28.2925287 8.18965517,26.9821839 L8.18965517,18.3557471 C8.18965517,17.0454023 9.24885057,15.9752874 10.5701149,15.9752874 C11.8913793,15.9752874 12.9505747,17.0454023 12.9505747,18.3557471 L12.9505747,26.9821839 Z M20.7252874,27.004023 C20.7252874,28.3034483 19.666092,29.3626437 18.3448276,29.3626437 C17.0235632,29.3626437 15.9643678,28.3034483 15.9643678,27.004023 L15.9643678,14.0206897 C15.9643678,12.7212644 17.0235632,11.662069 18.3448276,11.662069 C19.666092,11.662069 20.7252874,12.7212644 20.7252874,14.0206897 L20.7252874,27.004023 Z M28.5,26.9821839 C28.5,28.2925287 27.4408046,29.3626437 26.1195402,29.3626437 C24.7982759,29.3626437 23.7390805,28.2925287 23.7390805,26.9821839 L23.7390805,9.7183908 C23.7390805,8.40804598 24.7982759,7.33793103 26.1195402,7.33793103 C27.4408046,7.33793103 28.5,8.40804598 28.5,9.7183908 L28.5,26.9821839 Z" id="Shape" fill="#FFFFFF" fill-rule="nonzero"></path>
            </g>
        </g>
    </g>
</svg>