<svg xmlns="http://www.w3.org/2000/svg" xmlns:xlink="http://www.w3.org/1999/xlink" width="133" height="43" viewBox="0 0 133 43">
  <g fill="none" fill-rule="evenodd">
    <g transform="translate(14.277 .463)">
      <path fill="currentColor" d="M.34 4.441a.248.248 0 0 0-.102.38l.68.881 6.938 8.986.135.175 1.547 2.003 4.056 5.252.412.496a.245.245 0 0 0 .283.071l.7-.283.407-.175.528-.227.218-.093 1.578-.679.143-.06.057-.025.57-.244 1.352-.581 4.442-1.908c.24-.103.439-.238.594-.393.013-.014.021-.03.033-.043.135-.145.236-.305.293-.474.06-.18.073-.367.04-.554l-.001-.02c-.003-.013-.01-.028-.014-.042a1.236 1.236 0 0 0-.1-.273 1.422 1.422 0 0 0-.156-.248l-4.871-6.066-.39-.489a.246.246 0 0 0-.287-.073l-1.33.56-.147.063-2.945 1.229a.248.248 0 0 0-.103.375c.12.163.262.353.3.4l.341.433 2.295 2.904.041.053a.678.678 0 0 1 .097.165.556.556 0 0 1 .049.267.599.599 0 0 1-.031.174c-.001.002-.003.003-.003.005-.003.009-.009.016-.012.024-.003.01-.009.018-.013.027a.636.636 0 0 1-.068.117l-.039.048c-.014.017-.025.034-.04.05-.002 0-.003.002-.004.004-.019.018-.043.034-.065.052-.016.013-.032.028-.05.041-.062.043-.128.083-.204.116a1.345 1.345 0 0 1-.406.1c-.14.011-.28.003-.414-.023a1.307 1.307 0 0 1-.373-.136.953.953 0 0 1-.286-.24l-.521-.664-.478-.607-2.472-3.148-2.6-3.31-1.972-2.512a.708.708 0 0 1-.077-.127l-.014-.03a.603.603 0 0 1-.039-.129v-.004l-.001-.01a.566.566 0 0 1 .031-.282.707.707 0 0 1 .18-.264c.083-.079.19-.147.316-.2.127-.052.262-.083.398-.095.137-.012.273-.004.404.022.13.025.254.069.364.13.109.06.203.137.276.228l.142.18 2.618 3.313.549.694.373.485c.069.089.187.12.29.077l4.434-1.852a.248.248 0 0 0 .097-.383L12.638 1a1.7 1.7 0 0 0-.514-.42 2.355 2.355 0 0 0-.674-.24 2.718 2.718 0 0 0-.748-.04 2.481 2.481 0 0 0-.737.176L.34 4.44z" mask="url(#b)"/>
    </g>
    <path fill="currentColor" d="M18.682 22.592c-.003.01-.004.021-.008.031 0 .003 0 .006-.002.01a.727.727 0 0 1-.093.167c-.01.016-.024.03-.036.043-.02.024-.036.048-.059.07-.018.018-.041.033-.061.05l-.052.041a1.113 1.113 0 0 1-.215.123c-.132.057-.273.09-.415.103a1.461 1.461 0 0 1-.419-.023 1.283 1.283 0 0 1-.374-.139.924.924 0 0 1-.282-.244l-1.377-1.835-.318-.423-1.537-2.049-1.344-1.79-3.28-4.372a.705.705 0 0 1-.076-.132l-.01-.022a.593.593 0 0 1-.036-.13c0-.005-.002-.008-.003-.011v-.016a.6.6 0 0 1 .04-.285.756.756 0 0 1 .19-.269c.087-.08.197-.152.327-.205a1.437 1.437 0 0 1 .812-.075c.132.026.256.071.364.132a.89.89 0 0 1 .273.234l1.31 1.734 1.354 1.793 1.55 2.052.516.684 1.755 2.324 1.397 1.85a.678.678 0 0 1 .133.307c.006.038.004.075.002.112a.62.62 0 0 1-.026.16m22.551-4.356c-.005.091-.016.18-.034.268-.003.018-.01.036-.014.053a2.062 2.062 0 0 1-.043.162c-.005.016-.013.032-.02.049a1.802 1.802 0 0 1-.119.261 1.73 1.73 0 0 1-.176.278l-.031.044c-.056.07-.116.14-.181.205l-.015.012a2.75 2.75 0 0 1-.47.369 3.333 3.333 0 0 1-.474.256l-.204.086-.325.14-5.042 2.172-1.347.58-.568.244-.056.025-.142.061-.507.218-1.281.553-.527.227-.48.206-1.261.544a.245.245 0 0 1-.292-.077l-.912-1.186-4.425-5.763-.13-.168-.004-.006-6.893-8.977-.528-.686-1.58-2.058-.364-.48a.246.246 0 0 0-.289-.08L2.556 9.858a2.202 2.202 0 0 0-.571.35l-.04.03-.013.015a1.56 1.56 0 0 0-.19.213l-.03.049c-.041.06-.077.124-.106.188-.006.012-.015.025-.02.037-.005.01-.006.02-.01.031-.029.076-.051.153-.063.23l-.005.018a1.052 1.052 0 0 0-.004.28c.023.189.097.376.227.552l.985 1.337 6.294 8.537.12.163.944 1.28 3.458 4.692c.138.187.32.343.53.466.212.123.452.213.707.265.254.053.522.069.79.045.267-.023.533-.088.781-.195l.41-.175.8-.344 1.217-.523 2.665-1.144a.246.246 0 0 1 .293.078l.712.942a.25.25 0 0 1-.1.379l-3.552 1.53-.223.097-1.784.768-.208.09a4.17 4.17 0 0 1-1.267.317c-.434.04-.869.014-1.281-.072a3.802 3.802 0 0 1-1.145-.43 2.823 2.823 0 0 1-.859-.76l-2.77-3.782-.12-.163-.939-1.283-5.304-7.241-1.191-1.627-1.332-1.893a1.987 1.987 0 0 1-.146-.23c-.014-.025-.025-.051-.038-.078-.025-.052-.05-.104-.071-.158-.012-.03-.02-.062-.031-.093-.015-.05-.03-.097-.041-.146-.008-.034-.02-.071-.024-.105-.008-.044-.01-.083-.01-.083l.046 11.215a1.872 1.872 0 0 0 .358.987L12.453 41.44c.214.3.497.553.825.751.33.198.704.342 1.101.427.396.084.815.11 1.231.072.416-.04.83-.142 1.219-.315l22.888-10.157c.237-.105.448-.23.633-.373.184-.141.341-.3.47-.469.13-.169.22-.354.3-.537.113-.261.118-.578.118-.578s-.24-6.672-.003-12.042l-.002.016M54.053 25.424c.723 0 1.411-.057 2.065-.172V20.76h-2.41c-.458 0-.687.23-.687.691v3.368a.59.59 0 0 0 .602.605h.43zm2.065 1.987c-1.113.23-2.088.345-2.925.345h-.602c-.781 0-1.405-.236-1.876-.708-.47-.472-.705-1.1-.705-1.883v-3.973c0-.863.243-1.54.73-2.03.488-.489 1.162-.734 2.023-.734h6.366V30.52h-3.011v-3.11zM65.065 25.252c.608 0 1.296-.116 2.065-.346v-6.478h3.01v9.155h-2.666l-.172-.863c-.54.356-1.093.619-1.66.786-.569.166-1.048.25-1.437.25h-.774c-.781 0-1.406-.236-1.876-.708s-.706-1.1-.706-1.883v-6.737h3.011v6.219a.586.586 0 0 0 .602.605h.603zM75.474 25.338c.608 0 1.297-.115 2.065-.346v-1.036h-2.495a.587.587 0 0 0-.602.605v.173a.586.586 0 0 0 .602.604h.43zM72.291 18.6c2.1-.23 3.992-.345 5.678-.345.78 0 1.405.236 1.876.708.47.472.705 1.1.705 1.883v6.737h-2.667l-.172-.864c-.54.357-1.092.62-1.66.786-.568.167-1.047.25-1.437.25h-.602c-.78 0-1.406-.236-1.875-.708-.47-.472-.706-1.1-.706-1.883v-.777c0-.783.235-1.41.706-1.883.47-.472 1.094-.708 1.875-.708h3.527v-.691a.59.59 0 0 0-.602-.605c-.746 0-1.569.035-2.47.104-.9.068-1.625.121-2.176.155v-2.159zM86.142 25.252c.608 0 1.296-.116 2.065-.346v-4.145h-2.581c-.46 0-.689.23-.689.69v3.196a.586.586 0 0 0 .603.605h.602zm2.409 2.331l-.172-.863c-.54.356-1.093.619-1.66.786-.569.166-1.048.25-1.438.25h-.773c-.781 0-1.406-.236-1.876-.708s-.706-1.1-.706-1.883v-3.973c0-.863.244-1.54.732-2.029.487-.49 1.161-.735 2.022-.735h3.527v-2.937h3.01v12.092h-2.666zM101.025 27.41c-2.145.231-4.038.346-5.678.346-.78 0-1.405-.235-1.875-.708-.47-.472-.706-1.1-.706-1.883v-3.973c0-.864.244-1.54.731-2.03.488-.489 1.161-.734 2.022-.734h5.506v2.333h-4.56c-.459 0-.688.23-.688.69v3.369a.586.586 0 0 0 .602.604c1.033 0 2.581-.087 4.646-.26v2.247zM108.682 21.278c0-.46-.23-.69-.689-.69h-2.065c-.459 0-.688.23-.688.69v3.456c0 .46.23.69.688.69h2.065c.459 0 .689-.23.689-.69v-3.456zm3.01 3.714c0 .864-.243 1.54-.73 2.03-.488.49-1.162.734-2.023.734h-3.957c-.86 0-1.534-.244-2.022-.734-.487-.49-.73-1.166-.73-2.03V21.02c0-.864.243-1.54.73-2.03.488-.49 1.162-.734 2.022-.734h3.957c.86 0 1.535.244 2.022.734.488.49.731 1.166.731 2.03v3.972zM117.284 25.252c.609 0 1.296-.116 2.065-.346v-4.145h-2.581c-.46 0-.688.23-.688.69v3.196a.587.587 0 0 0 .602.605h.602zm2.41 2.331l-.173-.863c-.54.356-1.092.619-1.66.786-.569.166-1.047.25-1.437.25h-.774c-.78 0-1.405-.236-1.876-.708-.47-.472-.705-1.1-.705-1.883v-3.973c0-.863.243-1.54.732-2.029.487-.49 1.16-.735 2.021-.735h3.527v-2.937h3.011v12.092h-2.667zM127.608 20.415c-.459 0-.689.23-.689.69v.951h2.926v-.95c0-.46-.23-.691-.689-.691h-1.548zm4.903 6.996c-2.213.23-4.22.345-6.021.345-.78 0-1.406-.236-1.876-.708s-.706-1.1-.706-1.883V21.02c0-.864.244-1.54.732-2.03.487-.49 1.161-.734 2.022-.734h3.441c.86 0 1.534.244 2.021.734.487.49.732 1.166.732 2.03v3.195h-5.937v.69a.588.588 0 0 0 .603.606c1.135 0 2.799-.086 4.99-.26v2.16z"/>
  </g>
</svg>
