<?xml version="1.0" encoding="UTF-8"?>
<svg width="185px" height="27px" viewBox="0 0 185 27" version="1.1" xmlns="http://www.w3.org/2000/svg" xmlns:xlink="http://www.w3.org/1999/xlink">
    <!-- Generator: Sketch 57.1 (83088) - https://sketch.com -->
    <title>Group 2 Copy</title>
    <desc>Created with Sketch.</desc>
    <g id="Quad_Code_web" stroke="none" stroke-width="1" fill="none" fill-rule="evenodd">
        <g id="Main" transform="translate(-449.000000, -2129.000000)">
            <g id="Group-2-Copy" transform="translate(449.000000, 2129.000000)">
                <path d="M102.098301,5.62597675 C103.039638,6.48010344 103.510759,7.73791236 103.510759,9.39844918 L103.510759,9.65707302 C103.510759,10.9921828 103.076784,12.1373806 102.207022,13.0917121 C101.408834,13.9687427 100.375991,14.5690173 99.1084938,14.8925356 C100.558097,15.1129862 101.653454,15.6082843 102.397282,16.3765211 C103.248018,17.2735927 103.673839,18.4770048 103.673839,19.9838942 L103.673839,22.7609989 C103.673839,23.4672042 103.710079,23.9338723 103.782559,24.1600489 C103.837826,24.4243987 103.9094,24.6305343 104,24.7784557 L104,24.9225597 L97.2865232,25.2231742 C97.2330691,25.0361252 97.196829,24.8939298 97.1778029,24.799451 C97.1415629,24.5341468 97.1234428,24.2106284 97.1234428,23.8279415 L97.1234428,22.0528849 C97.1234428,21.3476339 97.0600227,20.7578571 96.9340883,20.285463 C96.806342,19.8149775 96.5979615,19.4427882 96.3080408,19.1688951 C95.7281993,18.6421041 94.7325028,18.4102016 93.3182333,18.4731874 L86.4960362,18.7795279 L86.4960362,25.7079746 L80,26 L80,4.69836653 L95.0043035,4.02460849 C98.3556059,3.87477844 100.720272,4.40920408 102.098301,5.62597675 Z M94.1345413,9.1598663 L86.4960362,9.50342564 L86.4960362,13.5402479 L94.1345413,13.1976429 C95.0939977,13.154698 95.7925255,12.9227954 96.2265006,12.5019352 C96.5707814,12.1822342 96.7438279,11.6955251 96.7438279,11.047534 L96.7438279,10.9893198 C96.7438279,10.3785476 96.5707814,9.93001182 96.2265006,9.63894072 C95.7734994,9.27724908 95.0758777,9.11787572 94.1345413,9.1598663 Z" id="Combined-Shape" fill="#FFFFFF"></path>
                <path d="M124.246574,3 L134,23.7828979 L126.874251,24.0926366 L125.252562,20.4859857 L114.270526,20.9629454 L112.677711,24.7092637 L106,25 L115.44511,3.38194774 L124.246574,3 Z M119.720559,8.12779097 L116.311377,16.2 L123.213573,15.8997625 L119.720559,8.12779097 Z" id="Combined-Shape" fill="#FFFFFF"></path>
                <path d="M158.485842,4.83753581 C160.16165,6.4723122 161,8.69464646 161,11.5026153 L161,12.3671235 C161,14.2134592 160.696767,15.8347727 160.091193,17.2272176 C159.3233,18.9937377 158.047938,20.3977221 156.265106,21.4420558 C154.195095,22.6517903 151.440134,23.3364731 147.996656,23.494181 L137,24 L137,2.535386 L147.970792,2.03149022 C152.785953,1.81127622 156.29097,2.74598366 158.485842,4.83753581 Z M147.408027,7.19257544 L143.394649,7.37720901 L143.394649,18.5417701 L147.408027,18.3580982 C150.190635,18.230201 152.134894,17.4964749 153.240803,16.1578815 C153.972129,15.2577928 154.338685,14.0297873 154.338685,12.4719416 L154.338685,12.2988476 C154.338685,10.7602345 153.972129,9.59377347 153.240803,8.80042611 C152.117057,7.60223118 150.17369,7.06563987 147.408027,7.19257544 Z" id="Combined-Shape" fill="#FFFFFF"></path>
                <polygon id="Clip-2" points="0 2 23 2 23 23 0 23"></polygon>
                <path d="M15.7716165,7.92269643 C15.7716165,7.41259956 15.5300752,7.03987341 15.0469925,6.80451798 C14.3345865,6.45292579 13.1466165,6.31267317 11.4859023,6.38472075 C9.82706767,6.45772896 8.63909774,6.7017301 7.92575188,7.11480289 C7.44454887,7.3914656 7.20300752,7.78436507 7.20300752,8.29638321 L7.20300752,8.37899777 C7.20300752,8.87084259 7.45300752,9.24356873 7.95300752,9.49525495 C8.62969925,9.83051636 9.80827068,9.96116263 11.4859023,9.88815442 C13.1823308,9.81418557 14.3703008,9.58171204 15.0469925,9.18593067 C15.3327068,9.02742599 15.5253759,8.85066926 15.6240602,8.65469984 C15.7208647,8.45873043 15.7716165,8.24258768 15.7716165,8.00531099 L15.7716165,7.92269643 Z M16.2791353,16.0016318 C16.2791353,15.399314 16.012218,14.9545403 15.4774436,14.6682712 C14.7443609,14.2801749 13.4144737,14.1283947 11.4859023,14.2129305 C9.54135338,14.2974663 8.21992481,14.5645227 7.52443609,15.0150602 C6.98778195,15.3474397 6.72086466,15.8162293 6.72086466,16.4185471 L6.72086466,16.4723426 C6.72086466,17.0199042 6.99718045,17.4550716 7.55075188,17.7768841 C8.24718045,18.2216579 9.55921053,18.4012965 11.4859023,18.3167607 C13.4144737,18.2331855 14.7443609,17.9382707 15.4774436,17.4310558 C16.012218,17.0621722 16.2791353,16.6029889 16.2791353,16.0563879 L16.2791353,16.0016318 Z M10.924812,22.9671918 C6.60526316,23.1545155 3.55263158,22.5397095 1.76785714,21.1218131 C0.589285714,20.1880765 0,18.9181178 0,17.3119371 L0,17.0112585 C0,16.4099014 0.121240602,15.8431271 0.361842105,15.3118963 C0.603383459,14.7816261 0.947368421,14.3070727 1.39285714,13.8853542 C2.23120301,13.0649724 3.30169173,12.5154895 4.60526316,12.2397874 C3.46240602,12.0899285 2.51691729,11.6835801 1.76785714,11.0236243 C1.375,10.674914 1.06672932,10.2733688 0.843984962,9.81802811 C0.621240602,9.3626874 0.509398496,8.86219688 0.509398496,8.31367463 L0.509398496,8.03989383 C0.509398496,7.10999972 0.705827068,6.3165157 1.09868421,5.66136304 C1.68796992,4.66806707 2.64191729,3.89667764 3.96334586,3.34623412 C5.65789474,2.63440403 7.97932331,2.2146068 10.924812,2.08588179 L12.075188,2.03496816 C15.0037594,1.90816442 17.3317669,2.12622843 19.0639098,2.68916019 C20.4389098,3.13969773 21.4022556,3.81982689 21.9558271,4.7247445 C22.3308271,5.34723559 22.518797,6.13303453 22.518797,7.08214132 L22.518797,7.3549615 C22.518797,8.45008472 22.1071429,9.38862453 21.2866541,10.1734628 C20.5366541,10.8997024 19.5902256,11.3867441 18.4492481,11.6374697 C19.768797,11.7988563 20.8486842,12.254197 21.6889098,13.0015705 C22.1165414,13.3666116 22.4426692,13.8085034 22.6654135,14.3282066 C22.8881579,14.8469492 23,15.4079597 23,16.0093168 L23,16.3099954 C23,17.2956063 22.7857143,18.1630592 22.3580827,18.9104327 C21.7330827,19.9959496 20.7058271,20.8634025 19.2781955,21.5089488 C17.4577068,22.3168423 15.056391,22.7875532 12.075188,22.9162782 L10.924812,22.9671918 Z" id="Fill-1" fill="#FFFFFF"></path>
                <polygon id="Fill-4" fill="#FFFFFF" points="43.6185403 21.2183949 38.4480878 15.0247383 33.2279802 21.6787152 26 22 34.1019104 11.4173302 26.2320248 2.07752528 33.9222491 1.73745191 38.7315734 7.54500313 43.5408978 1.31095106 50.5621321 1 42.8728107 11.0011631 51 20.8914736"></polygon>
                <polygon id="Fill-6" fill="#FFFFFF" points="60.1783981 27 60.1783981 11.0445237 52 11.4032349 52 6.00821775 75 5 75 10.3959737 66.8216019 10.754685 66.8216019 26.7092047"></polygon>
                <polygon id="Clip-15" points="165 0 185 0 185 22 165 22"></polygon>
                <polygon id="Fill-14" fill="#FFFFFF" points="165 0.862726529 184.834029 0 184.834029 4.85816366 171.59249 5.43394602 171.59249 8.50225991 184.415855 7.94541776 184.415855 12.9740433 171.59249 13.5318325 171.59249 16.7980715 185 16.2147131 185 21.1296974 165 22"></polygon>
            </g>
        </g>
    </g>
</svg>