<?xml version="1.0" encoding="UTF-8"?>
<svg width="399px" height="79px" viewBox="0 0 399 79" version="1.1" xmlns="http://www.w3.org/2000/svg" xmlns:xlink="http://www.w3.org/1999/xlink">
    <!-- Generator: Sketch 57.1 (83088) - https://sketch.com -->
    <title>Powered_by_label</title>
    <desc>Created with Sketch.</desc>
    <g id="Quad_Code_web" stroke="none" stroke-width="1" fill="none" fill-rule="evenodd">
        <g id="Main" transform="translate(-485.000000, -1931.000000)">
            <g id="Powered_by_label" transform="translate(485.000000, 1931.000000)">
                <g id="Group-Copy">
                    <path d="M175.31875,7.5627551 C174.989583,7.72806122 174.989583,8.05867347 175.154167,8.22397959 L176.470833,9.87704082 L189.472917,26.7382653 L189.802083,27.0688776 L192.764583,30.8709184 L200.335417,40.7892857 L201.158333,41.7811224 C201.322917,41.9464286 201.4875,41.9464286 201.652083,41.9464286 C202.145833,41.7811224 202.96875,41.4505102 202.96875,41.4505102 L203.791667,41.119898 L204.779167,40.6239796 L205.108333,40.4586735 L208.070833,39.1362245 L208.4,38.9709184 L208.564583,38.9709184 L209.552083,38.475 L212.020833,37.3178571 L220.414583,33.6811224 C220.908333,33.5158163 221.2375,33.1852041 221.566667,33.019898 C221.566667,33.019898 221.566667,33.019898 221.566667,33.019898 C221.895833,32.6892857 222.060417,32.5239796 222.060417,32.1933673 C222.225,31.8627551 222.225,31.5321429 222.060417,31.2015306 C222.060417,31.2015306 222.060417,31.2015306 222.060417,31.2015306 C222.060417,31.2015306 222.060417,31.2015306 222.060417,31.2015306 C222.060417,31.0362245 222.060417,30.8709184 221.895833,30.8709184 C221.895833,30.8709184 221.895833,30.7056122 221.895833,30.7056122 C221.895833,30.5403061 221.73125,30.375 221.566667,30.2096939 L212.514583,18.8035714 C212.35,18.6382653 212.020833,18.1423469 211.85625,17.8117347 C211.691667,17.6464286 211.527083,17.6464286 211.3625,17.6464286 L208.89375,18.6382653 L208.564583,18.8035714 L202.96875,21.1178571 C202.639583,21.2831633 202.639583,21.6137755 202.804167,21.7790816 C202.96875,22.1096939 203.297917,22.4403061 203.297917,22.6056122 L203.95625,23.4321429 L208.235417,28.8872449 L208.235417,29.052551 C208.235417,29.2178571 208.4,29.2178571 208.4,29.3831633 C208.4,29.5484694 208.4,29.5484694 208.4,29.7137755 C208.4,29.8790816 208.4,29.8790816 208.4,30.0443878 C208.4,30.2096939 208.4,30.2096939 208.4,30.375 C208.4,30.375 208.4,30.375 208.4,30.375 C208.4,30.375 208.4,30.375 208.4,30.375 C208.4,30.375 208.4,30.375 208.4,30.375 C208.4,30.375 208.4,30.5403061 208.235417,30.5403061 C208.235417,30.5403061 208.235417,30.5403061 208.235417,30.7056122 C208.235417,30.7056122 208.235417,30.7056122 208.235417,30.8709184 C208.235417,30.8709184 208.235417,30.8709184 208.235417,30.8709184 C208.235417,30.8709184 208.235417,30.8709184 208.070833,31.0362245 C208.070833,31.0362245 208.070833,31.0362245 207.90625,31.0362245 C207.741667,31.0362245 207.741667,31.2015306 207.577083,31.2015306 C207.4125,31.3668367 207.083333,31.3668367 206.754167,31.3668367 C206.425,31.3668367 206.260417,31.3668367 205.93125,31.3668367 C205.602083,31.3668367 205.4375,31.2015306 205.272917,31.0362245 C205.108333,30.8709184 204.94375,30.7056122 204.779167,30.5403061 L203.791667,29.2178571 L202.96875,28.0607143 L198.360417,22.1096939 L193.422917,15.8280612 L189.802083,11.0341837 C189.802083,11.0341837 189.6375,10.8688776 189.6375,10.8688776 C189.6375,10.8688776 189.6375,10.8688776 189.6375,10.8688776 C189.6375,10.8688776 189.6375,10.7035714 189.6375,10.7035714 C189.6375,10.7035714 189.6375,10.7035714 189.6375,10.7035714 C189.6375,10.7035714 189.6375,10.7035714 189.6375,10.7035714 C189.6375,10.5382653 189.6375,10.3729592 189.6375,10.2076531 C189.6375,10.0423469 189.802083,9.87704082 189.966667,9.71173469 C190.13125,9.54642857 190.295833,9.38112245 190.625,9.38112245 C190.789583,9.21581633 191.11875,9.21581633 191.447917,9.21581633 C191.777083,9.21581633 191.941667,9.21581633 192.270833,9.21581633 C192.435417,9.21581633 192.764583,9.38112245 192.929167,9.38112245 C193.09375,9.38112245 193.258333,9.71173469 193.422917,9.87704082 L193.752083,10.2076531 L198.689583,16.4892857 L199.677083,17.8117347 C199.841667,17.9770408 200.170833,18.4729592 200.335417,18.6382653 C200.5,18.8035714 200.664583,18.8035714 200.829167,18.8035714 L209.222917,15.3321429 C209.552083,15.1668367 209.552083,14.8362245 209.3875,14.6709184 L198.689583,1.44642857 C198.360417,1.11581633 198.03125,0.785204082 197.702083,0.619897959 C197.372917,0.454591837 196.879167,0.289285714 196.385417,0.123979592 C195.891667,-0.0413265306 195.397917,-0.0413265306 194.904167,0.123979592 C194.410417,0.123979592 193.916667,0.289285714 193.5875,0.454591837 L175.31875,7.5627551 Z" id="Path" fill="#FF0025" fill-rule="nonzero"></path>
                    <path d="M225.1875,32.5239796 C225.1875,32.6892857 225.1875,32.8545918 225.1875,33.019898 C225.1875,33.019898 225.1875,33.019898 225.1875,33.1852041 C225.1875,33.3505102 225.1875,33.3505102 225.1875,33.5158163 C225.1875,33.5158163 225.1875,33.5158163 225.1875,33.6811224 C225.1875,33.6811224 225.1875,33.8464286 225.1875,33.8464286 C225.1875,34.0117347 225.022917,34.0117347 225.022917,34.1770408 C225.022917,34.1770408 225.022917,34.3423469 224.858333,34.3423469 C224.858333,34.5076531 224.69375,34.6729592 224.529167,34.6729592 C224.529167,34.6729592 224.529167,34.6729592 224.529167,34.8382653 C224.364583,35.0035714 224.364583,35.1688776 224.2,35.1688776 C224.2,35.1688776 224.2,35.1688776 224.2,35.1688776 C224.035417,35.3341837 223.70625,35.4994898 223.541667,35.6647959 C223.541667,35.6647959 223.377083,35.6647959 223.377083,35.830102 C223.047917,35.9954082 222.883333,36.1607143 222.554167,36.3260204 L222.225,36.4913265 L221.566667,36.8219388 L212.185417,40.9545918 L209.716667,42.1117347 L208.729167,42.6076531 L208.564583,42.6076531 L208.235417,42.7729592 L207.247917,43.1035714 L204.779167,44.0954082 L203.791667,44.5913265 L202.96875,44.9219388 L200.664583,45.9137755 C200.5,46.0790816 200.170833,45.9137755 200.170833,45.7484694 L198.525,43.5994898 L190.295833,32.8545918 L190.13125,32.5239796 L190.13125,32.5239796 L177.129167,15.6627551 L176.141667,14.3403061 L173.179167,10.5382653 L172.520833,9.71173469 C172.35625,9.54642857 172.191667,9.54642857 172.027083,9.54642857 L153.429167,17.1505102 C153.264583,17.3158163 153.1,17.3158163 152.935417,17.4811224 C152.935417,17.4811224 152.770833,17.4811224 152.770833,17.6464286 C152.60625,17.8117347 152.441667,17.8117347 152.441667,17.9770408 C152.441667,17.9770408 152.441667,17.9770408 152.441667,17.9770408 C152.441667,17.9770408 152.441667,17.9770408 152.441667,17.9770408 C152.277083,18.1423469 152.1125,18.3076531 152.1125,18.3076531 C152.1125,18.3076531 152.1125,18.3076531 152.1125,18.4729592 C152.1125,18.6382653 151.947917,18.6382653 151.947917,18.8035714 C151.947917,18.8035714 151.947917,18.8035714 151.947917,18.8035714 C151.947917,18.8035714 151.947917,18.8035714 151.947917,18.8035714 C151.947917,18.9688776 151.783333,19.1341837 151.783333,19.2994898 C151.783333,19.2994898 151.783333,19.2994898 151.783333,19.2994898 C151.783333,19.4647959 151.783333,19.630102 151.783333,19.7954082 C151.783333,20.1260204 151.947917,20.4566327 152.277083,20.7872449 L154.0875,23.2668367 L165.9375,39.3015306 L166.102083,39.6321429 L167.9125,42.1117347 L174.33125,50.8729592 C174.660417,51.2035714 174.989583,51.5341837 175.31875,51.6994898 C175.647917,51.8647959 176.141667,52.030102 176.635417,52.1954082 C177.129167,52.3607143 177.622917,52.3607143 178.116667,52.3607143 C178.610417,52.3607143 179.104167,52.1954082 179.597917,52.030102 L180.420833,51.6994898 L181.902083,51.0382653 L184.20625,50.0464286 L189.14375,47.897449 C189.308333,47.7321429 189.6375,47.897449 189.6375,48.0627551 L190.954167,49.8811224 C191.11875,50.0464286 191.11875,50.5423469 190.789583,50.5423469 L184.20625,53.352551 L183.7125,53.5178571 L180.420833,55.0056122 L180.091667,55.1709184 C179.26875,55.5015306 178.445833,55.6668367 177.7875,55.8321429 C176.964583,55.8321429 176.141667,55.8321429 175.31875,55.6668367 C174.495833,55.5015306 173.8375,55.1709184 173.179167,54.8403061 C172.520833,54.5096939 172.027083,54.0137755 171.533333,53.352551 L166.266667,46.2443878 L166.102083,45.9137755 L164.291667,43.4341837 L154.416667,29.8790816 L152.1125,26.9035714 L149.64375,23.4321429 C149.479167,23.2668367 149.479167,23.1015306 149.314583,22.9362245 C149.314583,22.9362245 149.314583,22.7709184 149.314583,22.7709184 C149.314583,22.6056122 149.15,22.6056122 149.15,22.4403061 C149.15,22.4403061 149.15,22.275 149.15,22.275 C149.15,22.1096939 149.15,22.1096939 149.15,21.9443878 C149.15,21.9443878 149.15,21.7790816 149.15,21.7790816 C149.15,21.6137755 149.15,21.6137755 149.15,21.6137755 L149.314583,42.6076531 C149.314583,42.7729592 149.314583,42.9382653 149.314583,43.1035714 C149.314583,43.2688776 149.314583,43.4341837 149.479167,43.5994898 C149.479167,43.7647959 149.64375,43.930102 149.64375,44.0954082 C149.64375,44.2607143 149.808333,44.4260204 149.972917,44.5913265 L172.520833,76.330102 C172.85,76.8260204 173.508333,77.3219388 174.002083,77.8178571 C174.660417,78.1484694 175.31875,78.4790816 176.141667,78.6443878 C176.964583,78.8096939 177.622917,78.8096939 178.445833,78.8096939 C179.26875,78.8096939 179.927083,78.4790816 180.75,78.1484694 L223.70625,59.1382653 C224.2,58.9729592 224.529167,58.6423469 224.858333,58.4770408 C225.1875,58.1464286 225.516667,57.9811224 225.68125,57.6505102 C225.845833,57.319898 226.010417,56.9892857 226.175,56.6586735 C226.339583,56.1627551 226.339583,55.5015306 226.339583,55.5015306 C226.339583,55.5015306 224.858333,42.6076531 225.1875,32.5239796 C225.1875,32.5239796 225.1875,32.5239796 225.1875,32.5239796 Z M182.889583,40.7892857 C182.889583,40.7892857 182.889583,40.7892857 182.889583,40.7892857 C182.889583,40.7892857 182.889583,40.7892857 182.889583,40.7892857 C182.889583,40.9545918 182.725,41.119898 182.725,41.119898 C182.725,41.119898 182.725,41.119898 182.725,41.119898 C182.725,41.119898 182.725,41.2852041 182.560417,41.2852041 C182.560417,41.2852041 182.560417,41.2852041 182.395833,41.4505102 C182.395833,41.4505102 182.395833,41.4505102 182.23125,41.4505102 C182.066667,41.6158163 181.902083,41.6158163 181.902083,41.6158163 C181.572917,41.7811224 181.408333,41.7811224 181.079167,41.7811224 C180.75,41.7811224 180.585417,41.7811224 180.25625,41.7811224 C179.927083,41.7811224 179.7625,41.6158163 179.597917,41.4505102 C179.433333,41.2852041 179.26875,41.119898 179.104167,40.9545918 L176.470833,37.4831633 L175.8125,36.6566327 L172.85,32.8545918 L170.38125,29.5484694 L164.291667,21.2831633 C164.291667,21.2831633 164.127083,21.1178571 164.127083,21.1178571 C164.127083,21.1178571 164.127083,21.1178571 164.127083,21.1178571 C164.127083,21.1178571 164.127083,20.952551 164.127083,20.952551 C164.127083,20.952551 164.127083,20.952551 164.127083,20.952551 C164.127083,20.952551 164.127083,20.952551 164.127083,20.952551 C164.127083,20.7872449 164.127083,20.6219388 164.127083,20.4566327 C164.127083,20.2913265 164.291667,20.1260204 164.45625,19.9607143 C164.620833,19.7954082 164.785417,19.630102 165.114583,19.630102 C165.279167,19.4647959 165.608333,19.4647959 165.9375,19.4647959 C166.266667,19.4647959 166.43125,19.4647959 166.760417,19.4647959 C166.925,19.4647959 167.254167,19.630102 167.41875,19.7954082 C167.583333,19.9607143 167.747917,20.1260204 167.9125,20.2913265 L170.38125,23.597449 L172.85,26.9035714 L175.8125,30.7056122 L176.8,32.0280612 L180.091667,36.3260204 L182.725,39.797449 C182.889583,39.9627551 182.889583,40.1280612 183.054167,40.2933673 C183.054167,40.2933673 183.054167,40.4586735 183.054167,40.4586735 C183.054167,40.4586735 183.054167,40.6239796 182.889583,40.7892857 Z" id="Shape" fill="#FF0025" fill-rule="nonzero"></path>
                    <path d="M253.402434,44.9668367 C251.254013,45.4668367 249.436118,45.6335034 247.94875,45.6335034 L246.791908,45.6335034 C245.304539,45.6335034 244.147697,45.1335034 243.321382,44.3001701 C242.495066,43.4668367 241.999276,42.3001701 241.999276,40.8001701 L241.999276,33.3001701 C241.999276,31.6335034 242.495066,30.4668367 243.321382,29.4668367 C244.312961,28.4668367 245.469803,28.1335034 247.122434,28.1335034 L259.186645,28.1335034 L259.186645,50.9668367 L253.567697,50.9668367 L253.567697,44.9668367 L253.402434,44.9668367 Z M249.436118,41.1335034 C250.758224,41.1335034 252.080329,40.9668367 253.402434,40.8001701 L253.402434,32.3001701 L248.940329,32.3001701 C248.114013,32.3001701 247.618224,32.8001701 247.618224,33.6335034 L247.618224,39.9668367 C247.618224,40.3001701 247.783487,40.6335034 247.94875,40.8001701 C248.114013,40.9668367 248.444539,41.1335034 248.775066,41.1335034 L249.436118,41.1335034 L249.436118,41.1335034 Z" id="Shape" fill="#FFFFFF" fill-rule="nonzero"></path>
                    <path d="M270.259276,40.8001701 C271.416118,40.8001701 272.738224,40.6335034 274.225592,40.1335034 L274.225592,27.8001701 L279.844539,27.8001701 L279.844539,45.3001701 L274.886645,45.3001701 L274.556118,43.6335034 C273.564539,44.3001701 272.572961,44.8001701 271.416118,45.1335034 C270.259276,45.4668367 269.432961,45.6335034 268.771908,45.6335034 L267.284539,45.6335034 C265.797171,45.6335034 264.640329,45.1335034 263.814013,44.3001701 C262.987697,43.4668367 262.491908,42.3001701 262.491908,40.8001701 L262.491908,28.1335034 L268.110855,28.1335034 L268.110855,39.9668367 C268.110855,40.3001701 268.276118,40.6335034 268.441382,40.8001701 C268.606645,40.9668367 268.937171,41.1335034 269.267697,41.1335034 L270.259276,41.1335034 L270.259276,40.8001701 Z" id="Path" fill="#FFFFFF" fill-rule="nonzero"></path>
                    <path d="M283.810855,28.3001701 C287.777171,27.8001701 291.247697,27.6335034 294.552961,27.6335034 C296.040329,27.6335034 297.197171,28.1335034 298.023487,28.9668367 C298.849803,29.8001701 299.345592,30.9668367 299.345592,32.4668367 L299.345592,45.3001701 L294.387697,45.3001701 L294.057171,43.6335034 C293.065592,44.3001701 292.074013,44.8001701 290.917171,45.1335034 C289.925592,45.4668367 288.934013,45.6335034 288.272961,45.6335034 L287.116118,45.6335034 C285.62875,45.6335034 284.471908,45.1335034 283.645592,44.3001701 C282.819276,43.4668367 282.323487,42.3001701 282.323487,40.8001701 L282.323487,39.3001701 C282.323487,37.8001701 282.819276,36.6335034 283.645592,35.8001701 C284.471908,34.9668367 285.62875,34.4668367 287.116118,34.4668367 L293.726645,34.4668367 L293.726645,33.1335034 C293.726645,32.8001701 293.561382,32.4668367 293.396118,32.3001701 C293.230855,32.1335034 292.900329,31.9668367 292.569803,31.9668367 C291.247697,31.9668367 289.595066,31.9668367 287.942434,32.1335034 C286.289803,32.3001701 284.802434,32.3001701 283.810855,32.4668367 L283.810855,28.3001701 L283.810855,28.3001701 Z M289.925592,40.9668367 C291.082434,40.9668367 292.404539,40.8001701 293.891908,40.3001701 L293.891908,38.3001701 L289.264539,38.3001701 C288.934013,38.3001701 288.603487,38.4668367 288.438224,38.6335034 C288.272961,38.8001701 288.107697,39.1335034 288.107697,39.4668367 L288.107697,39.8001701 C288.107697,40.1335034 288.272961,40.4668367 288.438224,40.6335034 C288.603487,40.8001701 288.934013,40.9668367 289.264539,40.9668367 L289.925592,40.9668367 Z" id="Shape" fill="#FFFFFF" fill-rule="nonzero"></path>
                    <path d="M314.549803,45.3001701 L314.219276,43.6335034 C313.227697,44.3001701 312.236118,44.8001701 311.079276,45.1335034 C309.922434,45.4668367 309.096118,45.6335034 308.435066,45.6335034 L306.947697,45.6335034 C305.460329,45.6335034 304.303487,45.1335034 303.477171,44.3001701 C302.650855,43.4668367 302.155066,42.3001701 302.155066,40.8001701 L302.155066,33.3001701 C302.155066,31.6335034 302.650855,30.4668367 303.477171,29.4668367 C304.46875,28.4668367 305.625592,28.1335034 307.278224,28.1335034 L313.88875,28.1335034 L313.88875,22.6335034 L319.507697,22.6335034 L319.507697,45.3001701 L314.549803,45.3001701 Z M309.922434,40.8001701 C311.079276,40.8001701 312.401382,40.6335034 313.88875,40.1335034 L313.88875,32.3001701 L309.096118,32.3001701 C308.269803,32.3001701 307.774013,32.8001701 307.774013,33.6335034 L307.774013,39.6335034 C307.774013,39.9668367 307.939276,40.3001701 308.104539,40.4668367 C308.269803,40.6335034 308.600329,40.8001701 308.930855,40.8001701 L309.922434,40.8001701 L309.922434,40.8001701 Z" id="Shape" fill="#FFFFFF" fill-rule="nonzero"></path>
                    <path d="M338.017171,44.9668367 C334.050855,45.4668367 330.415066,45.6335034 327.275066,45.6335034 C325.787697,45.6335034 324.630855,45.1335034 323.804539,44.3001701 C322.978224,43.4668367 322.482434,42.3001701 322.482434,40.8001701 L322.482434,33.3001701 C322.482434,31.6335034 322.978224,30.4668367 323.804539,29.4668367 C324.630855,28.4668367 325.952961,28.1335034 327.605592,28.1335034 L338.017171,28.1335034 L338.017171,32.4668367 L329.423487,32.4668367 C328.597171,32.4668367 328.101382,32.9668367 328.101382,33.8001701 L328.101382,40.1335034 C328.101382,40.4668367 328.266645,40.8001701 328.431908,40.9668367 C328.597171,41.1335034 328.927697,41.3001701 329.258224,41.3001701 C331.241382,41.3001701 334.050855,41.1335034 338.017171,40.8001701 L338.017171,44.9668367 L338.017171,44.9668367 Z" id="Path" fill="#FFFFFF" fill-rule="nonzero"></path>
                    <path d="M358.014013,40.4668367 C358.014013,42.1335034 357.518224,43.3001701 356.691908,44.3001701 C355.865592,45.3001701 354.543487,45.6335034 352.890855,45.6335034 L345.454013,45.6335034 C343.801382,45.6335034 342.644539,45.1335034 341.652961,44.3001701 C340.661382,43.4668367 340.330855,42.1335034 340.330855,40.4668367 L340.330855,32.9668367 C340.330855,31.3001701 340.826645,30.1335034 341.652961,29.1335034 C342.479276,28.1335034 343.801382,27.8001701 345.454013,27.8001701 L352.890855,27.8001701 C354.543487,27.8001701 355.700329,28.3001701 356.691908,29.1335034 C357.683487,29.9668367 358.014013,31.3001701 358.014013,32.9668367 L358.014013,40.4668367 Z M352.395066,33.3001701 C352.395066,32.4668367 351.899276,31.9668367 351.072961,31.9668367 L347.106645,31.9668367 C346.280329,31.9668367 345.784539,32.4668367 345.784539,33.3001701 L345.784539,39.8001701 C345.784539,40.6335034 346.280329,41.1335034 347.106645,41.1335034 L351.072961,41.1335034 C351.899276,41.1335034 352.395066,40.6335034 352.395066,39.8001701 L352.395066,33.3001701 Z" id="Shape" fill="#FFFFFF" fill-rule="nonzero"></path>
                    <path d="M373.052961,45.3001701 L372.722434,43.6335034 C371.730855,44.3001701 370.739276,44.8001701 369.582434,45.1335034 C368.590855,45.4668367 367.599276,45.6335034 366.938224,45.6335034 L365.450855,45.6335034 C363.963487,45.6335034 362.806645,45.1335034 361.980329,44.3001701 C361.154013,43.4668367 360.658224,42.3001701 360.658224,40.8001701 L360.658224,33.3001701 C360.658224,31.6335034 361.154013,30.4668367 361.980329,29.4668367 C362.971908,28.4668367 364.12875,28.1335034 365.781382,28.1335034 L372.391908,28.1335034 L372.391908,22.6335034 L378.010855,22.6335034 L378.010855,45.3001701 L373.052961,45.3001701 Z M368.590855,40.8001701 C369.747697,40.8001701 371.069803,40.6335034 372.557171,40.1335034 L372.557171,32.3001701 L367.764539,32.3001701 C366.938224,32.3001701 366.442434,32.8001701 366.442434,33.6335034 L366.442434,39.6335034 C366.442434,39.9668367 366.607697,40.3001701 366.772961,40.4668367 C366.938224,40.6335034 367.26875,40.8001701 367.599276,40.8001701 L368.590855,40.8001701 L368.590855,40.8001701 Z" id="Shape" fill="#FFFFFF" fill-rule="nonzero"></path>
                    <path d="M397.181382,44.9668367 C393.049803,45.4668367 389.24875,45.6335034 385.778224,45.6335034 C384.290855,45.6335034 383.134013,45.1335034 382.307697,44.3001701 C381.481382,43.4668367 380.985592,42.3001701 380.985592,40.8001701 L380.985592,32.9668367 C380.985592,31.3001701 381.481382,30.1335034 382.307697,29.1335034 C383.134013,28.1335034 384.456118,27.8001701 386.10875,27.8001701 L392.554013,27.8001701 C394.206645,27.8001701 395.363487,28.3001701 396.355066,29.1335034 C397.346645,30.1335034 397.677171,31.3001701 397.677171,32.9668367 L397.677171,38.9668367 L386.439276,38.9668367 L386.439276,40.3001701 C386.439276,40.6335034 386.604539,40.9668367 386.769803,41.1335034 C386.935066,41.3001701 387.265592,41.4668367 387.596118,41.4668367 C389.744539,41.4668367 392.884539,41.3001701 397.016118,40.9668367 L397.016118,44.9668367 L397.181382,44.9668367 Z M388.091908,31.8001701 C387.265592,31.8001701 386.769803,32.3001701 386.769803,33.1335034 L386.769803,34.9668367 L392.223487,34.9668367 L392.223487,33.1335034 C392.223487,32.3001701 391.727697,31.8001701 390.901382,31.8001701 L388.091908,31.8001701 Z" id="Shape" fill="#FFFFFF" fill-rule="nonzero"></path>
                    <path d="M243.146875,59.1335034 C242.31875,59.1335034 241.821875,58.9668367 241.490625,58.6335034 C241.490625,58.6335034 241.490625,58.4668367 241.490625,58.3001701 L241.490625,57.9668367 C241.490625,57.8001701 241.490625,57.6335034 241.490625,57.6335034 C241.490625,57.6335034 241.490625,57.6335034 241.490625,57.6335034 C241.490625,57.6335034 241.490625,57.6335034 241.490625,57.6335034 C241.490625,57.6335034 241.65625,57.8001701 241.65625,57.8001701 C241.821875,57.8001701 241.821875,57.9668367 241.9875,57.9668367 C242.31875,58.1335034 242.65,58.1335034 242.98125,58.1335034 C243.478125,58.1335034 243.64375,57.9668367 243.64375,57.6335034 C243.64375,57.4668367 243.64375,57.4668367 243.478125,57.4668367 C243.3125,57.4668367 243.146875,57.3001701 242.815625,57.3001701 C242.484375,57.3001701 242.31875,57.1335034 241.9875,57.1335034 C241.821875,57.1335034 241.65625,56.9668367 241.490625,56.8001701 C241.325,56.6335034 241.159375,56.3001701 241.159375,55.9668367 C241.159375,55.4668367 241.325,55.1335034 241.65625,54.9668367 C241.9875,54.8001701 242.484375,54.6335034 242.98125,54.6335034 C243.478125,54.6335034 243.975,54.8001701 244.471875,55.1335034 C244.471875,55.1335034 244.471875,55.3001701 244.471875,55.3001701 C244.471875,55.4668367 244.30625,55.6335034 244.30625,55.6335034 L244.140625,55.8001701 C244.140625,55.8001701 244.140625,55.8001701 244.140625,55.8001701 C244.140625,55.8001701 244.140625,55.8001701 244.140625,55.6335034 C243.975,55.4668367 243.64375,55.3001701 243.3125,55.3001701 C243.146875,55.3001701 243.146875,55.3001701 242.98125,55.3001701 C242.484375,55.3001701 242.31875,55.4668367 242.31875,55.8001701 C242.31875,55.9668367 242.31875,55.9668367 242.484375,55.9668367 C242.65,56.1335034 242.98125,56.1335034 243.3125,56.1335034 C243.64375,56.1335034 243.975,56.3001701 244.140625,56.3001701 C244.30625,56.3001701 244.471875,56.4668367 244.6375,56.6335034 C244.803125,56.8001701 244.96875,57.1335034 244.96875,57.4668367 C244.96875,57.8001701 244.803125,58.1335034 244.471875,58.4668367 C244.140625,58.9668367 243.809375,59.1335034 243.146875,59.1335034 Z" id="Path" fill="#FFFFFF" fill-rule="nonzero"></path>
                    <path d="M248.94375,56.9668367 C248.94375,56.6335034 248.94375,56.4668367 249.109375,56.1335034 C249.275,55.8001701 249.275,55.6335034 249.60625,55.4668367 C249.9375,54.9668367 250.6,54.8001701 251.2625,54.8001701 C251.925,54.8001701 252.421875,54.9668367 252.753125,55.4668367 C253.084375,55.8001701 253.25,56.3001701 253.25,56.9668367 C253.25,57.6335034 253.084375,58.1335034 252.753125,58.4668367 C252.421875,58.9668367 251.759375,59.1335034 251.096875,59.1335034 C250.434375,59.1335034 249.9375,58.9668367 249.440625,58.4668367 C249.109375,58.1335034 248.94375,57.6335034 248.94375,56.9668367 Z M249.9375,56.9668367 C249.9375,57.1335034 249.9375,57.3001701 250.103125,57.4668367 C250.103125,57.6335034 250.26875,57.8001701 250.26875,57.8001701 C250.434375,57.9668367 250.765625,58.1335034 251.096875,58.1335034 C251.428125,58.1335034 251.759375,57.9668367 251.925,57.8001701 C252.090625,57.6335034 252.25625,57.3001701 252.25625,56.9668367 C252.25625,56.6335034 252.090625,56.3001701 251.925,55.9668367 C251.759375,55.8001701 251.428125,55.6335034 251.096875,55.6335034 C250.765625,55.6335034 250.434375,55.8001701 250.26875,55.9668367 C249.9375,56.3001701 249.9375,56.6335034 249.9375,56.9668367 Z" id="Shape" fill="#FFFFFF" fill-rule="nonzero"></path>
                    <path d="M259.378125,55.3001701 C259.378125,55.3001701 259.378125,55.6335034 259.378125,55.9668367 L259.378125,56.3001701 L258.384375,56.3001701 L258.384375,59.1335034 L257.390625,59.1335034 L257.390625,56.3001701 L256.728125,56.3001701 C256.728125,56.1335034 256.728125,55.9668367 256.728125,55.8001701 L256.728125,55.3001701 L256.728125,55.3001701 L257.225,55.3001701 L257.225,54.9668367 C257.225,54.3001701 257.390625,53.8001701 257.721875,53.4668367 C258.053125,53.1335034 258.55,52.8001701 259.046875,52.8001701 C259.2125,52.8001701 259.378125,52.8001701 259.54375,52.8001701 L259.54375,53.8001701 L259.54375,53.8001701 C259.378125,53.6335034 259.378125,53.6335034 259.2125,53.6335034 C259.046875,53.6335034 258.88125,53.6335034 258.88125,53.6335034 C258.715625,53.6335034 258.715625,53.8001701 258.715625,53.8001701 C258.55,53.9668367 258.55,54.3001701 258.55,54.6335034 L258.55,55.3001701 L259.378125,55.3001701 Z" id="Path" fill="#FFFFFF" fill-rule="nonzero"></path>
                    <path d="M265.340625,58.1335034 C265.671875,58.1335034 266.003125,57.9668367 266.003125,57.8001701 L266.003125,57.8001701 L266.003125,58.8001701 C265.8375,58.9668367 265.671875,58.9668367 265.340625,59.1335034 C265.175,59.1335034 265.175,59.1335034 265.009375,59.1335034 C264.84375,59.1335034 264.678125,59.1335034 264.5125,59.1335034 C264.346875,59.1335034 264.18125,58.9668367 264.015625,58.8001701 C263.85,58.4668367 263.684375,58.1335034 263.684375,57.6335034 L263.684375,55.8001701 L263.021875,55.8001701 C263.021875,55.8001701 263.021875,55.6335034 263.021875,55.6335034 L263.021875,54.9668367 C263.021875,54.9668367 263.021875,54.9668367 263.021875,54.9668367 L263.684375,54.9668367 L263.684375,53.6335034 L264.678125,53.6335034 L264.678125,54.8001701 L265.8375,54.8001701 L265.8375,55.8001701 L264.678125,55.8001701 L264.678125,57.4668367 C264.678125,57.9668367 264.84375,58.1335034 265.009375,58.1335034 C265.175,58.1335034 265.175,58.1335034 265.340625,58.1335034 Z" id="Path" fill="#FFFFFF" fill-rule="nonzero"></path>
                    <polygon id="Path" fill="#FFFFFF" fill-rule="nonzero" points="269.646875 54.8001701 270.80625 54.8001701 271.634375 57.8001701 272.4625 54.8001701 273.45625 54.8001701 274.284375 57.9668367 275.1125 54.8001701 276.10625 54.8001701 274.78125 58.9668367 273.7875 58.9668367 272.959375 56.1335034 272.296875 58.9668367 271.303125 58.9668367"></polygon>
                    <path d="M282.4,58.8001701 C282.06875,58.9668367 281.7375,59.1335034 281.40625,59.1335034 C281.075,59.1335034 280.909375,59.1335034 280.578125,58.9668367 C280.4125,58.9668367 280.246875,58.8001701 280.08125,58.6335034 C279.75,58.4668367 279.584375,58.1335034 279.584375,57.6335034 C279.584375,57.3001701 279.75,56.9668367 280.08125,56.6335034 C280.4125,56.3001701 281.075,56.1335034 281.7375,56.1335034 L281.903125,56.1335034 C281.903125,56.1335034 281.903125,56.1335034 282.06875,56.1335034 C282.06875,56.1335034 282.06875,56.1335034 282.234375,56.1335034 C282.234375,55.6335034 282.06875,55.4668367 281.7375,55.3001701 C281.571875,55.3001701 281.571875,55.3001701 281.40625,55.3001701 C281.240625,55.3001701 281.075,55.3001701 281.075,55.3001701 C280.909375,55.3001701 280.909375,55.3001701 280.74375,55.4668367 C280.4125,55.6335034 280.246875,55.6335034 280.246875,55.8001701 L280.246875,55.8001701 L280.08125,54.9668367 C280.578125,54.6335034 281.075,54.6335034 281.571875,54.6335034 C282.4,54.6335034 283.0625,54.9668367 283.228125,55.6335034 C283.228125,55.8001701 283.39375,56.1335034 283.39375,56.3001701 L283.39375,57.8001701 C283.39375,58.1335034 283.559375,58.3001701 283.725,58.4668367 L283.0625,59.1335034 C282.73125,59.1335034 282.565625,58.9668367 282.4,58.8001701 Z M282.234375,57.1335034 C282.234375,57.1335034 282.06875,57.1335034 282.06875,57.1335034 L281.903125,57.1335034 C281.240625,57.1335034 280.909375,57.3001701 280.74375,57.4668367 C280.74375,57.4668367 280.74375,57.6335034 280.74375,57.6335034 C280.74375,57.6335034 280.74375,57.8001701 280.74375,57.8001701 C280.74375,57.8001701 280.74375,57.9668367 280.909375,57.9668367 C281.075,57.9668367 281.240625,58.1335034 281.571875,58.1335034 C281.903125,58.1335034 282.06875,58.1335034 282.4,57.9668367 C282.4,57.9668367 282.4,57.9668367 282.4,57.8001701 L282.4,57.1335034 L282.234375,57.1335034 Z" id="Shape" fill="#FFFFFF" fill-rule="nonzero"></path>
                    <path d="M288.69375,58.6335034 C288.69375,58.8001701 288.69375,58.9668367 288.69375,59.1335034 L287.7,59.1335034 L287.7,54.9668367 L288.69375,54.9668367 L288.69375,55.3001701 C288.859375,54.9668367 289.190625,54.9668367 289.35625,54.9668367 C289.6875,54.9668367 289.853125,54.9668367 290.01875,55.1335034 L290.01875,56.3001701 L290.01875,56.3001701 C289.853125,56.1335034 289.6875,55.9668367 289.35625,55.9668367 C289.190625,55.9668367 289.190625,55.9668367 289.025,56.1335034 C288.859375,56.1335034 288.859375,56.3001701 288.69375,56.4668367 L288.69375,58.6335034 L288.69375,58.6335034 Z" id="Path" fill="#FFFFFF" fill-rule="nonzero"></path>
                    <path d="M293.6625,56.9668367 C293.6625,56.6335034 293.6625,56.3001701 293.828125,56.1335034 C293.99375,55.8001701 294.159375,55.6335034 294.325,55.4668367 C294.821875,54.9668367 295.31875,54.8001701 295.98125,54.8001701 C296.478125,54.8001701 296.975,54.9668367 297.30625,55.3001701 C297.6375,55.6335034 297.803125,56.1335034 297.803125,56.6335034 C297.803125,56.8001701 297.803125,56.9668367 297.803125,57.1335034 C297.471875,57.1335034 296.975,57.3001701 296.146875,57.3001701 L294.65625,57.3001701 C294.65625,57.6335034 294.821875,57.8001701 295.153125,57.9668367 C295.484375,58.1335034 295.815625,58.1335034 296.146875,58.1335034 C296.64375,58.1335034 296.975,58.1335034 297.30625,57.9668367 C297.30625,57.9668367 297.471875,57.9668367 297.471875,57.8001701 C297.471875,57.9668367 297.471875,57.9668367 297.471875,58.1335034 L297.471875,58.8001701 C297.30625,58.9668367 296.975,58.9668367 296.478125,59.1335034 C296.3125,59.1335034 296.146875,59.1335034 296.146875,59.1335034 C295.484375,59.1335034 294.821875,58.9668367 294.490625,58.4668367 C293.828125,58.1335034 293.6625,57.6335034 293.6625,56.9668367 Z M296.809375,56.4668367 C296.64375,55.9668367 296.3125,55.6335034 295.815625,55.6335034 C295.484375,55.6335034 295.153125,55.8001701 294.821875,56.1335034 C294.821875,56.3001701 294.65625,56.3001701 294.65625,56.4668367 C294.65625,56.4668367 294.821875,56.4668367 294.821875,56.4668367 L295.153125,56.4668367 C295.31875,56.4668367 295.31875,56.4668367 295.484375,56.4668367 L295.65,56.4668367 C295.815625,56.4668367 295.98125,56.4668367 295.98125,56.4668367 L296.3125,56.4668367 C296.64375,56.4668367 296.64375,56.4668367 296.809375,56.4668367 Z" id="Shape" fill="#FFFFFF" fill-rule="nonzero"></path>
                    <path d="M310.8875,58.8001701 C310.55625,58.9668367 310.225,59.1335034 309.89375,59.1335034 C309.5625,59.1335034 309.23125,59.1335034 309.065625,58.9668367 C308.734375,58.8001701 308.56875,58.6335034 308.403125,58.4668367 C308.071875,58.1335034 307.90625,57.6335034 307.90625,56.9668367 C307.90625,56.3001701 308.071875,55.8001701 308.56875,55.3001701 C309.065625,54.8001701 309.5625,54.6335034 310.225,54.6335034 C310.390625,54.6335034 310.55625,54.6335034 310.8875,54.6335034 L310.8875,52.8001701 L311.88125,52.8001701 L311.88125,57.1335034 C311.88125,57.4668367 311.88125,57.8001701 311.88125,57.8001701 C311.88125,57.9668367 311.88125,57.9668367 312.046875,57.9668367 C312.046875,57.9668367 312.2125,58.1335034 312.2125,58.1335034 L311.384375,58.8001701 C311.053125,58.9668367 311.053125,58.9668367 310.8875,58.8001701 Z M310.059375,58.1335034 C310.225,58.1335034 310.55625,58.1335034 310.721875,57.9668367 L310.721875,55.8001701 C310.55625,55.8001701 310.390625,55.6335034 310.059375,55.6335034 C309.89375,55.6335034 309.728125,55.6335034 309.5625,55.8001701 C309.396875,55.8001701 309.23125,55.9668367 309.23125,55.9668367 C309.065625,56.1335034 308.9,56.4668367 308.9,56.8001701 C308.9,57.1335034 309.065625,57.4668367 309.23125,57.8001701 C309.396875,58.1335034 309.728125,58.1335034 310.059375,58.1335034 Z" id="Shape" fill="#FFFFFF" fill-rule="nonzero"></path>
                    <path d="M316.021875,56.9668367 C316.021875,56.6335034 316.021875,56.3001701 316.1875,56.1335034 C316.353125,55.8001701 316.51875,55.6335034 316.684375,55.4668367 C317.18125,54.9668367 317.678125,54.8001701 318.340625,54.8001701 C318.8375,54.8001701 319.334375,54.9668367 319.665625,55.3001701 C319.996875,55.6335034 320.1625,56.1335034 320.1625,56.6335034 C320.1625,56.8001701 320.1625,56.9668367 320.1625,57.1335034 C319.83125,57.1335034 319.334375,57.3001701 318.50625,57.3001701 L317.015625,57.3001701 C317.015625,57.6335034 317.18125,57.8001701 317.5125,57.9668367 C317.84375,58.1335034 318.175,58.1335034 318.50625,58.1335034 C319.003125,58.1335034 319.334375,58.1335034 319.665625,57.9668367 C319.665625,57.9668367 319.83125,57.9668367 319.83125,57.8001701 C319.83125,57.9668367 319.83125,57.9668367 319.83125,58.1335034 L319.83125,58.8001701 C319.665625,58.9668367 319.334375,58.9668367 318.8375,59.1335034 C318.671875,59.1335034 318.50625,59.1335034 318.50625,59.1335034 C317.84375,59.1335034 317.18125,58.9668367 316.85,58.4668367 C316.1875,58.1335034 316.021875,57.6335034 316.021875,56.9668367 Z M319.003125,56.4668367 C318.8375,55.9668367 318.50625,55.6335034 318.009375,55.6335034 C317.678125,55.6335034 317.346875,55.8001701 317.015625,56.1335034 C317.015625,56.3001701 316.85,56.3001701 316.85,56.4668367 C316.85,56.4668367 317.015625,56.4668367 317.015625,56.4668367 L317.346875,56.4668367 C317.5125,56.4668367 317.5125,56.4668367 317.678125,56.4668367 L317.84375,56.4668367 C318.009375,56.4668367 318.175,56.4668367 318.175,56.4668367 L318.50625,56.4668367 C318.8375,56.4668367 319.003125,56.4668367 319.003125,56.4668367 Z" id="Shape" fill="#FFFFFF" fill-rule="nonzero"></path>
                    <polygon id="Path" fill="#FFFFFF" fill-rule="nonzero" points="323.640625 54.8001701 324.8 54.8001701 325.79375 57.6335034 326.7875 54.8001701 327.946875 54.8001701 326.290625 58.9668367 325.4625 58.9668367"></polygon>
                    <path d="M331.590625,56.9668367 C331.590625,56.6335034 331.590625,56.3001701 331.75625,56.1335034 C331.921875,55.8001701 332.0875,55.6335034 332.253125,55.4668367 C332.75,54.9668367 333.246875,54.8001701 333.909375,54.8001701 C334.40625,54.8001701 334.903125,54.9668367 335.234375,55.3001701 C335.565625,55.6335034 335.73125,56.1335034 335.73125,56.6335034 C335.73125,56.8001701 335.73125,56.9668367 335.73125,57.1335034 C335.4,57.1335034 334.903125,57.3001701 334.075,57.3001701 L332.584375,57.3001701 C332.584375,57.6335034 332.75,57.8001701 333.08125,57.9668367 C333.4125,58.1335034 333.74375,58.1335034 334.075,58.1335034 C334.571875,58.1335034 334.903125,58.1335034 335.234375,57.9668367 C335.234375,57.9668367 335.4,57.9668367 335.4,57.8001701 C335.4,57.9668367 335.4,57.9668367 335.4,58.1335034 L335.4,58.8001701 C335.234375,58.9668367 334.903125,58.9668367 334.40625,59.1335034 C334.240625,59.1335034 334.075,59.1335034 334.075,59.1335034 C333.4125,59.1335034 332.75,58.9668367 332.41875,58.4668367 C331.75625,58.1335034 331.590625,57.6335034 331.590625,56.9668367 Z M334.571875,56.4668367 C334.40625,55.9668367 334.075,55.6335034 333.578125,55.6335034 C333.246875,55.6335034 332.915625,55.8001701 332.584375,56.1335034 C332.584375,56.3001701 332.41875,56.3001701 332.41875,56.4668367 C332.41875,56.4668367 332.584375,56.4668367 332.584375,56.4668367 L332.915625,56.4668367 C333.08125,56.4668367 333.08125,56.4668367 333.246875,56.4668367 L333.4125,56.4668367 C333.578125,56.4668367 333.74375,56.4668367 333.74375,56.4668367 L334.075,56.4668367 C334.571875,56.4668367 334.571875,56.4668367 334.571875,56.4668367 Z" id="Shape" fill="#FFFFFF" fill-rule="nonzero"></path>
                    <path d="M340.865625,58.6335034 C340.865625,58.8001701 340.865625,58.9668367 340.865625,59.1335034 L339.871875,59.1335034 L339.871875,53.1335034 L340.865625,53.1335034 L340.865625,58.6335034 Z" id="Path" fill="#FFFFFF" fill-rule="nonzero"></path>
                    <path d="M345.00625,56.9668367 C345.00625,56.6335034 345.00625,56.4668367 345.171875,56.1335034 C345.3375,55.8001701 345.3375,55.6335034 345.66875,55.4668367 C346,54.9668367 346.6625,54.8001701 347.325,54.8001701 C347.9875,54.8001701 348.484375,54.9668367 348.815625,55.4668367 C349.146875,55.8001701 349.3125,56.3001701 349.3125,56.9668367 C349.3125,57.6335034 349.146875,58.1335034 348.815625,58.4668367 C348.484375,58.9668367 347.821875,59.1335034 347.159375,59.1335034 C346.496875,59.1335034 346,58.9668367 345.503125,58.4668367 C345.171875,58.1335034 345.00625,57.6335034 345.00625,56.9668367 Z M346,56.9668367 C346,57.1335034 346,57.3001701 346.165625,57.4668367 C346.33125,57.6335034 346.33125,57.8001701 346.33125,57.8001701 C346.496875,57.9668367 346.828125,58.1335034 347.159375,58.1335034 C347.490625,58.1335034 347.821875,57.9668367 347.9875,57.8001701 C348.153125,57.6335034 348.31875,57.3001701 348.31875,56.9668367 C348.31875,56.6335034 348.153125,56.3001701 347.9875,55.9668367 C347.821875,55.8001701 347.490625,55.6335034 347.159375,55.6335034 C346.828125,55.6335034 346.496875,55.8001701 346.33125,55.9668367 C346,56.3001701 346,56.6335034 346,56.9668367 Z" id="Shape" fill="#FFFFFF" fill-rule="nonzero"></path>
                    <path d="M354.446875,58.9668367 L354.446875,60.1335034 C354.446875,60.3001701 354.446875,60.4668367 354.446875,60.6335034 L353.453125,60.6335034 L353.453125,54.8001701 L354.446875,54.8001701 L354.446875,55.1335034 C354.778125,54.9668367 355.109375,54.8001701 355.440625,54.8001701 C355.771875,54.8001701 355.9375,54.8001701 356.26875,54.9668367 C356.434375,55.1335034 356.765625,55.1335034 356.93125,55.3001701 C357.2625,55.6335034 357.428125,56.3001701 357.428125,56.9668367 C357.428125,57.4668367 357.2625,57.8001701 357.096875,58.3001701 C356.93125,58.6335034 356.6,58.8001701 356.26875,58.9668367 C355.9375,59.1335034 355.60625,59.1335034 355.275,59.1335034 C354.94375,59.1335034 354.778125,59.1335034 354.446875,58.9668367 Z M354.446875,57.9668367 C354.6125,58.1335034 354.94375,58.3001701 355.275,58.3001701 C355.771875,58.3001701 356.103125,57.9668367 356.26875,57.4668367 C356.26875,57.3001701 356.26875,57.1335034 356.26875,56.9668367 C356.26875,56.8001701 356.26875,56.6335034 356.26875,56.4668367 C356.26875,56.3001701 356.103125,56.3001701 356.103125,56.1335034 C356.103125,55.9668367 355.9375,55.9668367 355.9375,55.9668367 C355.9375,55.9668367 355.771875,55.8001701 355.771875,55.8001701 C355.60625,55.8001701 355.440625,55.6335034 355.275,55.6335034 C355.109375,55.6335034 354.94375,55.6335034 354.778125,55.8001701 C354.6125,55.8001701 354.446875,55.9668367 354.446875,56.1335034 L354.446875,57.9668367 Z" id="Shape" fill="#FFFFFF" fill-rule="nonzero"></path>
                    <path d="M362.5625,57.9668367 C362.5625,58.6335034 362.5625,58.9668367 362.5625,59.1335034 L361.56875,59.1335034 L361.56875,54.9668367 L362.5625,54.9668367 L362.5625,55.3001701 C362.89375,54.9668367 363.390625,54.8001701 363.721875,54.8001701 C364.21875,54.8001701 364.55,54.9668367 364.715625,55.4668367 C364.88125,55.3001701 365.046875,55.1335034 365.2125,54.9668367 C365.378125,54.8001701 365.709375,54.8001701 365.875,54.8001701 C366.040625,54.8001701 366.371875,54.8001701 366.5375,54.9668367 C366.703125,54.9668367 366.86875,55.1335034 366.86875,55.3001701 C367.034375,55.6335034 367.2,55.9668367 367.2,56.4668367 L367.2,58.1335034 C367.2,58.6335034 367.2,58.8001701 367.2,58.9668367 C367.2,59.1335034 367.2,59.1335034 367.2,59.1335034 C367.2,59.1335034 367.2,59.1335034 367.2,59.1335034 L367.2,59.1335034 C367.034375,59.1335034 366.86875,59.1335034 366.703125,59.1335034 L366.371875,59.1335034 C366.20625,59.1335034 366.20625,59.1335034 366.040625,59.1335034 L366.040625,56.9668367 C366.040625,56.3001701 365.875,55.9668367 365.709375,55.8001701 C365.709375,55.8001701 365.54375,55.8001701 365.54375,55.8001701 C365.378125,55.8001701 365.378125,55.8001701 365.378125,55.8001701 C365.378125,55.8001701 365.2125,55.8001701 365.2125,55.9668367 C365.046875,55.9668367 365.046875,56.1335034 364.88125,56.4668367 C364.88125,56.4668367 364.88125,56.4668367 364.88125,56.4668367 C364.88125,56.4668367 364.88125,56.8001701 364.88125,57.4668367 C364.88125,58.1335034 364.88125,58.8001701 364.88125,59.1335034 C364.715625,59.1335034 364.384375,59.1335034 364.21875,59.1335034 C364.053125,59.1335034 363.8875,59.1335034 363.721875,59.1335034 L363.721875,56.9668367 C363.721875,56.4668367 363.721875,56.3001701 363.721875,56.1335034 C363.721875,55.9668367 363.55625,55.9668367 363.55625,55.8001701 C363.55625,55.8001701 363.390625,55.8001701 363.390625,55.8001701 C363.059375,55.8001701 362.728125,55.9668367 362.5625,56.3001701 L362.5625,57.9668367 L362.5625,57.9668367 Z" id="Path" fill="#FFFFFF" fill-rule="nonzero"></path>
                    <polygon id="Path" fill="#FFFFFF" fill-rule="nonzero" points="371.175 54.8001701 372.334375 54.8001701 373.328125 57.6335034 374.321875 54.8001701 375.48125 54.8001701 373.825 58.9668367 372.996875 58.9668367"></polygon>
                    <path d="M378.959375,56.9668367 C378.959375,56.6335034 378.959375,56.3001701 379.125,56.1335034 C379.290625,55.8001701 379.45625,55.6335034 379.621875,55.4668367 C380.11875,54.9668367 380.615625,54.8001701 381.278125,54.8001701 C381.775,54.8001701 382.271875,54.9668367 382.603125,55.3001701 C382.934375,55.6335034 383.1,56.1335034 383.1,56.6335034 C383.1,56.8001701 383.1,56.9668367 383.1,57.1335034 C382.76875,57.1335034 382.271875,57.3001701 381.44375,57.3001701 L379.953125,57.3001701 C379.953125,57.6335034 380.11875,57.8001701 380.45,57.9668367 C380.78125,58.1335034 381.1125,58.1335034 381.44375,58.1335034 C381.940625,58.1335034 382.271875,58.1335034 382.603125,57.9668367 C382.603125,57.9668367 382.76875,57.9668367 382.76875,57.8001701 C382.76875,57.9668367 382.76875,57.9668367 382.76875,58.1335034 L382.76875,58.8001701 C382.603125,58.9668367 382.271875,58.9668367 381.775,59.1335034 C381.609375,59.1335034 381.44375,59.1335034 381.44375,59.1335034 C380.78125,59.1335034 380.11875,58.9668367 379.7875,58.4668367 C379.290625,58.1335034 378.959375,57.6335034 378.959375,56.9668367 Z M382.10625,56.4668367 C381.940625,55.9668367 381.609375,55.6335034 381.1125,55.6335034 C380.78125,55.6335034 380.45,55.8001701 380.11875,56.1335034 C380.11875,56.3001701 379.953125,56.3001701 379.953125,56.4668367 C379.953125,56.4668367 380.11875,56.4668367 380.11875,56.4668367 L380.45,56.4668367 C380.615625,56.4668367 380.615625,56.4668367 380.78125,56.4668367 L380.946875,56.4668367 C381.1125,56.4668367 381.278125,56.4668367 381.278125,56.4668367 L381.609375,56.4668367 C381.940625,56.4668367 381.940625,56.4668367 382.10625,56.4668367 Z" id="Shape" fill="#FFFFFF" fill-rule="nonzero"></path>
                    <path d="M388.4,58.4668367 C388.4,58.6335034 388.4,58.8001701 388.4,58.9668367 L387.40625,58.9668367 L387.40625,54.8001701 L388.4,54.8001701 L388.4,55.1335034 C388.73125,54.8001701 389.0625,54.6335034 389.559375,54.6335034 C390.05625,54.6335034 390.3875,54.8001701 390.553125,55.1335034 C390.884375,55.4668367 390.884375,55.8001701 390.884375,56.3001701 L390.884375,57.9668367 C390.884375,58.4668367 390.884375,58.6335034 390.884375,58.8001701 C390.884375,58.9668367 390.884375,58.9668367 390.884375,58.9668367 C390.884375,58.9668367 390.884375,58.9668367 390.884375,58.9668367 L390.884375,58.9668367 C390.71875,58.9668367 390.553125,58.9668367 390.3875,58.9668367 L390.3875,58.9668367 C390.221875,58.9668367 390.221875,58.9668367 390.05625,58.9668367 L390.05625,56.8001701 C390.05625,55.9668367 389.890625,55.6335034 389.39375,55.6335034 C389.0625,55.6335034 388.73125,55.8001701 388.565625,56.1335034 L388.565625,58.4668367 L388.4,58.4668367 Z" id="Path" fill="#FFFFFF" fill-rule="nonzero"></path>
                    <path d="M397.34375,58.1335034 C397.675,58.1335034 398.00625,57.9668367 398.00625,57.8001701 L398.00625,57.8001701 L398.00625,58.8001701 C397.840625,58.9668367 397.675,58.9668367 397.34375,59.1335034 C397.178125,59.1335034 397.178125,59.1335034 397.0125,59.1335034 C396.846875,59.1335034 396.68125,59.1335034 396.515625,59.1335034 C396.35,59.1335034 396.184375,58.9668367 396.01875,58.8001701 C395.853125,58.4668367 395.6875,58.1335034 395.6875,57.6335034 L395.6875,55.8001701 L395.025,55.8001701 C395.025,55.8001701 395.025,55.6335034 395.025,55.6335034 L395.025,54.9668367 C395.025,54.9668367 395.025,54.9668367 395.025,54.9668367 L395.6875,54.9668367 L395.6875,53.6335034 L396.68125,53.6335034 L396.68125,54.8001701 L397.840625,54.8001701 L397.840625,55.8001701 L396.68125,55.8001701 L396.68125,57.4668367 C396.68125,57.9668367 396.846875,58.1335034 397.0125,58.1335034 C397.178125,58.1335034 397.178125,58.1335034 397.34375,58.1335034 Z" id="Path" fill="#FFFFFF" fill-rule="nonzero"></path>
                    <path d="M1.50990331e-14,44.4668367 L1.50990331e-14,31.1335034 L6.128125,31.1335034 C8.94375,31.1335034 10.6,33.1335034 10.6,35.4668367 C10.6,37.8001701 8.94375,39.8001701 6.128125,39.8001701 L2.815625,39.8001701 L2.815625,44.4668367 L1.50990331e-14,44.4668367 L1.50990331e-14,44.4668367 Z M7.784375,35.4668367 C7.784375,34.3001701 6.95625,33.6335034 5.796875,33.6335034 L2.815625,33.6335034 L2.815625,37.3001701 L5.796875,37.3001701 C6.95625,37.3001701 7.784375,36.4668367 7.784375,35.4668367 Z" id="Shape" fill="#FFFFFF" fill-rule="nonzero"></path>
                    <path d="M11.759375,39.6335034 C11.759375,36.9668367 13.746875,34.6335034 16.89375,34.6335034 C20.040625,34.6335034 22.028125,36.9668367 22.028125,39.6335034 C22.028125,42.4668367 20.040625,44.6335034 16.89375,44.6335034 C13.58125,44.8001701 11.759375,42.4668367 11.759375,39.6335034 Z M19.2125,39.6335034 C19.2125,38.1335034 18.384375,36.8001701 16.728125,36.8001701 C15.2375,36.8001701 14.24375,38.1335034 14.24375,39.6335034 C14.24375,41.1335034 15.071875,42.4668367 16.728125,42.4668367 C18.384375,42.4668367 19.2125,41.1335034 19.2125,39.6335034 Z" id="Shape" fill="#FFFFFF" fill-rule="nonzero"></path>
                    <polygon id="Path" fill="#FFFFFF" fill-rule="nonzero" points="32.13125 44.4668367 30.14375 37.9668367 28.15625 44.4668367 25.50625 44.4668367 22.525 34.8001701 25.175 34.8001701 26.996875 41.3001701 29.15 34.8001701 31.46875 34.8001701 33.621875 41.3001701 35.44375 34.8001701 37.7625 34.8001701 34.78125 44.4668367"></polygon>
                    <path d="M38.425,39.6335034 C38.425,36.8001701 40.4125,34.6335034 43.39375,34.6335034 C46.209375,34.6335034 48.196875,36.8001701 48.196875,39.9668367 L48.196875,40.4668367 L41.075,40.4668367 C41.240625,41.6335034 42.234375,42.6335034 43.890625,42.6335034 C44.71875,42.6335034 45.878125,42.3001701 46.375,41.6335034 L47.534375,43.3001701 C46.540625,44.1335034 45.05,44.6335034 43.559375,44.6335034 C40.578125,44.8001701 38.425,42.8001701 38.425,39.6335034 Z M43.39375,36.6335034 C41.903125,36.6335034 41.075,37.8001701 41.075,38.8001701 L45.878125,38.8001701 C45.7125,37.8001701 45.05,36.6335034 43.39375,36.6335034 Z" id="Shape" fill="#FFFFFF" fill-rule="nonzero"></path>
                    <path d="M50.01875,44.4668367 L50.01875,34.8001701 L52.503125,34.8001701 L52.503125,36.1335034 C53.165625,35.3001701 54.325,34.6335034 55.484375,34.6335034 L55.484375,37.1335034 C55.31875,37.1335034 54.9875,37.1335034 54.821875,37.1335034 C53.99375,37.1335034 52.834375,37.6335034 52.503125,38.3001701 L52.503125,44.6335034 L50.01875,44.6335034 L50.01875,44.4668367 Z" id="Path" fill="#FFFFFF" fill-rule="nonzero"></path>
                    <path d="M56.478125,39.6335034 C56.478125,36.8001701 58.465625,34.6335034 61.446875,34.6335034 C64.2625,34.6335034 66.25,36.8001701 66.25,39.9668367 L66.25,40.4668367 L59.128125,40.4668367 C59.29375,41.6335034 60.2875,42.6335034 61.94375,42.6335034 C62.771875,42.6335034 63.93125,42.3001701 64.428125,41.6335034 L65.5875,43.3001701 C64.59375,44.1335034 63.103125,44.6335034 61.6125,44.6335034 C58.796875,44.8001701 56.478125,42.8001701 56.478125,39.6335034 Z M61.446875,36.6335034 C59.95625,36.6335034 59.128125,37.8001701 59.128125,38.8001701 L63.93125,38.8001701 C63.765625,37.8001701 63.103125,36.6335034 61.446875,36.6335034 Z" id="Shape" fill="#FFFFFF" fill-rule="nonzero"></path>
                    <path d="M74.696875,44.4668367 L74.696875,43.3001701 C73.86875,44.3001701 72.875,44.8001701 71.715625,44.8001701 C69.23125,44.8001701 67.409375,42.9668367 67.409375,39.8001701 C67.409375,36.6335034 69.23125,34.8001701 71.715625,34.8001701 C72.875,34.8001701 73.86875,35.3001701 74.696875,36.3001701 L74.696875,31.3001701 L77.18125,31.3001701 L77.18125,44.6335034 L74.696875,44.6335034 L74.696875,44.4668367 Z M74.696875,41.3001701 L74.696875,37.8001701 C74.2,37.1335034 73.371875,36.6335034 72.54375,36.6335034 C71.053125,36.6335034 70.059375,37.8001701 70.059375,39.4668367 C70.059375,41.1335034 71.053125,42.3001701 72.54375,42.3001701 C73.371875,42.4668367 74.365625,41.9668367 74.696875,41.3001701 Z" id="Shape" fill="#FFFFFF" fill-rule="nonzero"></path>
                    <path d="M84.8,44.4668367 L84.8,31.1335034 L87.45,31.1335034 L87.45,36.1335034 C88.278125,35.1335034 89.271875,34.6335034 90.43125,34.6335034 C92.915625,34.6335034 94.7375,36.6335034 94.7375,39.6335034 C94.7375,42.8001701 92.915625,44.6335034 90.43125,44.6335034 C89.271875,44.6335034 88.278125,44.1335034 87.45,43.1335034 L87.45,44.3001701 L84.8,44.3001701 L84.8,44.4668367 Z M89.603125,42.4668367 C91.09375,42.4668367 92.0875,41.3001701 92.0875,39.6335034 C92.0875,37.9668367 91.09375,36.8001701 89.603125,36.8001701 C88.775,36.8001701 87.78125,37.3001701 87.45,37.9668367 L87.45,41.4668367 C87.78125,41.9668367 88.775,42.4668367 89.603125,42.4668367 Z" id="Shape" fill="#FFFFFF" fill-rule="nonzero"></path>
                    <path d="M96.559375,45.9668367 C96.725,46.1335034 97.05625,46.1335034 97.3875,46.1335034 C98.05,46.1335034 98.546875,45.9668367 98.7125,45.4668367 L99.04375,44.6335034 L95.06875,34.8001701 L97.71875,34.8001701 L100.203125,41.4668367 L102.6875,34.8001701 L105.3375,34.8001701 L100.865625,45.9668367 C100.36875,47.8001701 99.04375,48.3001701 97.3875,48.4668367 C97.05625,48.4668367 96.39375,48.4668367 96.0625,48.3001701 L96.559375,45.9668367 Z" id="Path" fill="#FFFFFF" fill-rule="nonzero"></path>
                    <path d="M124.66875,19.9732143 L124.66875,59.6335034" id="Path" stroke="#FFFFFF"></path>
                </g>
            </g>
        </g>
    </g>
</svg>