<svg xmlns="http://www.w3.org/2000/svg" width="185" height="27">
  <g fill="none" fill-rule="evenodd">
    <path fill="currentColor" d="M102.397 16.377c.851.897 1.277 2.1 1.277 3.607v2.777c0 .706.036 1.173.109 1.399.055.264.126.47.217.618v.145l-6.713.3a5.995 5.995 0 0 1-.11-.424 7.334 7.334 0 0 1-.054-.971v-1.775c0-.705-.063-1.295-.189-1.768-.128-.47-.336-.842-.626-1.116-.58-.527-1.575-.759-2.99-.696l-6.822.307v6.928L80 26V4.698l15.004-.673c3.352-.15 5.716.384 7.094 1.601.942.854 1.413 2.112 1.413 3.772v.26c0 1.334-.434 2.48-1.304 3.434-.798.877-1.831 1.477-3.099 1.8 1.45.221 2.545.716 3.29 1.485zM86.496 13.54l7.639-.342c.959-.043 1.658-.275 2.092-.696.344-.32.517-.806.517-1.454v-.059c0-.61-.173-1.059-.517-1.35-.454-.362-1.151-.521-2.092-.48l-7.639.344v4.037zm40.378 10.553l-1.621-3.607-10.982.477-1.593 3.746L106 25l9.445-21.618L124.247 3 134 23.783l-7.126.31zm-3.66-8.193l-3.493-7.772-3.41 8.072 6.903-.3zM137 2.535l10.97-.504c4.816-.22 8.321.715 10.516 2.807C160.162 6.472 161 8.695 161 11.503v.864c0 1.846-.303 3.468-.909 4.86-.768 1.767-2.043 3.17-3.826 4.215-2.07 1.21-4.825 1.894-8.268 2.052L137 24V2.535zm6.395 16.007l4.013-.184c2.783-.128 4.727-.862 5.833-2.2.731-.9 1.098-2.128 1.098-3.686v-.173c0-1.539-.367-2.705-1.098-3.499-1.124-1.198-3.067-1.734-5.833-1.607l-4.013.184v11.165z"/>
    <path d="M0 2h23v21H0z"/>
    <path fill="currentColor" d="M15.772 7.923c0-.51-.242-.883-.725-1.118-.712-.352-1.9-.492-3.561-.42-1.659.073-2.847.317-3.56.73-.481.276-.723.67-.723 1.181v.083c0 .492.25.865.75 1.116.677.336 1.855.466 3.533.393 1.696-.074 2.884-.306 3.561-.702.286-.159.478-.335.577-.531.097-.196.148-.412.148-.65v-.082zm.507 8.079c0-.603-.267-1.047-.802-1.334-.733-.388-2.063-.54-3.991-.455-1.945.084-3.266.352-3.962.802-.536.332-.803.801-.803 1.404v.053c0 .548.276.983.83 1.305.696.445 2.008.624 3.935.54 1.928-.084 3.258-.379 3.991-.886.535-.369.802-.828.802-1.375v-.054zm-5.354 6.965c-4.32.188-7.372-.427-9.157-1.845C.589 20.188 0 18.918 0 17.312v-.3c0-.602.121-1.169.362-1.7a4.554 4.554 0 0 1 1.03-1.427c.84-.82 1.91-1.37 3.213-1.645-1.143-.15-2.088-.556-2.837-1.216a3.884 3.884 0 0 1-.924-1.206 3.374 3.374 0 0 1-.335-1.504V8.04c0-.93.197-1.723.59-2.379.589-.993 1.543-1.764 2.864-2.315 1.695-.712 4.016-1.131 6.962-1.26l1.15-.051c2.929-.127 5.257.091 6.989.654 1.375.45 2.338 1.13 2.892 2.036.375.622.563 1.408.563 2.357v.273c0 1.095-.412 2.034-1.232 2.818-.75.727-1.697 1.214-2.838 1.464 1.32.162 2.4.617 3.24 1.365.428.365.754.807.976 1.326.223.519.335 1.08.335 1.681v.301c0 .986-.214 1.853-.642 2.6-.625 1.086-1.652 1.953-3.08 2.599-1.82.808-4.222 1.279-7.203 1.407l-1.15.051zm32.694-1.749l-5.17-6.193-5.221 6.654L26 22l8.102-10.583-7.87-9.34 7.69-.34 4.81 5.808 4.809-6.234L50.562 1l-7.69 10.001L51 20.891zM60.178 27V11.045L52 11.403V6.008L75 5v5.396l-8.178.359v15.954z"/>
    <path d="M165 0h20v22h-20z"/>
    <path fill="currentColor" d="M165 .863L184.834 0v4.858l-13.242.576v3.068l12.824-.557v5.029l-12.824.558v3.266L185 16.215v4.915L165 22z"/>
  </g>
</svg>
