<svg xmlns="http://www.w3.org/2000/svg" xmlns:xlink="http://www.w3.org/1999/xlink" width="130" height="53" viewBox="0 0 130 53">
  <defs>
    <path id="a" d="M0 .11h27.747v52.266H0z"/>
  </defs>
  <g fill="none" fill-rule="evenodd">
    <path fill="currentColor" d="M39.736 42.389L40.069 46H46l-1.997-21h-8.836L24 46h6.046l1.87-3.611h7.82zm-.259-4.09h-5.411l4.653-9.096h.055l.703 9.097zM53.773 36.814h.834l4.096-5.517H64l-5.654 7.06L61.815 46H56.19l-2.26-5.966h-.845L51.816 46H47l4.463-21h4.82zM71.797 46.114h4.883l1.981-9.256c1.089-5.105-.878-5.725-5.878-5.725-3.488 0-6.865-.033-7.856 4.57h4.893c.277-1.332 1.109-1.608 2.33-1.608 2.126 0 2.032.875 1.732 2.254l-.499 2.343h-.227c-.181-1.69-2.317-1.665-3.709-1.665-3.525 0-5.63 1.098-6.397 4.658-.806 3.777 1.005 4.595 4.416 4.595 1.706 0 3.995-.334 4.797-2.372h.17l-.636 2.206zm-1.36-6.123c1.59 0 2.643.11 2.379 1.353-.336 1.55-1.012 1.806-3.059 1.806-.744 0-2.13 0-1.786-1.609.29-1.356 1.266-1.55 2.466-1.55zM86.548 31.298l-.45 2.089h.201c.968-1.748 2.899-2.254 4.573-2.254 2.103 0 4.182.362 3.893 2.904h.232c.711-2.118 2.894-2.904 4.768-2.904 3.441 0 4.901 1.41 4.164 4.856l-2.172 10.125h-4.884l1.835-8.578c.243-1.547.518-2.68-1.387-2.68-1.898 0-2.541 1.263-2.878 2.85l-1.804 8.408h-4.888l1.924-8.972c.235-1.353.343-2.286-1.36-2.286-2.016 0-2.617 1.072-2.989 2.85l-1.808 8.408h-4.884l3.174-14.816h4.74zM112.973 46.114h4.886l1.982-9.256c1.092-5.105-.871-5.725-5.871-5.725-3.5 0-6.879-.033-7.86 4.57h4.893c.277-1.332 1.112-1.608 2.324-1.608 2.136 0 2.031.875 1.746 2.254l-.51 2.343h-.224c-.184-1.69-2.317-1.665-3.709-1.665-3.526 0-5.64 1.098-6.396 4.658-.81 3.777 1.006 4.595 4.415 4.595 1.706 0 3.995-.334 4.8-2.372h.166l-.642 2.206zm-1.352-6.123c1.582 0 2.638.11 2.378 1.353-.329 1.55-1.008 1.806-3.062 1.806-.738 0-2.125 0-1.785-1.609.292-1.356 1.268-1.55 2.47-1.55zM128.638 28.678h-4.88l.787-3.726h4.89l-.797 3.726zm-3.735 17.436h-4.876l3.158-14.816h4.892l-3.174 14.816z"/>
    <g>
      <mask id="b" fill="#fff">
        <use xlink:href="#a"/>
      </mask>
      <path fill="currentColor" d="M26.702 51.224C15.864 47.938 7.986 37.998 7.986 26.244c0-11.881 8.048-21.91 19.068-25.085C28.18.834 27.884.11 26.528.11 11.876.11 0 11.81 0 26.243c0 14.434 11.876 26.134 26.528 26.134 1.356 0 1.412-.778.174-1.153" mask="url(#b)"/>
    </g>
    <path fill="currentColor" d="M13.01 32.363a20.3 20.3 0 0 1-.11-2.124c0-11.46 9.358-20.751 20.901-20.751 10.913 0 14.19 4.84 14.595 4.525.446-.348-3.96-9.938-16.775-9.938-11.543 0-20.9 9.29-20.9 20.75 0 2.647.501 5.177 1.413 7.504.382.977.975.982.877.034"/>
    <path fill="currentColor" d="M21.766 17.41c5.43-2.35 12.257-2.417 18.962-.092 4.503 1.56 7.117 3.788 7.33 3.698.356-.152-2.622-4.831-7.991-6.854a19.237 19.237 0 0 0-18.616 2.804c-.564.439-.351.733.315.444"/>
  </g>
</svg>
