<svg xmlns="http://www.w3.org/2000/svg" xmlns:xlink="http://www.w3.org/1999/xlink" width="74" height="45" viewBox="0 0 74 45">
  <defs>
    <path id="a" d="M0 .073h73.92V17H0z"/>
  </defs>
  <g fill="none" fill-rule="evenodd">
    <path fill="currentColor" d="M62.297 24c-1.282 0-2.565-.153-3.797-.46-1.233-.306-2.195-.638-2.836-1.02-.394-.23-.665-.486-.764-.716a1.857 1.857 0 0 1-.148-.715v-1.302c0-.536.197-.791.567-.791.148 0 .296.025.444.076.148.051.37.154.616.256.839.383 1.75.689 2.712.893.987.205 1.948.307 2.934.307 1.554 0 2.762-.281 3.6-.843.838-.562 1.282-1.379 1.282-2.425 0-.715-.222-1.303-.666-1.788-.443-.485-1.282-.919-2.49-1.327l-3.575-1.15c-1.8-.586-3.131-1.455-3.945-2.604C55.418 9.268 55 8.017 55 6.69c0-1.072.221-2.017.665-2.834a6.5 6.5 0 0 1 1.775-2.093c.74-.588 1.578-1.022 2.565-1.328C60.99.128 62.025 0 63.11 0c.543 0 1.11.026 1.652.102.567.077 1.085.179 1.603.281.493.128.961.255 1.405.408.444.154.79.307 1.036.46.345.204.591.409.74.638.147.205.221.485.221.843v1.2c0 .536-.197.817-.567.817-.197 0-.518-.102-.937-.306-1.405-.664-2.983-.996-4.734-.996-1.405 0-2.514.23-3.279.715-.764.485-1.159 1.225-1.159 2.272 0 .715.247 1.328.74 1.813.493.485 1.405.97 2.712 1.404l3.501 1.149c1.775.587 3.058 1.404 3.822 2.451C70.63 14.298 71 15.498 71 16.826c0 1.097-.222 2.093-.641 2.961-.444.868-1.036 1.634-1.8 2.247-.764.638-1.676 1.098-2.737 1.43-1.11.357-2.268.536-3.525.536zm-31.683-.69c-.444 0-.74-.076-.937-.255-.197-.153-.37-.51-.517-.995L23.365 2.323c-.147-.51-.221-.842-.221-1.02 0-.41.197-.64.591-.64h2.417c.468 0 .789.077.961.256.197.153.345.51.493.996l4.142 16.902 3.847-16.902c.123-.51.27-.843.468-.996.197-.153.543-.255.986-.255h1.973c.468 0 .789.076.986.255.197.153.37.51.468.996l3.896 17.106 4.265-17.106c.148-.51.32-.843.494-.996.197-.153.517-.255.961-.255h2.293c.395 0 .616.204.616.638 0 .128-.024.255-.049.409a3.734 3.734 0 0 1-.172.638l-5.942 19.736c-.148.51-.321.843-.518.996-.197.153-.518.255-.937.255h-2.12c-.469 0-.79-.076-.987-.255-.197-.179-.37-.51-.468-1.021L37.986 5.59 34.19 22.034c-.123.51-.27.843-.468 1.021-.197.179-.543.256-.986.256h-2.12zm-19.798-2.757c.813 0 1.652-.153 2.54-.46.887-.306 1.676-.867 2.342-1.633.394-.486.69-1.022.838-1.634a9.476 9.476 0 0 0 .246-2.222v-1.072a19.956 19.956 0 0 0-2.268-.434 17.95 17.95 0 0 0-2.317-.153c-1.652 0-2.86.332-3.674 1.021-.814.69-1.208 1.66-1.208 2.936 0 1.2.296 2.094.912 2.707.592.638 1.455.944 2.589.944zm10.01-3.88c0 .944.099 1.71.271 2.272.197.561.444 1.174.79 1.838.122.204.172.408.172.587 0 .256-.148.51-.469.766l-1.553 1.073c-.222.153-.444.23-.641.23-.247 0-.493-.128-.74-.358a7.875 7.875 0 0 1-.887-1.2c-.247-.434-.493-.92-.765-1.507-1.923 2.35-4.339 3.524-7.248 3.524-2.071 0-3.723-.613-4.931-1.838C3.616 20.834 3 19.2 3 17.157c0-2.17.74-3.931 2.244-5.26 1.504-1.327 3.5-1.99 6.04-1.99.839 0 1.701.076 2.614.204.912.127 1.849.332 2.835.561V8.81c0-1.94-.394-3.294-1.159-4.086-.789-.791-2.12-1.174-4.019-1.174-.862 0-1.75.102-2.662.332-.913.23-1.8.51-2.663.868a6.92 6.92 0 0 1-.863.332 1.466 1.466 0 0 1-.395.076c-.345 0-.517-.255-.517-.791V3.115c0-.409.049-.715.172-.894.124-.178.345-.357.69-.536.864-.46 1.9-.842 3.107-1.149C9.632.204 10.914.051 12.27.051c2.934 0 5.08.69 6.46 2.068 1.356 1.379 2.047 3.472 2.047 6.281v8.272h.049z"/>
    <g transform="translate(0 28)">
      <mask id="b" fill="#fff">
        <use xlink:href="#a"/>
      </mask>
      <path fill="currentColor" d="M70.197 3.8c-1.032-1.35-6.834-.65-9.465-.325-.787.1-.91-.6-.197-1.125C65.157-.95 72.754 0 73.64 1.1c.885 1.125-.246 8.85-4.573 12.55-.663.575-1.303.275-1.008-.475.984-2.475 3.172-8.05 2.14-9.375m-3.369 3.9C58.741 13.775 46.99 17 36.885 17 22.725 17 9.965 11.675.327 2.825c-.762-.7-.073-1.65.836-1.1C11.587 7.875 24.445 11.6 37.745 11.6c8.974 0 18.832-1.9 27.904-5.8 1.352-.625 2.508.9 1.18 1.9" mask="url(#b)"/>
    </g>
  </g>
</svg>
