<svg xmlns="http://www.w3.org/2000/svg" xmlns:xlink="http://www.w3.org/1999/xlink" width="120" height="37" viewBox="0 0 120 37">
  <defs>
    <path id="a" d="M0 37h119.994V.065H0z"/>
  </defs>
  <g fill="none" fill-rule="evenodd">
    <path fill="currentColor" d="M84.466 9H82l.011 19H92v-2.35h-7.523z"/>
    <g>
      <path fill="currentColor" d="M99.514 13.218c-2.074 0-3.984.73-5.47 1.968l.908 1.58c1.05-.614 2.334-1.226 4.185-1.226 2.11 0 3.041 1.084 3.041 2.898v.931c-.412-.082-1.261-.141-1.78-.141-4.503 0-6.79 1.579-6.79 4.878 0 2.958 1.816 4.443 4.562 4.443 1.851 0 3.631-.849 4.244-2.228l.472 1.874h1.815v-9.804c-.012-3.099-1.356-5.173-5.187-5.173zm2.664 11.607a4.386 4.386 0 0 1-3.182 1.343c-1.957 0-2.747-.966-2.747-2.227 0-1.897 1.32-2.804 4.126-2.804.53 0 1.379.059 1.815.141v3.547h-.012zM114.077 13.224c-2.299 0-3.537 1.567-3.537 1.567v-2.475l-.011-3.276h-2.511l.012 18.677c1.261.53 2.982.813 4.856.813 4.798 0 7.108-3.063 7.108-8.354-.011-4.183-2.145-6.952-5.917-6.952m-1.085 13.032c-.966 0-1.815-.118-2.452-.412v-8.85c.873-.73 1.957-1.26 3.336-1.26 2.488 0 3.442 1.755 3.442 4.595 0 4.03-1.544 5.927-4.326 5.927M56.443 11.115c2.275 0 3.749.754 4.704 1.52l1.108-1.921c-1.497-1.32-3.525-2.027-5.694-2.027-5.47 0-9.3 3.335-9.3 10.063 0 7.047 4.137 9.792 8.864 9.792 2.37 0 4.385-.554 5.705-1.107l-.059-7.53v-2.369h-7.013v2.369h4.479l.059 5.715c-.59.295-1.603.53-2.982.53-3.796 0-6.342-2.392-6.342-7.423-.012-5.126 2.617-7.612 6.471-7.612M74.54 9.034h-2.51l.012 3.217v11.112c0 3.1 1.344 5.173 5.175 5.173.53 0 1.049-.047 1.544-.141v-2.251a7.353 7.353 0 0 1-1.167.082c-2.11 0-3.041-1.084-3.041-2.898v-7.66h4.208v-2.097h-4.208l-.012-4.537z"/>
      <mask id="b" fill="#fff">
        <use xlink:href="#a"/>
      </mask>
      <path fill="currentColor" d="M65.645 28.185h2.51V13.574h-2.51zM65.645 11.559h2.51v-2.51h-2.51zM37.863 21.905l-13.02 9.452.044-.056 11.575-14.828 1.584 4.863a.507.507 0 0 1-.183.57zm-35.768 0a.507.507 0 0 1-.183-.568l1.584-4.865 11.619 14.89-13.02-9.456zm5.96-19.477l3.619 11.116H4.45L8.055 2.428zm17.64 13.001l-3.58 11.013L19.983 33 14.27 15.429h11.424zm6.208-13l3.612 11.115H28.29l3.612-11.116zm-9.367 28.819l4.927-15.156.213-.656h7.202L23.723 29.727l-1.187 1.52zM12.285 15.436l5.139 15.808L5.089 15.436h7.196zm27.555 5.318l-2.096-6.437a.933.933 0 0 0-.052-.174L33.488 1.205a1.674 1.674 0 0 0-1.597-1.14 1.644 1.644 0 0 0-1.577 1.15l-4.006 12.329H13.657L9.643 1.214A1.643 1.643 0 0 0 8.067.064h-.01c-.72 0-1.357.458-1.59 1.151L2.264 14.17c-.004.011-.01.022-.013.033L.118 20.754c-.321.99.028 2.065.868 2.677L19.42 36.82a.94.94 0 0 0 1.115-.006s.002 0 .003-.002L38.972 23.43a2.388 2.388 0 0 0 .868-2.676z" mask="url(#b)"/>
    </g>
  </g>
</svg>
