<svg xmlns="http://www.w3.org/2000/svg" width="126" height="34">
  <path fill="currentColor" fill-rule="evenodd" d="M0 5h5V0H0zm0 21.31h5.146V7.553H0V26.31zM28.94 7.134c3.82 0 6.101 2.685 6.101 6.924v12.254h-5.146V15.148c0-2.014-.87-3.357-2.655-3.357-1.329 0-2.532.84-2.865 2.434V26.31h-5.187V15.148c0-2.014-.83-3.357-2.614-3.357-1.328 0-2.573.84-2.905 2.434V26.31H8.523V7.55h5.146v1.554c.913-1.175 2.614-1.972 4.69-1.972 2.199 0 3.942 1.007 4.98 2.392 1.203-1.343 2.987-2.392 5.602-2.392zM43.495 34h-5.146V7.551h5.146v1.553c.83-1.006 2.657-1.971 4.648-1.971 5.395 0 8.466 4.532 8.466 9.82 0 5.287-3.071 9.777-8.466 9.777-1.992 0-3.818-.966-4.648-1.972V34zm0-13.984a3.896 3.896 0 0 0 3.486 2.182c2.78 0 4.44-2.266 4.44-5.245 0-3.022-1.66-5.288-4.44-5.288-1.537 0-2.863.923-3.486 2.182v6.169zm20.024-1.889c.415 3.064 2.615 4.323 5.354 4.323 2.033 0 3.485-.462 5.311-1.636v4.28c-1.535 1.132-3.61 1.636-6.1 1.636-5.644 0-9.504-3.693-9.504-9.651 0-5.877 3.652-9.946 8.715-9.946 5.395 0 8.176 3.776 8.176 9.315v1.68H63.517h.001zm.166-3.4h7.013c-.124-2.013-1.244-3.44-3.278-3.44-1.701 0-3.154 1.092-3.735 3.44zm25.8-2.055c-.706-.42-1.62-.63-2.574-.63-1.743 0-3.153.923-3.527 2.645v11.624h-5.146V7.55h5.146V9.4c.788-1.343 2.324-2.266 4.15-2.266.872 0 1.66.168 1.95.336v5.203zm7.995 13.639L90.466 7.55h5.395l4.274 12.465 4.192-12.464h5.187L102.46 26.31h-4.98zm23.135-11.709c0-1.804-1.535-2.937-4.15-2.937-1.867 0-3.61.545-5.063 1.51v-4.49c1.329-.84 3.735-1.552 6.185-1.552 5.104 0 8.175 2.644 8.175 7.217v11.96h-5.147v-1.006c-.622.629-2.448 1.342-4.48 1.342-3.736 0-6.849-2.182-6.849-6.085 0-3.567 3.113-6 7.18-6 1.618 0 3.403.545 4.15 1.09v-1.049zm0 5.246c-.456-1.008-1.825-1.637-3.278-1.637-1.618 0-3.278.713-3.278 2.308 0 1.637 1.66 2.309 3.278 2.309 1.453 0 2.822-.63 3.278-1.636v-1.344zm2.445 8.726h-2.573v5.203h5.147v-5.203z"/>
</svg>
