<svg xmlns="http://www.w3.org/2000/svg" xmlns:xlink="http://www.w3.org/1999/xlink" width="135" height="30" viewBox="0 0 135 30">
  <defs>
    <path id="a" d="M0 0h135v30H0z"/>
  </defs>
  <g fill="none" fill-rule="evenodd">
    <mask id="b" fill="#fff">
      <use xlink:href="#a"/>
    </mask>
    <path fill="currentColor" d="M19.423 1.555a3.084 3.084 0 0 0-5.358 0l-4.41 7.683 1.125.65c6.281 3.653 10.323 10.23 10.762 17.514h-3.096a18.658 18.658 0 0 0-9.225-14.831l-1.125-.647-4.109 7.185 1.125.65a10.491 10.491 0 0 1 5.054 7.643H3.094a.512.512 0 0 1-.45-.771l1.971-3.433a7.159 7.159 0 0 0-2.25-1.292l-1.95 3.426a3.121 3.121 0 0 0 1.134 4.25 3.08 3.08 0 0 0 1.545.416h9.731V28.7a12.958 12.958 0 0 0-5.341-10.498l1.548-2.697a16.078 16.078 0 0 1 6.876 13.184v1.299h8.246v-1.297c-.007-8.223-4.14-15.886-10.989-20.377l3.13-5.46a.51.51 0 0 1 .884 0L30.828 26.63a.515.515 0 0 1-.45.771h-3.193c.04.867.045 1.734 0 2.598h3.204a3.103 3.103 0 0 0 3.094-3.112c0-.545-.143-1.081-.414-1.554L19.423 1.555zm87.413 13.652V8.593h4.86c2.536 0 3.992 1.201 3.992 3.295 0 2.016-1.557 3.32-3.965 3.32h-4.887zm7.425 1.702c2.62-.726 4.05-2.573 4.05-5.205 0-3.344-2.439-5.43-6.363-5.43h-7.677v17.424h2.577v-6.26h4.37l4.396 6.273h3.008l-4.748-6.693.387-.109zM88.267 8.645h5.677V23.71h2.603V8.645h5.677v-2.36h-13.95l-.007 2.36zm43.82-2.358l-5.219 8.217-5.175-8.217h-3.021l6.864 10.532v6.895h2.601v-6.975L135 6.287h-2.914zm-84.13 7.551c-3.503-.842-4.461-1.514-4.461-3.132 0-1.461 1.284-2.446 3.2-2.446 1.595 0 3.165.568 4.792 1.736l1.363-1.933c-1.8-1.387-3.746-2.036-6.104-2.036-3.431 0-5.825 2.036-5.825 4.96 0 3.132 2.025 4.216 5.737 5.121 3.265.758 4.26 1.47 4.26 3.055 0 1.584-1.35 2.575-3.454 2.575-2.041 0-3.783-.679-5.625-2.222l-1.528 1.828a10.724 10.724 0 0 0 7.067 2.625c3.71 0 6.107-2.007 6.107-5.114-.005-2.636-1.555-4.046-5.537-5.017h.009zm10.54 2.213h8.964v-2.263h-8.973V8.543h10.125V6.28H55.91v17.425h12.826v-2.263h-10.25l.01-5.39zm25.2 3.23L73.687 6.285h-2.491v17.424h2.524V10.358l10.292 13.351h2.21V6.285h-2.525V19.28z" mask="url(#b)"/>
  </g>
</svg>
