<svg width="33" height="40" xmlns="http://www.w3.org/2000/svg" xmlns:xlink="http://www.w3.org/1999/xlink"><defs><path id="a" d="M0 .042h32.95V30H0z"/></defs><g fill="none" fill-rule="evenodd"><path d="M18.779 3.394C21.362.017 24.954 0 24.954 0s.534 3.176-2.032 6.235c-2.74 3.267-5.855 2.733-5.855 2.733s-.585-2.57 1.712-5.574" fill="#F1162F"/><g transform="translate(0 10)"><mask id="b" fill="#fff"><use xlink:href="#a"/></mask><path d="M16.758 1.875c1.366 0 3.902-1.833 7.202-1.833 5.681 0 7.916 3.945 7.916 3.945s-4.37 2.18-4.37 7.473c0 5.97 5.444 8.027 5.444 8.027s-3.806 10.455-8.948 10.455c-2.361 0-4.197-1.553-6.685-1.553-2.536 0-5.052 1.611-6.69 1.611C5.93 30 0 20.082 0 12.11 0 4.267 5.02.152 9.73.152c3.06 0 5.436 1.723 7.028 1.723" fill="#F1162F" mask="url(#b)"/></g></g></svg>