<svg width="36" height="30" xmlns="http://www.w3.org/2000/svg" xmlns:xlink="http://www.w3.org/1999/xlink"><defs><path id="a" d="M0 .939h35.572v30.06H0z"/></defs><g fill="none" fill-rule="evenodd"><path d="M9.918 20.56l-.833.834.688.689.833-.834c.24-.24.26-.512.041-.73-.19-.19-.48-.207-.729.042M15.316 15.516l.942-.942-1.77-.829zM11.569 16.51l-.68.68.816.815.679-.68c.254-.254.295-.602.036-.86-.25-.25-.597-.21-.851.045M9.36 19.351c-.185-.186-.451-.18-.67.036l-.805.807.634.634.806-.807c.218-.217.23-.475.036-.67M22.644 7.319c-.53-.53-1.268-.616-1.884 0l-.553.553 1.889 1.888.548-.548c.598-.598.516-1.377 0-1.893" fill="#F1162F"/><g transform="translate(0 -.94)"><mask id="b" fill="#fff"><use xlink:href="#a"/></mask><path d="M33.163 7.171c1.814 2.56 1.274 6.083-1.204 7.854-1.454 1.04-3.489 1.292-5.117.631l2.202-2.202a3.415 3.415 0 0 0 .998-2.544l-.228-6.005c.118.028.236.056.353.092a5.727 5.727 0 0 1 2.996 2.174zm-11.144 4.737l-3.021-3.02 1.191-1.192c.947-.947 2.206-1 3.112-.095.915.915.856 2.17-.086 3.111l-1.196 1.196zm2.778-8.828a2.14 2.14 0 0 1 3.306.35c-.074.003-.149-.004-.223.002-.222.021-.441.07-.664.095-1.093.125-2.467 1.027-2.467 1.027-.285.19.42 1.383.543 1.254 0 0 .057-.048.087-.069a5.334 5.334 0 0 1 2.895-.986c.053-.002.106.001.159 0a2.118 2.118 0 0 1-.611 1.352 2.138 2.138 0 1 1-3.025-3.025zm-6.316 6.491l2.938 2.937-.621.621-2.842-.442-.568-.088.499.498 1.471 1.472-.643.643-1.014-1.014-2.007-2.007.662-.66 1.75.263 1.547.234-1.357-1.357-.541-.54.643-.644.083.084zm-.778 6.653l-.319-.146-.383-.176-1.295 1.296.321.702-.729.73-1.857-4.186.806-.806 3.302 1.465.883.392-.729.73zm-3.294 3.294l-1.667-.48-.471.472 1.073 1.073-.643.643-3.021-3.02 1.413-1.414c.63-.629 1.431-.607 1.993-.045.53.53.48 1.16.231 1.562l1.835.467-.743.742zm-3.073 3.073l-1.64 1.64-3.021-3.02 1.59-1.59c.575-.576 1.236-.504 1.64-.1.375.376.398.87.172 1.213.376-.276.942-.217 1.318.16.457.456.521 1.118-.059 1.697zM29.912 3.55c-.093-.019-.188-.02-.281-.037a3.407 3.407 0 0 0-3.162-2.409L20.065.94c-.043 0-.086.003-.13.004a3.41 3.41 0 0 0-2.372.995L.499 19.002a1.706 1.706 0 0 0 0 2.411L9.587 30.5a1.704 1.704 0 0 0 2.411 0l8.947-8.946 4.878-4.879c2.19 1.046 4.833.926 6.91-.558 3.079-2.199 3.76-6.562 1.52-9.724a7.055 7.055 0 0 0-4.341-2.844z" fill="#F1162F" mask="url(#b)"/></g></g></svg>