<svg width="33" height="38" xmlns="http://www.w3.org/2000/svg" xmlns:xlink="http://www.w3.org/1999/xlink"><defs><path id="a" d="M.02.1h20.929v11.872H.019z"/></defs><g fill="none" fill-rule="evenodd"><path d="M2.5 12C1.108 12 0 13.006 0 14.27v9.46C0 24.993 1.108 26 2.5 26S5 24.994 5 23.73v-9.46C5 13.007 3.892 12 2.5 12M30.5 12c-1.392 0-2.5 1.006-2.5 2.27v9.46c0 1.264 1.108 2.27 2.5 2.27s2.5-1.006 2.5-2.27v-9.46c0-1.264-1.108-2.27-2.5-2.27M6 28.036c0 1.39 1.132 2.508 2.538 2.508h1.684v5.13c0 1.295 1.044 2.326 2.355 2.326s2.355-1.03 2.355-2.326v-5.13h3.136v5.13c0 1.295 1.044 2.326 2.355 2.326s2.355-1.03 2.355-2.326v-5.13h1.684c1.406 0 2.538-1.118 2.538-2.508V13H6v15.036z" fill="#F1162F"/><g transform="translate(6)"><mask id="b" fill="#fff"><use xlink:href="#a"/></mask><path d="M15.314 8.147a.878.878 0 0 1-.873-.871c0-.477.395-.872.873-.872s.873.395.873.872a.878.878 0 0 1-.873.871m-9.66 0a.878.878 0 0 1-.873-.871c0-.477.395-.872.873-.872s.873.395.873.872a.878.878 0 0 1-.873.871m9.962-4.57L17.269.594a.323.323 0 0 0-.13-.452.329.329 0 0 0-.453.13l-1.674 3.013a11.17 11.17 0 0 0-4.528-.947c-1.622 0-3.158.34-4.528.947L4.281.272a.329.329 0 0 0-.452-.13.323.323 0 0 0-.13.453l1.653 2.981C2.172 5.23.024 8.37.02 11.972h20.93c-.005-3.603-2.153-6.743-5.333-8.396" fill="#F1162F" mask="url(#b)"/></g></g></svg>