<svg width="34" height="27" xmlns="http://www.w3.org/2000/svg" xmlns:xlink="http://www.w3.org/1999/xlink"><defs><path id="a" d="M.4.401h28.585V19H.4z"/></defs><g fill="none" fill-rule="evenodd"><path d="M17.066 0C21.501 0 25.451 2.074 28 5.306l-3.584 2.326a9.675 9.675 0 0 0-16.393 2.85h3.913L5.968 19 0 10.482h3.577C5.108 4.457 10.567 0 17.067 0" fill="#F1162F"/><g transform="translate(5 8)"><mask id="b" fill="#fff"><use xlink:href="#a"/></mask><path d="M11.562 19C7.035 19 3.002 16.97.4 13.807l3.658-2.278c1.811 2.03 4.5 3.315 7.504 3.315 4.217 0 7.817-2.536 9.232-6.104H16.8L22.892.401l6.093 8.339h-3.652C23.771 14.637 18.198 19 11.562 19" fill="#F1162F" mask="url(#b)"/></g></g></svg>