<svg width="36" height="36" xmlns="http://www.w3.org/2000/svg" xmlns:xlink="http://www.w3.org/1999/xlink"><defs><path id="a" d="M0 0h35.78v35.212H0z"/></defs><g fill="none" fill-rule="evenodd"><mask id="b" fill="#fff"><use xlink:href="#a"/></mask><path d="M13.149 9.086l-1.956 2.244c1.627 3.045 1.595 5.631.79 7.138l1.592 1.388 1.857 1.618c2.042-1.479 4.572-1.288 6.915-.423l1.956-2.245-11.155-9.72zm-1.78 10.08l1.747 1.52 1.745 1.521-8.088 11.42c-3.771 4.114-9.17-.59-5.608-4.889l10.204-9.573zm22.909-6.548c.345 1.706.41 3.38-1.465 4.825 3.047-.154 3.029-2.934 1.465-4.825zm-1.316-2.275s1.935 1.663 2.627 3.835c.488 1.527.032 3.088-1.231 3.464-2.852.848-5.326-1.55-3.158-3.796 1.067-1.105 1.5-2.449 1.762-3.503zM21.232 0s-2.767.486-2.68 2.454c.066 1.461 3.419 4.273 4.922 6.523 2.556 9.021 8.995 4.16 9.177.973L21.232 0zm6.744 14.993l-2.841 3.26-11.42-9.95 4.012-4.606c.223.443.534.864.796 1.201.628.803 1.337 1.56 2.018 2.32.645.714 1.328 1.473 1.872 2.271.453 1.566 1.183 3.293 2.41 4.405.881.8 1.965 1.214 3.152 1.1z" fill="#F1162F" mask="url(#b)"/></g></svg>