<svg width="34" height="35" xmlns="http://www.w3.org/2000/svg"><g fill="#F1162F" fill-rule="evenodd"><path d="M16.003 2.792C21.993 1.812 27.995.89 33.996 0c.004 5.62 0 11.237.004 16.858-5.998.024-11.996.122-17.997.142-.004-4.739-.004-9.473 0-14.208zM0 4.986C4.983 4.244 9.987 3.604 14.992 3c.004 4.649.004 9.293.008 13.942-5-.004-10 .069-15 .057V4.986zM0 18.002c4.998-.016 9.995.06 14.993.053 0 4.648.013 9.297.004 13.945-4.993-.711-9.995-1.334-14.997-1.985V18.002zM16 18h17.997c.007 5.665 0 11.33 0 17-5.983-.97-11.977-1.87-17.97-2.748-.008-4.75-.02-9.499-.027-14.252"/></g></svg>