<?xml version="1.0" encoding="UTF-8"?>
<svg width="41px" height="62px" viewBox="0 0 41 62" version="1.1" xmlns="http://www.w3.org/2000/svg" xmlns:xlink="http://www.w3.org/1999/xlink">
    <!-- Generator: Sketch 57.1 (83088) - https://sketch.com -->
    <title>Group 19</title>
    <desc>Created with Sketch.</desc>
    <g id="Quad_Code_web" stroke="none" stroke-width="1" fill="none" fill-rule="evenodd" stroke-linecap="round" stroke-linejoin="round">
        <g id="Main" transform="translate(-904.000000, -1226.000000)" stroke="#F1162F">
            <g id="Group-4" transform="translate(197.000000, 1222.000000)">
                <g id="Group-19" transform="translate(709.000000, 5.000000)">
                    <path d="M10.585,43.2343 C10.585,46.1593 8.216,48.5273 5.292,48.5273 C2.37,48.5273 0,46.1593 0,43.2343 C0,40.3113 2.37,37.9433 5.292,37.9433 C8.216,37.9433 10.585,40.3113 10.585,43.2343 Z" id="Stroke-1" stroke-width="3"></path>
                    <path d="M5.292,52.2285 L5.292,59.9995" id="Stroke-3" stroke-width="2"></path>
                    <path d="M5.292,0 L5.292,34.243" id="Stroke-5" stroke-width="2"></path>
                    <path d="M13.3457,21.1836 C13.3457,18.2586 15.7147,15.8906 18.6387,15.8906 C21.5617,15.8906 23.9307,18.2586 23.9307,21.1836 C23.9307,24.1066 21.5617,26.4746 18.6387,26.4746 C15.7147,26.4746 13.3457,24.1066 13.3457,21.1836 Z" id="Stroke-7" stroke-width="3"></path>
                    <path d="M18.6387,12.1904 L18.6387,0.0004" id="Stroke-9" stroke-width="2"></path>
                    <path d="M18.6387,60 L18.6387,30.176" id="Stroke-11" stroke-width="2"></path>
                    <path d="M26.6915,33.331 C26.6915,30.406 29.0605,28.038 31.9845,28.038 C34.9065,28.038 37.2765,30.406 37.2765,33.331 C37.2765,36.254 34.9065,38.622 31.9845,38.622 C29.0605,38.622 26.6915,36.254 26.6915,33.331 Z" id="Stroke-13" stroke-width="3"></path>
                    <path d="M31.9844,24.3379 L31.9844,-0.0001" id="Stroke-15" stroke-width="2"></path>
                    <path d="M31.9844,60 L31.9844,42.322" id="Stroke-17" stroke-width="2"></path>
                </g>
            </g>
        </g>
    </g>
</svg>