<?xml version="1.0" encoding="UTF-8"?>
<svg width="63px" height="63px" viewBox="0 0 63 63" version="1.1" xmlns="http://www.w3.org/2000/svg" xmlns:xlink="http://www.w3.org/1999/xlink">
    <!-- Generator: Sketch 57.1 (83088) - https://sketch.com -->
    <title>Group 7</title>
    <desc>Created with Sketch.</desc>
    <g id="Quad_Code_web" stroke="none" stroke-width="1" fill="none" fill-rule="evenodd">
        <g id="Main" transform="translate(-197.000000, -1227.000000)">
            <g id="Group-4" transform="translate(197.000000, 1222.000000)">
                <g id="Group-7" transform="translate(0.000000, 5.000000)">
                    <polygon id="Fill-1" stroke="#F1162F" stroke-width="3" points="34.4969091 52.059826 41.0919198 45.2912625 55.4239744 60 60 55.3035527 45.6684096 40.5943387 52.2634202 33.8257752 22 21"></polygon>
                    <g id="Group-6" fill="#F1162F">
                        <path d="M22.2967025,14.1094937 C26.2561329,14.1094937 29.5707532,16.9251266 30.3425886,20.659557 L33.5580949,21.9873418 C33.3792342,15.9197468 28.4075886,11.0551899 22.2967025,11.0551899 C16.072462,11.0551899 11.0261962,16.1008861 11.0261962,22.3251266 C11.0261962,28.4502532 15.9129684,33.430443 21.9999304,33.5882278 L20.6749937,30.3801266 C16.9183481,29.6248101 14.0805,26.3005063 14.0805,22.3251266 C14.0805,17.7949367 17.765943,14.1094937 22.2967025,14.1094937" id="Fill-2"></path>
                        <path d="M3.05436076,22.3251835 C3.05436076,11.7148671 11.6863861,3.08341139 22.2967025,3.08341139 C32.9064494,3.08341139 41.5384747,11.7148671 41.5384747,22.3251835 C41.5384747,23.3003734 41.4644241,24.2579051 41.3237278,25.1937911 L44.2168291,26.3888544 C44.4594873,25.0707532 44.5933481,23.7139177 44.5933481,22.3251835 C44.5933481,10.0117025 34.6101835,0.0291075949 22.2967025,0.0291075949 C9.9826519,0.0291075949 5.69620253e-05,10.0117025 5.69620253e-05,22.3251835 C5.69620253e-05,34.6392342 9.9826519,44.6218291 22.2967025,44.6218291 C23.698538,44.6218291 25.0679051,44.4862595 26.3979684,44.2390443 L25.2040443,41.3482215 C24.2556266,41.4923354 23.2844241,41.5675253 22.2967025,41.5675253 C11.6863861,41.5675253 3.05436076,32.9355 3.05436076,22.3251835 Z" id="Fill-4"></path>
                    </g>
                </g>
            </g>
        </g>
    </g>
</svg>