<svg version="1" xmlns="http://www.w3.org/2000/svg" width="448" height="448" viewBox="0 0 336.000000 336.000000"><path d="M194.6 4.9c-18.5 6.6-75.6 30.7-75.6 32 0 1.6 1.8 4 46.5 61.6 19.7 25.3 41.6 53.7 48.9 63.2 7.5 10 14 17.5 15.3 17.9 3 .8 81.7-32.7 85.6-36.5 5.2-5.1 3.9-10.5-5-20.8-1.6-1.7-10.4-12.6-19.7-24.1l-16.9-21-4.1 1.4c-2.3.8-5.4 2.1-7.1 2.8-1.6.7-8.3 3.5-14.7 6.2C240 90.8 236 93 236 94c0 .8 5.2 8 11.6 16 13.3 16.6 14.1 17.9 12.4 20.9-2.1 4-10 5-13.8 1.9-.7-.6-11.1-13.6-23-28.7-21.4-27.3-36-45.8-40.7-51.6-2.7-3.3-3.2-7.6-1.2-9.4 2.3-1.9 7.5-2.4 10.7-1.1 1.6.7 4.8 3.7 7.2 6.9 2.3 3.1 4.7 6.1 5.3 6.7.5.6 5.5 6.8 10.9 13.8C220.9 76.3 225.6 82 226 82c1.3 0 36.3-14.9 37.2-15.8.6-.6-1.6-4.1-5.4-8.8-3.5-4.4-14-17.4-23.3-28.9-9.3-11.6-17.6-21.6-18.5-22.3-5-4.2-12-4.6-21.4-1.3z"/><path d="M66.5 57c-48 19.7-46.3 18.9-49 22.2-1.4 1.6-2.5 4.2-2.5 5.8 0 3.1.4 3.7 29.5 43 71 96.1 68.4 92.7 72.8 94.5 4.7 1.9 11.9 1.9 16 .1 1.8-.8 11.9-5.2 22.6-9.7l19.4-8.2 2.9 3.4c4.3 5.1 5 6.5 3.5 7.6-2.8 2.2-49.2 21.4-53.4 22.2-10 1.9-21.3-1.1-27.1-7.2-1.7-1.8-6-7.3-9.6-12.2-3.6-5-7.4-10.1-8.3-11.4-1-1.3-7.3-9.9-14-19s-12.6-17.1-13-17.6c-.5-.6-5.1-6.9-10.3-14-5.2-7.2-9.7-13.2-10-13.5-.3-.3-3-3.9-5.9-8-3-4.1-9.5-13.1-14.5-20S5.7 100.9 4.7 99c-1.7-3.4-1.8-2.6-1.6 41 .1 33.2.5 45.3 1.4 47.6.7 1.7 7.7 12.1 15.6 23 7.8 11 15.2 21.3 16.3 22.9 3.2 4.6 47 65.9 47.9 67 .4.5 4.6 6.4 9.3 13 10.3 14.5 12.5 16.9 18.3 19.7 3.4 1.6 6.4 2.2 12.5 2.2l8.1.1 31-13.7c17.1-7.5 40.9-18 53-23.3 12.1-5.3 25.3-11.2 29.3-13.1 4-1.9 7.4-3.4 7.7-3.4.2 0 2.8-1.1 5.7-2.4 2.9-1.4 13.6-6.2 23.8-10.6 42.7-18.8 43.5-19.2 46.6-24.5 2.4-4.2 2.6-5.2 2.3-15.8-.1-6.1-.2-27.3-.2-47 0-19.6-.1-35.7-.3-35.7-.2 0-1 1.3-1.8 2.8-.8 1.6-3.2 4-5.3 5.3-5.5 3.6-98.2 43.1-99.8 42.5-1-.4-9-10.3-24.5-30.6-4.3-5.7-34.6-45-44.3-57.4-5-6.6-12.3-16.1-16.2-21.1-31.3-40.9-35.1-45.6-36.5-45.4-.3 0-16.7 6.7-36.5 14.9zm20.8 30.8c1 .9 8.4 10.2 16.3 20.7 7.9 10.4 22 29 31.3 41.2 9.3 12.3 17.1 23.1 17.3 24.1 1 3.5-3.7 7.2-9.1 7.2-2 0-4.1-1-6-2.8-4.1-3.7-64.1-83.8-64.6-86-1.1-5.9 9.6-9.1 14.8-4.4z"/></svg>