<?xml version="1.0" encoding="UTF-8"?>
<svg width="55px" height="55px" viewBox="0 0 55 55" version="1.1" xmlns="http://www.w3.org/2000/svg" xmlns:xlink="http://www.w3.org/1999/xlink">
    <!-- Generator: Sketch 57.1 (83088) - https://sketch.com -->
    <title>Group 3</title>
    <desc>Created with Sketch.</desc>
    <defs>
        <polygon id="path-1" points="0 0 55 0 55 55 0 55"></polygon>
    </defs>
    <g id="Quad_Code_web" stroke="none" stroke-width="1" fill="none" fill-rule="evenodd">
        <g id="Main" transform="translate(-550.000000, -1227.000000)">
            <g id="Group-4" transform="translate(197.000000, 1222.000000)">
                <g id="Group-3" transform="translate(353.000000, 5.000000)">
                    <mask id="mask-2" fill="white">
                        <use xlink:href="#path-1"></use>
                    </mask>
                    <g id="Clip-2"></g>
                    <path d="M18.6582034,11.7725199 C18.6582034,10.9385182 19.3405684,10.2547747 20.1759487,10.2547747 C21.0099504,10.2547747 21.6923154,10.9385182 21.6923154,11.7725199 C21.6923154,12.6065216 21.0113289,13.2902652 20.1745702,13.2888887 C19.3405684,13.2888887 18.6582034,12.6065216 18.6582034,11.7725199 L18.6582034,11.7725199 Z M36.3417966,11.7738984 C36.3417966,10.9385182 35.6608101,10.2547747 34.8254298,10.2547747 C33.9900496,10.2561532 33.3090631,10.9385182 33.3090631,11.7738984 C33.3090631,12.6079001 33.9900496,13.2902652 34.8254298,13.2902652 C35.6608101,13.2902652 36.3417966,12.6079001 36.3417966,11.7738984 L36.3417966,11.7738984 Z M25.9822547,18.8525741 C25.9822547,18.0185724 26.6646198,17.3362073 27.4986215,17.3362073 C28.3340017,17.3362073 29.0177453,18.0185724 29.0163688,18.8539526 C29.0177453,19.6865758 28.3340017,20.3689408 27.4986215,20.3703193 C26.6646198,20.3689408 25.9836333,19.6879543 25.9822547,18.8525741 L25.9822547,18.8525741 Z M11.7725199,36.3417966 C10.9385182,36.3417966 10.2561532,35.6594316 10.2561532,34.8254298 C10.2561532,33.9914281 10.9385182,33.3076846 11.7725199,33.309061 C12.6065216,33.3076846 13.2888867,33.9900496 13.2888867,34.8254298 C13.2888867,35.6594316 12.6065216,36.3417966 11.7725199,36.3417966 L11.7725199,36.3417966 Z M11.7725199,18.6582034 C10.9385182,18.6582034 10.2561532,19.3405684 10.2561532,20.1759487 C10.2561532,21.0099504 10.9385182,21.690939 11.7725199,21.690939 C12.6079001,21.6923154 13.2888887,21.0099504 13.2888887,20.1759487 C13.2902652,19.3405684 12.6079001,18.6582034 11.7725199,18.6582034 L11.7725199,18.6582034 Z M18.8539526,29.0191238 C18.0185724,29.0191238 17.3362073,28.3367587 17.3362073,27.5013785 C17.3362073,26.6673768 18.0185724,25.9836333 18.8539526,25.9836333 C19.6879543,25.9836333 20.3703193,26.6673768 20.3716978,27.5013785 C20.3703193,28.3367587 19.6879543,29.0177453 18.8539526,29.0191238 L18.8539526,29.0191238 Z M18.6582034,43.2274801 C18.6582034,44.0628603 19.3405684,44.7452253 20.1759487,44.7452253 C21.0099504,44.7452253 21.6923154,44.0628603 21.6923154,43.2274801 C21.6923154,42.3934784 21.0113289,41.7111133 20.1745702,41.7124898 C19.3405684,41.7111133 18.6582034,42.3934784 18.6582034,43.2274801 L18.6582034,43.2274801 Z M36.3417966,43.2274801 C36.3417966,44.0628603 35.6608101,44.7452253 34.8254298,44.7452253 C33.9900496,44.7438468 33.3090631,44.0628603 33.3090631,43.2274801 C33.3090631,42.3920999 33.9914281,41.7111133 34.8254298,41.7111133 C35.6608101,41.7111133 36.3417966,42.3934784 36.3417966,43.2274801 L36.3417966,43.2274801 Z M25.9822547,36.1474259 C25.9822547,36.9814276 26.6646198,37.6637927 27.4986215,37.6637927 C28.3340017,37.6637927 29.0177453,36.9814276 29.0163688,36.1474259 C29.0163688,35.3134242 28.3340017,34.6296807 27.4986215,34.6296807 C26.6646198,34.6296807 25.9836333,35.3134242 25.9822547,36.1474259 L25.9822547,36.1474259 Z M43.2274801,36.3417966 C44.0628603,36.3404181 44.7452253,35.6594316 44.7452253,34.8254298 C44.7452253,33.9914281 44.0628603,33.3076846 43.2274801,33.309061 C42.3934784,33.3076846 41.7111133,33.9900496 41.7124898,34.8268084 C41.7111133,35.6594316 42.3934784,36.3417966 43.2274801,36.3417966 L43.2274801,36.3417966 Z M43.2274801,18.6582034 C44.0628603,18.6582034 44.7452253,19.3405684 44.7438489,20.1759487 C44.7438489,21.0099504 44.0628603,21.690939 43.2274801,21.690939 C42.3920999,21.6923154 41.7111133,21.0099504 41.7111133,20.1759487 C41.7111133,19.3405684 42.3920999,18.6582034 43.2274801,18.6582034 L43.2274801,18.6582034 Z M36.1474259,29.0191238 C36.9814276,29.0191238 37.6637927,28.3367587 37.6637927,27.5013785 C37.6637927,26.6673768 36.9828062,25.9836333 36.1474259,25.9836333 C35.3134242,25.9836333 34.6296807,26.6673768 34.6310571,27.5013785 C34.6296807,28.3367587 35.3134242,29.0177453 36.1474259,29.0191238 L36.1474259,29.0191238 Z M23.376861,0.00137851521 L31.6245175,0.00137851521 L31.6245175,3.5248634 L28.5683493,3.5248634 L28.5669708,15.358038 C30.0626598,15.8170836 31.1530653,17.212141 31.1544438,18.8553311 C31.1530653,20.8665848 29.5126322,22.5083964 27.4986215,22.5083964 C25.4859893,22.5083964 23.8441777,20.8665848 23.8441777,18.8525741 C23.8427991,17.2093839 24.9359617,15.8143265 26.4330292,15.3566595 L26.4330292,3.5248634 L23.376861,3.5248634 L23.376861,0.00137851521 Z M51.4765151,19.1075994 L51.4765151,3.5248634 L35.8924006,3.5248634 L35.8924006,8.27660534 C37.3880896,8.73565091 38.4812522,10.1307083 38.4798737,11.7738984 C38.4798737,13.7865307 36.8394406,15.4283423 34.8254298,15.4283423 C32.8127976,15.4283423 31.170986,13.7865307 31.1696075,11.7725199 C31.1696075,10.1307083 32.2627701,8.73427239 33.7584591,8.27660534 L33.7584591,0 L35.8937791,0 L35.8937791,0.00137851521 L55,0.00137851521 L55,21.2429194 L46.7247732,21.2429194 C46.2657276,22.7386085 44.8706702,23.8303925 43.2274801,23.8303925 C41.2134693,23.8303925 39.5716577,22.1885809 39.5716577,20.1759487 C39.5716577,18.1619379 41.2134693,16.5187478 43.2274801,16.5187478 C44.8692917,16.5187478 46.2643491,17.6119104 46.7220161,19.1075994 L51.4765151,19.1075994 Z M51.4765151,31.6217605 L51.4765151,28.5683493 L39.644719,28.5683493 C39.187052,30.0626598 37.7906161,31.1585794 36.1488045,31.1585794 C34.1347937,31.1585794 32.4916036,29.5153892 32.4916036,27.5013785 C32.4916036,25.4887463 34.1334152,23.8469347 36.1474259,23.8469347 C37.7892376,23.8469347 39.184295,24.9400972 39.6433405,26.4344077 L51.4765151,26.4344077 L51.4765151,23.376861 L55,23.376861 L55,31.623139 L51.4765151,31.6217605 Z M35.8937791,51.4778936 L51.4765151,51.4778936 L51.4765151,35.8910221 L46.7247732,35.8910221 C46.2657276,37.3867111 44.8706702,38.4798737 43.2288586,38.4798737 C41.2148479,38.4798737 39.5730362,36.8394406 39.5716577,34.8268084 C39.5730362,32.8127976 41.2148479,31.1696075 43.2274801,31.168229 C44.8706702,31.1696075 46.2657276,32.2627701 46.7247732,33.7570806 L55,33.7570806 L55,55 L33.7584591,55 L33.7584591,55 L33.7584591,46.7233947 C32.2627701,46.2657276 31.1696075,44.8692917 31.1696075,43.2274801 C31.170986,41.2134693 32.8127976,39.5716577 34.8254298,39.5716577 C36.8394406,39.5730362 38.4798737,41.2120908 38.4798737,43.2274801 C38.4812522,44.8692917 37.3880896,46.2643491 35.8937791,46.7233947 L35.8937791,51.4778936 Z M23.376861,51.4778936 L26.4330292,51.4778936 L26.4330292,39.644719 C24.9359617,39.187052 23.8427991,37.7906161 23.8441777,36.1488045 C23.8441777,34.1347937 25.4859893,32.4916036 27.4986215,32.4916036 C29.5126322,32.4916036 31.1530653,34.1347937 31.1544438,36.1474259 C31.1530653,37.7892376 30.0612813,39.184295 28.5669708,39.6433405 L28.5683493,51.4778936 L31.6245175,51.4778936 L31.6245175,55 L23.376861,55 L23.376861,51.4778936 Z M3.52348489,35.8910221 L3.52348489,51.4765151 L19.1089779,51.4778936 L19.1089779,46.7247732 C17.6132889,46.2657276 16.5201263,44.8720487 16.5201263,43.2288586 C16.5187478,41.2148479 18.1605594,39.5730362 20.1759487,39.5716577 C22.1885809,39.5730362 23.8303925,41.2148479 23.831771,43.2274801 C23.8303925,44.8692917 22.7386085,46.2657276 21.244298,46.7233947 L21.2429194,51.4778936 L21.244298,55 L21.2429194,55 L0,55 L0,33.755702 L8.27660534,33.7570806 C8.73427239,32.2627701 10.1307083,31.1696075 11.7725199,31.1696075 C13.7865307,31.1696075 15.4283423,32.8127976 15.4283423,34.8254298 C15.4269638,36.8394406 13.7865307,38.4812522 11.7711414,38.4798737 C10.1307083,38.4798737 8.73427239,37.3867111 8.27660534,35.8910221 L3.52348489,35.8910221 Z M3.52348489,23.376861 L3.52348489,26.4330292 L15.3566595,26.4344077 C15.8170836,24.9400972 17.212141,23.8469347 18.8539526,23.8469347 C20.8665848,23.8469347 22.5083964,25.4887463 22.5083964,27.5013785 C22.5083964,29.5153892 20.8665848,31.1585794 18.8539526,31.1558223 C17.2107624,31.1585794 15.8143265,30.0654168 15.3566595,28.5683493 L3.52348489,28.5683493 L3.52348489,31.6217605 L0,31.623139 L0.00137851521,23.376861 L3.52348489,23.376861 Z M21.2429194,8.27660534 C22.7386085,8.73427239 23.831771,10.1307083 23.831771,11.7725199 C23.8303925,13.7851521 22.1885809,15.4269638 20.1759487,15.4283423 C18.1619379,15.4269638 16.5201263,13.7851521 16.5201263,11.7711414 C16.5201263,10.1307083 17.6132889,8.73427239 19.1089779,8.27660534 L19.1089779,3.5248634 L3.52348489,3.5248634 L3.52348489,19.1075994 L8.27798386,19.1075994 C8.73565091,17.6119104 10.1307083,16.5187478 11.7725199,16.5187478 C13.7865307,16.5187478 15.4283423,18.1619379 15.4283423,20.1759487 C15.4283423,22.1885809 13.7865307,23.8303925 11.7725199,23.8303925 C10.1307083,23.8303925 8.73427239,22.7386085 8.27660534,21.2429194 L3.52348489,21.2429194 L0,21.2429194 L0.00137851521,0.00137851521 L21.2429194,0.00137851521 L21.2429194,8.27660534 Z" id="Fill-1" fill="#F1162F" mask="url(#mask-2)"></path>
                </g>
            </g>
        </g>
    </g>
</svg>